<?xml version="1.0" encoding="UTF-8"?>
<svg width="134px" height="40px" viewBox="0 0 134 40" version="1.1" xmlns="http://www.w3.org/2000/svg" xmlns:xlink="http://www.w3.org/1999/xlink">
    <!-- Generator: Sketch 52.1 (67048) - http://www.bohemiancoding.com/sketch -->
    <title>button-playstore2</title>
    <desc>Created with Sketch.</desc>
    <defs>
        <radialGradient cx="50%" cy="50%" fx="50%" fy="50%" r="50%" gradientTransform="translate(0.500000,0.500000),scale(0.296296,1.000000),rotate(90.000000),scale(1.000000,3.375177),translate(-0.500000,-0.500000)" id="radialGradient-1">
            <stop stop-color="#FFFFFF" stop-opacity="0.0146625906" offset="0%"></stop>
            <stop stop-color="#FFFFFF" stop-opacity="0" offset="100%"></stop>
        </radialGradient>
    </defs>
    <g id="Website-Mockups" stroke="none" stroke-width="1" fill="none" fill-rule="evenodd">
        <g id="button-playstore2" transform="translate(-1.000000, 0.000000)">
            <rect id="Rectangle-5" fill="url(#radialGradient-1)" x="0" y="0" width="135" height="40"></rect>
            <g id="icon-+-Google-play-+-Get-it-on" transform="translate(3.000000, 3.000000)" fill="#FBDD11">
                <path d="M4.0399552,1.54211808 L21.2579132,11.3253944 L17.4222606,15.3652281 L4.0399552,1.54211808 Z M29.0732903,17.305419 L22.7416509,20.8827251 L18.5254017,16.5073389 L22.7340307,12.2040881 L29.0732903,15.8588253 C29.9135179,16.3432368 29.9135179,16.8210074 29.0732903,17.305419 Z M0.775862069,1.26085635 C0.775862069,0.936548727 0.82890304,0.688968454 0.922939999,0.510525524 L16.3338941,16.5031465 L0.922939999,32.4957675 C0.82890304,32.3173246 0.775862069,32.0697443 0.775862069,31.7454367 L0.775862069,1.26085635 Z M21.2600773,21.6831779 L4.03058116,31.5408633 L17.4235361,17.6424082 L21.2600773,21.6831779 Z" id="Combined-Shape"></path>
                <path d="M121.54625,32.232 L119.780657,32.232 L121.899625,27.5746923 L118.144578,18.92 L120.003661,18.92 L122.71745,25.5570767 L122.754761,25.5570767 L125.394358,18.92 L127.253012,18.92 L121.54625,32.232 Z M113.590361,18.92 C115.818603,18.92 117.638554,20.2618672 117.638554,22.8333853 L117.638554,28.3496162 L116.004539,28.3496162 L116.004539,27.0825599 L115.929993,27.0825599 C115.428735,27.8465772 114.500337,28.648 112.94044,28.648 C111.083215,28.648 109.542169,27.4927301 109.542169,25.5915008 C109.542169,23.5230217 111.398965,22.4047273 113.534666,22.4047273 C114.760392,22.4047273 115.651517,22.7590043 116.004539,22.9640895 L116.004539,22.7031111 C116.004539,21.3238384 114.909055,20.4854401 113.627634,20.4854401 C112.680386,20.4854401 111.77041,20.9510736 111.45466,21.8083896 L109.895191,21.137671 C110.210512,20.2992727 111.306425,18.92 113.590361,18.92 Z M113.218917,27.0825599 C114.574455,27.0825599 116.004539,25.9083723 116.004539,24.4173132 C116.004539,24.4173132 115.280072,23.8214055 113.831993,23.8214055 C112.030464,23.8214055 111.324847,24.790078 111.324847,25.6289062 C111.324847,26.5980087 112.327791,27.0825599 113.218917,27.0825599 Z M107.012048,15.336 L108.53012,15.336 L108.53012,28.648 L107.012048,28.648 L107.012048,15.336 Z M101.376812,15.336 C103.563671,15.336 105.493976,16.9723873 105.493976,19.2963575 C105.493976,21.6203278 103.563671,23.2562861 101.376812,23.2562861 L98.5827035,23.2562861 L98.5827035,28.648 L96.8915663,28.648 L96.8915663,15.336 L101.376812,15.336 Z M101.41328,21.6203278 C102.920377,21.6203278 103.765946,20.3558272 103.765946,19.2963575 C103.765946,18.236459 102.920377,16.9723873 101.41328,16.9723873 L98.5827035,16.9723873 L98.5827035,21.6203278 L101.41328,21.6203278 Z M84.9927051,24.1148627 L89.0101174,22.4531307 C88.7887723,21.8939917 88.1251629,21.5039934 87.3419421,21.5039934 C86.3373762,21.5039934 84.9416255,22.3853049 84.9927051,24.1148627 Z M87.4951809,28.7261692 C84.9416255,28.7261692 83.0350787,26.759645 83.0350787,24.2505143 C83.0350787,21.5887756 84.9586521,19.7744355 87.2738359,19.7744355 C89.6060463,19.7744355 90.7463988,21.6226885 91.1209827,22.6226951 L91.3253012,23.1313886 L85.3162094,25.6066064 C85.7755003,26.5052982 86.490615,26.9631224 87.4951809,26.9631224 C88.4993212,26.9631224 89.1974093,26.4713853 89.7082055,25.7253015 L91.2401685,26.7426885 C90.7463988,27.471392 89.5549667,28.7261692 87.4951809,28.7261692 Z M80.1069394,28.454866 L80.1069394,15.2987806 L82.0815924,15.2987806 L82.0815924,28.454866 L80.1069394,28.454866 Z M74.4720058,32.744 C72.2930343,32.744 70.9819907,31.2861692 70.488221,30.0992178 L72.2079016,29.3874708 C72.5143793,30.1161742 73.2631214,30.9809531 74.4720058,30.9809531 C75.9528891,30.9809531 76.8723223,30.0653049 76.8723223,28.3531273 L76.8723223,27.7087822 L76.8042162,27.7087822 C76.3615261,28.2513886 75.5101991,28.7261692 74.4379527,28.7261692 C72.190875,28.7261692 70.1310893,26.7766014 70.1310893,24.2674708 C70.1310893,21.7413837 72.190875,19.7744355 74.4379527,19.7744355 C75.5101991,19.7744355 76.3615261,20.2492161 76.8042162,20.774866 L76.8723223,20.774866 L76.8723223,20.0457387 L78.7448161,20.0457387 L78.7448161,28.0818241 C78.7448161,31.3879079 76.7871896,32.744 74.4720058,32.744 Z M74.6082181,26.9631224 C75.9528891,26.9631224 77.0085347,25.8270402 77.0085347,24.2674708 C77.0085347,22.6905209 75.9528891,21.5379063 74.6082181,21.5379063 C73.2460949,21.5379063 72.1057423,22.6905209 72.1057423,24.2674708 C72.1057423,25.8270402 73.2460949,26.9631224 74.6082181,26.9631224 Z M64.8026335,28.7261692 C62.3171842,28.7261692 60.2914516,26.8274708 60.2914516,24.2505143 C60.2914516,21.6566014 62.3171842,19.7744355 64.8026335,19.7744355 C67.2880827,19.7744355 69.3138154,21.6566014 69.3138154,24.2505143 C69.3138154,26.8274708 67.2880827,28.7261692 64.8026335,28.7261692 Z M64.8026335,26.9631224 C66.164331,26.9631224 67.3391623,25.8439967 67.3391623,24.2505143 C67.3391623,22.6396516 66.164331,21.5379063 64.8026335,21.5379063 C63.4405102,21.5379063 62.2661046,22.6396516 62.2661046,24.2505143 C62.2661046,25.8439967 63.4405102,26.9631224 64.8026335,26.9631224 Z M54.9629957,28.7261692 C52.4775465,28.7261692 50.4513882,26.8274708 50.4513882,24.2505143 C50.4513882,21.6566014 52.4775465,19.7744355 54.9629957,19.7744355 C57.448445,19.7744355 59.4741776,21.6566014 59.4741776,24.2505143 C59.4741776,26.8274708 57.448445,28.7261692 54.9629957,28.7261692 Z M54.9629957,26.9631224 C56.3246933,26.9631224 57.4995246,25.8439967 57.4995246,24.2505143 C57.4995246,22.6396516 56.3246933,21.5379063 54.9629957,21.5379063 C53.6008725,21.5379063 52.4264669,22.6396516 52.4264669,24.2505143 C52.4264669,25.8439967 53.6008725,26.9631224 54.9629957,26.9631224 Z M43.2504385,28.7261692 C39.4032917,28.7261692 36.1686747,25.6066064 36.1686747,21.7752966 C36.1686747,17.9435628 39.4032917,14.824 43.2504385,14.824 C45.3783304,14.824 46.8936925,15.654866 48.0340451,16.7400788 L46.6893741,18.0792144 C45.8721001,17.3161742 44.7658006,16.7231224 43.2504385,16.7231224 C40.441485,16.7231224 38.245487,18.9779063 38.245487,21.7752966 C38.245487,24.5726869 40.441485,26.8274708 43.2504385,26.8274708 C45.0718527,26.8274708 46.1104717,26.0983434 46.7745068,25.4370419 C47.319356,24.8944355 47.6764877,24.1148627 47.8127001,23.0466064 L43.2504385,23.0466064 L43.2504385,21.1479079 L49.668593,21.1479079 C49.7366991,21.4870369 49.7707522,21.8939917 49.7707522,22.3344355 C49.7707522,23.7587773 49.3791418,25.5218241 48.1191778,26.7766014 C46.8936925,28.0479112 45.3276765,28.7261692 43.2504385,28.7261692 Z" id="Combined-Shape"></path>
                <path d="M40.7466114,7.82160107 C40.6859937,7.90160147 40.6016572,7.99026725 40.4935994,8.08760107 C40.3855416,8.18493489 40.2465182,8.27560065 40.0765248,8.35960107 C39.9065315,8.44360149 39.7022791,8.51426745 39.4637613,8.57160107 C39.2252435,8.62893469 38.94522,8.65760107 38.6236822,8.65760107 C38.2626111,8.65760107 37.931195,8.59493503 37.6294239,8.46960107 C37.3276529,8.34426711 37.0687134,8.16293559 36.8525979,7.92560107 C36.6364824,7.68826655 36.4684682,7.39626947 36.3485505,7.04960107 C36.2286327,6.70293267 36.1686747,6.30693663 36.1686747,5.86160107 L36.1686747,5.47760107 C36.1686747,5.03493219 36.2227028,4.63960281 36.3307605,4.29160107 C36.4388183,3.94359933 36.5943137,3.64960227 36.7972515,3.40960107 C37.0001893,3.16959987 37.2479278,2.98693503 37.5404744,2.86160107 C37.833021,2.73626711 38.165096,2.67360107 38.5367093,2.67360107 C38.8872382,2.67360107 39.192958,2.71960061 39.453878,2.81160107 C39.714798,2.90360153 39.9348636,3.03226691 40.1140813,3.19760107 C40.2932991,3.36293523 40.4342992,3.55959993 40.5370858,3.78760107 C40.6398725,4.01560221 40.7083959,4.26559971 40.7426581,4.53760107 L39.7622364,4.53760107 C39.7385164,4.38560031 39.6989837,4.24560171 39.643637,4.11760107 C39.5882904,3.98960043 39.5125193,3.87893487 39.4163215,3.78560107 C39.3201238,3.69226727 39.2015256,3.61893467 39.0605233,3.56560107 C38.9195211,3.51226747 38.751507,3.48560107 38.5564759,3.48560107 C38.3219115,3.48560107 38.1183179,3.52960063 37.945689,3.61760107 C37.7730601,3.70560151 37.6294245,3.83426689 37.5147779,4.00360107 C37.4001312,4.17293525 37.3144769,4.38093317 37.2578125,4.62760107 C37.2011481,4.87426897 37.1728163,5.15493283 37.1728163,5.46960107 L37.1728163,5.86160107 C37.1728163,6.18160267 37.207078,6.46493317 37.2756024,6.71160107 C37.3441268,6.95826897 37.4422998,7.16560023 37.5701242,7.33360107 C37.6979487,7.50160191 37.8534441,7.62960063 38.0366152,7.71760107 C38.2197863,7.80560151 38.4273332,7.84960107 38.659262,7.84960107 C38.8305731,7.84960107 38.9775032,7.83826785 39.1000565,7.81560107 C39.2226098,7.79293429 39.3260538,7.76426791 39.4103916,7.72960107 C39.4947293,7.69493423 39.5639116,7.65693461 39.6179405,7.61560107 C39.6719694,7.57426753 39.7161143,7.53493459 39.7503765,7.49760107 L39.7503765,6.35760107 L38.5643825,6.35760107 L38.5643825,5.58960107 L40.7466114,5.58960107 L40.7466114,7.82160107 Z M45.2099021,5.97760107 L42.8458208,5.97760107 L42.8458208,7.76960107 L45.6091867,7.76960107 L45.6091867,8.57760107 L41.8456325,8.57760107 L41.8456325,2.75360107 L45.5815136,2.75360107 L45.5815136,3.56960107 L42.8458208,3.56960107 L42.8458208,5.17760107 L45.2099021,5.17760107 L45.2099021,5.97760107 Z M50.5824548,3.56960107 L48.7876506,3.56960107 L48.7876506,8.57760107 L47.795369,8.57760107 L47.795369,3.56960107 L46.016378,3.56960107 L46.016378,2.75360107 L50.5824548,2.75360107 L50.5824548,3.56960107 Z M54.409262,8.57760107 L53.4130271,8.57760107 L53.4130271,2.75360107 L54.409262,2.75360107 L54.409262,8.57760107 Z M59.797628,3.56960107 L58.0028238,3.56960107 L58.0028238,8.57760107 L57.0105422,8.57760107 L57.0105422,3.56960107 L55.2315512,3.56960107 L55.2315512,2.75360107 L59.797628,2.75360107 L59.797628,3.56960107 Z M67.1626506,5.81760107 C67.1626506,6.26026995 67.1053281,6.65693265 66.9906815,7.00760107 C66.8760348,7.35826949 66.7146095,7.65559985 66.5064006,7.89960107 C66.2981917,8.14360229 66.0478177,8.33093375 65.7552711,8.46160107 C65.4627244,8.59226839 65.138556,8.65760107 64.782756,8.65760107 C64.4295916,8.65760107 64.1067409,8.59226839 63.8141943,8.46160107 C63.5216476,8.33093375 63.269297,8.14360229 63.0571348,7.89960107 C62.8449726,7.65559985 62.6802528,7.35826949 62.5629706,7.00760107 C62.4456884,6.65693265 62.3870482,6.26026995 62.3870482,5.81760107 L62.3870482,5.52160107 C62.3870482,5.07893219 62.4456884,4.68160283 62.5629706,4.32960107 C62.6802528,3.97759931 62.8436548,3.67893563 63.0531815,3.43360107 C63.2627081,3.18826651 63.513741,3.00026839 63.8062877,2.86960107 C64.0988343,2.73893375 64.421685,2.67360107 64.7748494,2.67360107 C65.1306494,2.67360107 65.4554767,2.73893375 65.7493411,2.86960107 C66.0432055,3.00026839 66.2948973,3.18826651 66.5044239,3.43360107 C66.7139506,3.67893563 66.8760348,3.97759931 66.9906815,4.32960107 C67.1053281,4.68160283 67.1626506,5.07893219 67.1626506,5.52160107 L67.1626506,5.81760107 Z M66.1624623,5.51360107 C66.1624623,5.18826611 66.131495,4.90093565 66.0695595,4.65160107 C66.0076239,4.40226649 65.9173575,4.19360191 65.7987575,4.02560107 C65.6801575,3.85760023 65.5345453,3.73026817 65.3619164,3.64360107 C65.1892875,3.55693397 64.9936005,3.51360107 64.7748494,3.51360107 C64.5613694,3.51360107 64.3689768,3.55693397 64.1976657,3.64360107 C64.0263546,3.73026817 63.8807423,3.85760023 63.7608245,4.02560107 C63.6409068,4.19360191 63.5486637,4.40226649 63.4840926,4.65160107 C63.4195215,4.90093565 63.3872364,5.18826611 63.3872364,5.51360107 L63.3872364,5.81760107 C63.3872364,6.14293603 63.4195215,6.43093315 63.4840926,6.68160107 C63.5486637,6.93226899 63.6415657,7.14226689 63.7628012,7.31160107 C63.8840368,7.48093525 64.0309668,7.60893397 64.2035956,7.69560107 C64.3762245,7.78226817 64.569276,7.82560107 64.782756,7.82560107 C65.2255293,7.82560107 65.5661697,7.65493611 65.8046875,7.31360107 C66.0432053,6.97226603 66.1624623,6.47360435 66.1624623,5.81760107 L66.1624623,5.51360107 Z M72.7249623,8.57760107 L71.7247741,8.57760107 L69.1590738,4.44560107 L69.1590738,8.57760107 L68.1588855,8.57760107 L68.1588855,2.75360107 L69.1590738,2.75360107 L71.7326807,6.90160107 L71.7326807,2.75360107 L72.7249623,2.75360107 L72.7249623,8.57760107 Z" id="GET-IT-ON"></path>
            </g>
        </g>
    </g>
</svg>