<?xml version="1.0" encoding="UTF-8"?>
<svg width="134px" height="40px" viewBox="0 0 134 40" version="1.1" xmlns="http://www.w3.org/2000/svg" xmlns:xlink="http://www.w3.org/1999/xlink">
    <!-- Generator: Sketch 52.1 (67048) - http://www.bohemiancoding.com/sketch -->
    <title>button-appstore2</title>
    <desc>Created with Sketch.</desc>
    <defs>
        <radialGradient cx="50%" cy="50%" fx="50%" fy="50%" r="50%" gradientTransform="translate(0.500000,0.500000),scale(0.296296,1.000000),rotate(90.000000),scale(1.000000,3.375177),translate(-0.500000,-0.500000)" id="radialGradient-1">
            <stop stop-color="#FFFFFF" stop-opacity="0.0146625906" offset="0%"></stop>
            <stop stop-color="#FFFFFF" stop-opacity="0" offset="100%"></stop>
        </radialGradient>
    </defs>
    <g id="Website-Mockups" stroke="none" stroke-width="1" fill="none" fill-rule="evenodd">
        <g id="button-appstore2" transform="translate(-1.000000, 0.000000)">
            <rect id="Rectangle-5" fill="url(#radialGradient-1)" x="0" y="0" width="135" height="40"></rect>
            <g id="Group-13" transform="translate(8.000000, 4.000000)" fill="#FBDD11">
                <path d="M21.8547975,17.1631551 C21.8961807,22.0207803 26.0921845,23.6265756 26.1435999,23.6441803 C26.1185192,23.757353 25.4864852,25.9617063 23.9126702,28.2000115 C22.5984407,30.1704746 21.2215094,32.096926 19.034471,32.1321353 C16.9101343,32.1811768 16.1953339,30.8784329 13.7587423,30.8784329 C11.2995781,30.8784329 10.5383784,32.096926 8.50057022,32.1811768 C6.41761675,32.2578828 4.82624532,30.0774214 3.46436244,28.124563 C0.741850707,24.1371104 -1.3774698,16.8877681 1.46417533,11.9546944 C2.84110664,9.53531282 5.35168632,7.97730152 8.03532294,7.93580485 C10.1207845,7.89305071 12.0557617,9.34794907 13.3373863,9.34794907 C14.5939302,9.34794907 16.9866305,7.60760392 19.4533189,7.86790121 C20.4853904,7.8980806 23.4223422,8.27658052 25.3171903,11.0467975 C25.164198,11.1385932 21.8184305,13.1103137 21.8547975,17.1631551 Z M17.8418829,5.24480874 C16.6982023,6.59785164 14.868564,7.63275342 13.0865792,7.49946109 C12.8533285,5.67360765 13.7562343,3.73206654 14.7669871,2.54752526 C15.9094137,1.20328468 17.8932984,0.173412805 19.4796537,0.102994216 C19.6878236,2.00052371 18.9379102,3.87038877 17.8418829,5.24480874 Z" id="Combined-Shape"></path>
                <path d="M47.7490461,29.563193 L46.51994,26.000315 L41.3986646,26.000315 L40.1695585,29.563193 L38,29.563193 L42.8512445,16.3805444 L45.1046057,16.3805444 L49.9558503,29.563193 L47.7490461,29.563193 Z M43.9313681,18.5730847 L41.929415,24.3559098 L45.9891897,24.3559098 L43.9872366,18.5730847 L43.9313681,18.5730847 Z M56.2969204,19.797253 C58.7830669,19.797253 60.421875,21.7157258 60.421875,24.7578755 C60.421875,27.8000252 58.7923783,29.7276336 56.3341661,29.7276336 C54.9281432,29.7276336 53.810774,29.0516003 53.2520894,27.9827369 L53.2055323,27.9827369 L53.2055323,32.7423765 L51.1942678,32.7423765 L51.1942678,19.952558 L53.1403525,19.952558 L53.1403525,21.6060988 L53.1775981,21.6060988 C53.7549055,20.500693 54.8815861,19.797253 56.2969204,19.797253 Z M55.7661701,28.0558216 C57.3584211,28.0558216 58.354742,26.7768397 58.354742,24.7578755 C58.354742,22.7480469 57.3584211,21.4599294 55.7661701,21.4599294 C54.2297874,21.4599294 53.1962209,22.7754536 53.1962209,24.7578755 C53.1962209,26.7585685 54.220476,28.0558216 55.7661701,28.0558216 Z M67.0702217,19.797253 C69.5563681,19.797253 71.1951762,21.7157258 71.1951762,24.7578755 C71.1951762,27.8000252 69.5656795,29.7276336 67.1074673,29.7276336 C65.7014444,29.7276336 64.5840752,29.0516003 64.0253906,27.9827369 L63.9788336,27.9827369 L63.9788336,32.7423765 L61.967569,32.7423765 L61.967569,19.952558 L63.9136537,19.952558 L63.9136537,21.6060988 L63.9508993,21.6060988 C64.5282068,20.500693 65.6548874,19.797253 67.0702217,19.797253 Z M66.5394713,28.0558216 C68.1317224,28.0558216 69.1280432,26.7768397 69.1280432,24.7578755 C69.1280432,22.7480469 68.1317224,21.4599294 66.5394713,21.4599294 C65.0030887,21.4599294 63.9695222,22.7754536 63.9695222,24.7578755 C63.9695222,26.7585685 64.9937773,28.0558216 66.5394713,28.0558216 Z M76.2512718,25.890688 L78.3090934,25.890688 C78.4580759,27.1970766 79.7523619,28.0558216 81.5215298,28.0558216 C83.2162064,28.0558216 84.4360011,27.1970766 84.4360011,26.0185862 C84.4360011,24.9954007 83.7003997,24.3833165 81.9591661,23.9630796 L80.2179324,23.5519783 C77.7504088,22.9673009 76.6051054,21.8344884 76.6051054,19.9982359 C76.6051054,17.7234753 78.6256813,16.1612903 81.4935956,16.1612903 C84.3335756,16.1612903 86.2796602,17.7234753 86.3448401,19.9982359 L84.3149528,19.9982359 C84.1939044,18.6827117 83.0858467,17.8879158 81.4656613,17.8879158 C79.845476,17.8879158 78.7374182,18.6918473 78.7374182,19.8612021 C78.7374182,20.7930318 79.4450854,21.3411668 81.1770076,21.7614037 L82.6575218,22.1176915 C85.4136991,22.7571825 86.5590025,23.844317 86.5590025,25.7719254 C86.5590025,28.2385333 84.5570494,29.7824471 81.3725472,29.7824471 C78.3928961,29.7824471 76.3816315,28.2750756 76.2512718,25.890688 Z M88.7751181,17.6777974 L90.795694,17.6777974 L90.795694,19.952558 L92.657976,19.952558 L92.657976,21.5147429 L90.795694,21.5147429 L90.795694,26.8133821 C90.795694,27.6447203 91.1681504,28.0192792 91.9875545,28.0192792 C92.1924055,28.0192792 92.5183049,28.0010081 92.6486646,27.9736013 L92.6486646,29.5357863 C92.4251908,29.5905998 91.9782431,29.6271421 91.5312954,29.6271421 C89.5479651,29.6271421 88.7751181,28.8871598 88.7751181,27.0326361 L88.7751181,21.5147429 L87.3504724,21.5147429 L87.3504724,19.952558 L88.7751181,19.952558 L88.7751181,17.6777974 Z M98.5148528,29.7459047 C95.7121185,29.7459047 93.8684593,27.8548387 93.8684593,24.7578755 C93.8684593,21.6700479 95.7214299,19.7789819 98.5148528,19.7789819 C101.308276,19.7789819 103.161246,21.6700479 103.161246,24.7578755 C103.161246,27.8548387 101.317587,29.7459047 98.5148528,29.7459047 Z M98.5148528,28.1197707 C100.097793,28.1197707 101.112736,26.8956023 101.112736,24.7578755 C101.112736,22.6292843 100.088481,21.4051159 98.5148528,21.4051159 C96.9412246,21.4051159 95.9169695,22.6292843 95.9169695,24.7578755 C95.9169695,26.8956023 96.9412246,28.1197707 98.5148528,28.1197707 Z M104.716252,29.563193 L104.716252,19.952558 L106.634402,19.952558 L106.634402,21.5878276 L106.680959,21.5878276 C107.006859,20.4641507 107.882131,19.797253 109.036746,19.797253 C109.3254,19.797253 109.576808,19.8429309 109.72579,19.8703377 L109.72579,21.7065902 C109.567496,21.6426411 109.213663,21.5969632 108.822584,21.5969632 C107.528298,21.5969632 106.727516,22.4465726 106.727516,23.8077747 L106.727516,29.563193 L104.716252,29.563193 Z M115.07054,21.3685736 C113.664517,21.3685736 112.677507,22.4191658 112.575082,23.8717238 L117.472883,23.8717238 C117.426326,22.4008947 116.476562,21.3685736 115.07054,21.3685736 Z M117.463572,26.7402974 L119.372411,26.7402974 C119.093069,28.4943296 117.398392,29.7459047 115.154342,29.7459047 C112.277117,29.7459047 110.535883,27.8365675 110.535883,24.8035534 C110.535883,21.7888105 112.305051,19.7789819 115.07054,19.7789819 C117.789471,19.7789819 119.484148,21.6609123 119.484148,24.5751638 L119.484148,25.2511971 L112.56577,25.2511971 L112.56577,25.3699597 C112.56577,27.0417717 113.590025,28.1471774 115.200899,28.1471774 C116.346203,28.1471774 117.193541,27.5807712 117.463572,26.7402974 Z" id="App-Store"></path>
                <path d="M39.6678438,3.24951172 L42.4017306,3.24951172 C44.7059298,3.24951172 46.0701876,4.66748047 46.0701876,7.11132812 C46.0701876,9.56054688 44.7113009,11 42.4017306,11 L39.6678438,11 L39.6678438,3.24951172 Z M40.8709688,4.28613281 L40.8709688,9.95800781 L42.2889376,9.95800781 C43.9324923,9.95800781 44.8402071,8.95361328 44.8402071,7.12207031 C44.8402071,5.29589844 43.9271212,4.28613281 42.2889376,4.28613281 L40.8709688,4.28613281 Z M49.4829047,11.1074219 C47.8662055,11.1074219 46.802729,9.99560547 46.802729,8.17480469 C46.802729,6.359375 47.8715766,5.24755859 49.4829047,5.24755859 C51.0942329,5.24755859 52.1630805,6.359375 52.1630805,8.17480469 C52.1630805,9.99560547 51.099604,11.1074219 49.4829047,11.1074219 Z M49.4829047,10.1513672 C50.3959907,10.1513672 50.9814399,9.43164062 50.9814399,8.17480469 C50.9814399,6.92333984 50.3906196,6.20361328 49.4829047,6.20361328 C48.5751899,6.20361328 47.9843696,6.92333984 47.9843696,8.17480469 C47.9843696,9.43164062 48.5751899,10.1513672 49.4829047,10.1513672 Z M60.4742352,5.34960938 L58.9273602,11 L57.7188641,11 L56.5318523,6.76757812 L56.5049969,6.76757812 L55.3287273,11 L54.1309734,11 L52.5787273,5.34960938 L53.7388836,5.34960938 L54.7701336,9.796875 L54.791618,9.796875 L55.9678875,5.34960938 L57.085075,5.34960938 L58.2667156,9.796875 L58.2935711,9.796875 L59.3248211,5.34960938 L60.4742352,5.34960938 Z M61.1638078,11 L61.1638078,5.34960938 L62.2702531,5.34960938 L62.2702531,6.29492188 L62.2971086,6.29492188 C62.6032609,5.65039062 63.2048234,5.25292969 64.0749406,5.25292969 C65.3210343,5.25292969 66.0353898,6.04785156 66.0353898,7.34228516 L66.0353898,11 L64.8698625,11 L64.8698625,7.56787109 C64.8698625,6.71923828 64.4724015,6.25195312 63.6667375,6.25195312 C62.8503312,6.25195312 62.323964,6.83203125 62.323964,7.70751953 L62.323964,11 L61.1638078,11 Z M67.1761343,11 L67.1761343,3.24951172 L68.3362905,3.24951172 L68.3362905,11 L67.1761343,11 Z M71.936996,11.1074219 C70.3202967,11.1074219 69.2568202,9.99560547 69.2568202,8.17480469 C69.2568202,6.359375 70.3256678,5.24755859 71.936996,5.24755859 C73.5483241,5.24755859 74.6171717,6.359375 74.6171717,8.17480469 C74.6171717,9.99560547 73.5536952,11.1074219 71.936996,11.1074219 Z M71.936996,10.1513672 C72.8500819,10.1513672 73.4355311,9.43164062 73.4355311,8.17480469 C73.4355311,6.92333984 72.8447108,6.20361328 71.936996,6.20361328 C71.0292811,6.20361328 70.4384608,6.92333984 70.4384608,8.17480469 C70.4384608,9.43164062 71.0292811,10.1513672 71.936996,10.1513672 Z M77.4712951,10.1782227 C78.2823303,10.1782227 78.9161194,9.61962891 78.9161194,8.88378906 L78.9161194,8.43798828 L77.5250061,8.52392578 C76.832135,8.57226562 76.4400451,8.87841797 76.4400451,9.36181641 C76.4400451,9.85595703 76.8482483,10.1782227 77.4712951,10.1782227 Z M77.1490295,11.0966797 C76.0425842,11.0966797 75.2691467,10.4091797 75.2691467,9.39404297 C75.2691467,8.40576172 76.0264709,7.79882812 77.3692444,7.72363281 L78.9161194,7.63232422 L78.9161194,7.19726562 C78.9161194,6.56884766 78.4918029,6.19287109 77.7828186,6.19287109 C77.1114319,6.19287109 76.6924865,6.51513672 76.5904358,7.02001953 L75.4947326,7.02001953 C75.5591858,5.99951172 76.4293029,5.24755859 77.8257873,5.24755859 C79.1954162,5.24755859 80.0709045,5.97265625 80.0709045,7.10595703 L80.0709045,11 L78.9590881,11 L78.9590881,10.0708008 L78.9322326,10.0708008 C78.6045959,10.6992188 77.8902404,11.0966797 77.1490295,11.0966797 Z M83.2956334,11.0966797 C81.8669224,11.0966797 80.9216099,9.95800781 80.9216099,8.17480469 C80.9216099,6.39160156 81.8669224,5.25830078 83.2848912,5.25830078 C84.0959263,5.25830078 84.7404576,5.66650391 85.0573521,6.28955078 L85.0788365,6.28955078 L85.0788365,3.24951172 L86.2443638,3.24951172 L86.2443638,11 L85.1164342,11 L85.1164342,10.0385742 L85.0949498,10.0385742 C84.761942,10.6831055 84.1174107,11.0966797 83.2956334,11.0966797 Z M83.6017857,6.23583984 C82.6833287,6.23583984 82.1086217,6.98779297 82.1086217,8.17480469 C82.1086217,9.3671875 82.6833287,10.1137695 83.6017857,10.1137695 C84.4933873,10.1137695 85.0895787,9.35644531 85.0895787,8.17480469 C85.0895787,7.00390625 84.4933873,6.23583984 83.6017857,6.23583984 Z M92.0492903,11.1074219 C90.4325911,11.1074219 89.3691145,9.99560547 89.3691145,8.17480469 C89.3691145,6.359375 90.4379622,5.24755859 92.0492903,5.24755859 C93.6606184,5.24755859 94.7294661,6.359375 94.7294661,8.17480469 C94.7294661,9.99560547 93.6659895,11.1074219 92.0492903,11.1074219 Z M92.0492903,10.1513672 C92.9623763,10.1513672 93.5478255,9.43164062 93.5478255,8.17480469 C93.5478255,6.92333984 92.9570052,6.20361328 92.0492903,6.20361328 C91.1415755,6.20361328 90.5507552,6.92333984 90.5507552,8.17480469 C90.5507552,9.43164062 91.1415755,10.1513672 92.0492903,10.1513672 Z M95.607027,11 L95.607027,5.34960938 L96.7134723,5.34960938 L96.7134723,6.29492188 L96.7403278,6.29492188 C97.0464801,5.65039062 97.6480426,5.25292969 98.5181598,5.25292969 C99.7642536,5.25292969 100.478609,6.04785156 100.478609,7.34228516 L100.478609,11 L99.3130817,11 L99.3130817,7.56787109 C99.3130817,6.71923828 98.9156207,6.25195312 98.1099567,6.25195312 C97.2935504,6.25195312 96.7671832,6.83203125 96.7671832,7.70751953 L96.7671832,11 L95.607027,11 Z M104.124356,4.01220703 L105.289883,4.01220703 L105.289883,5.34960938 L106.364102,5.34960938 L106.364102,6.26806641 L105.289883,6.26806641 L105.289883,9.38330078 C105.289883,9.87207031 105.504727,10.0922852 105.977383,10.0922852 C106.095547,10.0922852 106.283535,10.081543 106.358731,10.0654297 L106.358731,10.9838867 C106.229825,11.0161133 105.972012,11.0375977 105.7142,11.0375977 C104.570157,11.0375977 104.124356,10.6025391 104.124356,9.51220703 L104.124356,6.26806641 L103.302578,6.26806641 L103.302578,5.34960938 L104.124356,5.34960938 L104.124356,4.01220703 Z M107.338342,11 L107.338342,3.24951172 L108.487757,3.24951172 L108.487757,6.29492188 L108.514612,6.29492188 C108.826135,5.63427734 109.443811,5.25292969 110.303186,5.25292969 C111.543909,5.25292969 112.28512,6.08007812 112.28512,7.35839844 L112.28512,11 L111.119592,11 L111.119592,7.58398438 C111.119592,6.75146484 110.700647,6.25195312 109.884241,6.25195312 C109.024866,6.25195312 108.498499,6.84277344 108.498499,7.734375 L108.498499,11 L107.338342,11 Z M115.746177,6.18212891 C114.935142,6.18212891 114.365806,6.79980469 114.306724,7.65380859 L117.131919,7.65380859 C117.105064,6.7890625 116.557212,6.18212891 115.746177,6.18212891 Z M117.126548,9.34033203 L118.227622,9.34033203 C118.066489,10.371582 117.08895,11.1074219 115.794517,11.1074219 C114.134849,11.1074219 113.130454,9.98486328 113.130454,8.20166016 C113.130454,6.42919922 114.150962,5.24755859 115.746177,5.24755859 C117.314536,5.24755859 118.292075,6.35400391 118.292075,8.06738281 L118.292075,8.46484375 L114.301353,8.46484375 L114.301353,8.53466797 C114.301353,9.51757812 114.892173,10.1674805 115.821372,10.1674805 C116.482017,10.1674805 116.970786,9.83447266 117.126548,9.34033203 Z" id="Download-on-the"></path>
            </g>
        </g>
    </g>
</svg>