<?xml version="1.0" encoding="UTF-8" standalone="no"?>
<!DOCTYPE svg PUBLIC "-//W3C//DTD SVG 1.1//EN" "http://www.w3.org/Graphics/SVG/1.1/DTD/svg11.dtd">
<svg width="100%" height="100%" viewBox="0 0 300 300" version="1.1" xmlns="http://www.w3.org/2000/svg" xmlns:xlink="http://www.w3.org/1999/xlink" xml:space="preserve" xmlns:serif="http://www.serif.com/" style="fill-rule:evenodd;clip-rule:evenodd;stroke-linejoin:round;stroke-miterlimit:2;">
    <g id="Page-1">
        <g id="icon">
            <g id="banano-icon">
                <g>
                    <g id="base">
                        <path id="path-1" d="M300,150C300,67.213 232.787,0 150,0C67.213,0 0,67.213 0,150C0,232.787 67.213,300 150,300C232.787,300 300,232.787 300,150Z" style="fill:white;"/>
                        <path id="Combined-Shape" d="M300,150C300,232.843 232.843,300 150,300C67.157,300 0,232.843 0,150C-0,149.499 0.002,148.999 0.007,148.5C0.812,230.652 67.658,297 150,297C232.342,297 299.188,230.652 299.993,148.5C299.998,148.999 300,149.499 300,150Z" style="fill-opacity:0.1;"/>
                        <path id="Combined-Shape1" serif:id="Combined-Shape" d="M299.993,151.5C299.188,69.348 232.342,3 150,3C67.658,3 0.812,69.348 0.007,151.5C0.002,151.001 0,150.501 0,150C-0,67.157 67.157,0 150,0C232.843,-0 300,67.157 300,150C300,150.501 299.998,151.001 299.993,151.5L299.993,151.5Z" style="fill:white;fill-opacity:0.1;"/>
                        <path id="innerring" d="M285,150C285,75.491 224.509,15 150,15C75.491,15 15,75.491 15,150C15,224.509 75.491,285 150,285C224.509,285 285,224.509 285,150Z" style="fill:rgb(131,71,229);"/>
                    </g>
                    <g id="logo" transform="matrix(1,0,0,1,61.8,103.8)">
                        <g>
                            <path id="path-2" d="M127.312,92.314C71.535,99.336 45.851,50.228 50.407,45.437C53.415,42.274 58.092,42.084 62.145,41.975C80.794,41.47 107.19,63.243 112.544,63.136C122.912,62.924 138.511,46.445 148.732,32.861C153.01,27.178 179.735,18.616 176.771,33.545C167.162,81.964 134.419,91.419 127.312,92.314ZM49.688,0.686C105.465,-6.336 131.149,42.772 126.591,47.563C123.583,50.726 118.908,50.916 114.855,51.025C96.206,51.53 69.81,29.755 64.456,29.864C54.088,30.076 38.489,46.555 28.266,60.139C23.99,65.822 -2.735,74.384 0.229,59.457C9.838,11.036 42.581,1.581 49.688,0.686Z" style="fill:white;"/>
                            <path id="path-21" serif:id="path-2" d="M127.312,92.314C71.535,99.336 45.851,50.228 50.407,45.437C53.415,42.274 58.092,42.084 62.145,41.975C80.794,41.47 107.19,63.243 112.544,63.136C122.912,62.924 138.511,46.445 148.732,32.861C153.01,27.178 179.735,18.616 176.771,33.545C167.162,81.964 134.419,91.419 127.312,92.314ZM49.688,0.686C105.465,-6.336 131.149,42.772 126.591,47.563C123.583,50.726 118.908,50.916 114.855,51.025C96.206,51.53 69.81,29.755 64.456,29.864C54.088,30.076 38.489,46.555 28.266,60.139C23.99,65.822 -2.735,74.384 0.229,59.457C9.838,11.036 42.581,1.581 49.688,0.686Z" style="fill:white;"/>
                        </g>
                        <path id="highlight" d="M126.983,46.818C125.006,34.857 99.206,-3.148 49.688,3.086C42.581,3.981 9.838,13.436 0.229,61.857C0.167,62.166 0.119,62.466 0.082,62.755C-0.06,61.813 -0.022,60.719 0.229,59.457C9.838,11.036 42.581,1.581 49.688,0.686C103.317,-6.065 129.125,39.072 126.983,46.818ZM50.015,48.581C49.765,47.07 49.896,45.974 50.407,45.437C53.415,42.274 58.092,42.084 62.145,41.975C80.794,41.47 107.19,63.243 112.544,63.136C122.912,62.924 138.511,46.445 148.732,32.861C152.921,27.296 178.636,18.97 176.918,32.647C175.376,22.443 152.648,30.059 148.732,35.261C138.511,48.845 122.912,65.324 112.544,65.536C107.19,65.643 80.794,43.87 62.145,44.375C58.092,44.484 53.415,44.674 50.407,47.837C50.231,48.021 50.101,48.271 50.015,48.581Z" style="fill:white;fill-opacity:0.1;"/>
                        <path id="shadow" d="M126.983,44.418C127.233,45.93 127.103,47.025 126.591,47.563C123.583,50.726 118.908,50.916 114.855,51.025C96.206,51.53 69.81,29.755 64.456,29.864C54.088,30.076 38.489,46.555 28.266,60.139C24.079,65.704 -1.636,74.03 0.082,60.355C1.624,70.557 24.352,62.941 28.266,57.739C38.489,44.155 54.088,27.676 64.456,27.464C69.81,27.355 96.206,49.13 114.855,48.625C118.908,48.516 123.583,48.326 126.591,45.163C126.767,44.979 126.897,44.728 126.983,44.418ZM50.015,46.181C51.993,58.141 77.793,96.148 127.312,89.914C134.419,89.019 167.162,79.564 176.771,31.145C176.833,30.836 176.881,30.536 176.918,30.247C177.06,31.189 177.022,32.283 176.771,33.545C167.162,81.964 134.419,91.419 127.312,92.314C73.681,99.066 47.873,53.925 50.015,46.181Z" style="fill-opacity:0.1;"/>
                    </g>
                </g>
            </g>
        </g>
    </g>
</svg>
