<svg xmlns="http://www.w3.org/2000/svg" width="24" height="24" fill="none" viewBox="0 0 24 24"><g clip-path="url(#a)"><circle cx="12" cy="12" r="12" fill="#2D374B"/><path fill="#fff" fill-rule="evenodd" d="M18.8 8.05c.12.2.19.43.2.67v6.54a1.45 1.45 0 0 1-.56 1.1l-5.9 3.42a1.44 1.44 0 0 1-1.1-.02l-.12-.07-.03-.02-.19-.1-2.16-1.25-1.8-1.04 5.16-8.54 2.28-.01-5.15 8.75 2.4 1.39a.5.5 0 0 0 .35 0l2.03-1.17-2.17-3.41 1.33-2.25 2.84 4.5.57-.33-3-4.87 1.15-1.96 3.1 4.84V8.75a.48.48 0 0 0-.22-.38l-5.6-3.23a.5.5 0 0 0-.43 0L6.17 8.4a.49.49 0 0 0-.2.36V14l2.9-4.5c.37-.6 1.16-.8 1.9-.78l.87.02-5.1 8.2-1.54-.9V8.72a1.45 1.45 0 0 1 .82-1.24l5.52-3.2a1.47 1.47 0 0 1 1.3 0l5.68 3.27c.2.12.36.3.48.5Z" clip-rule="evenodd"/></g><defs><clipPath id="a"><path fill="#fff" d="M0 0h24v24H0z"/></clipPath></defs></svg>