<?xml version="1.0" encoding="UTF-8" standalone="no"?>
<svg
   xmlns:dc="http://purl.org/dc/elements/1.1/"
   xmlns:cc="http://creativecommons.org/ns#"
   xmlns:rdf="http://www.w3.org/1999/02/22-rdf-syntax-ns#"
   xmlns:svg="http://www.w3.org/2000/svg"
   xmlns="http://www.w3.org/2000/svg"
   xmlns:sodipodi="http://sodipodi.sourceforge.net/DTD/sodipodi-0.dtd"
   xmlns:inkscape="http://www.inkscape.org/namespaces/inkscape"
   width="1000"
   height="1000"
   viewBox="0 0 264.58333 264.58334"
   version="1.1"
   id="svg1406"
   inkscape:version="1.0.2 (e86c870879, 2021-01-15, custom)"
   sodipodi:docname="icon_wban_withdraw new.svg">
  <defs
     id="defs1400" />
  <sodipodi:namedview
     id="base"
     pagecolor="#ffffff"
     bordercolor="#666666"
     borderopacity="1.0"
     inkscape:pageopacity="0.0"
     inkscape:pageshadow="2"
     inkscape:zoom="0.25"
     inkscape:cx="80.657034"
     inkscape:cy="782.78192"
     inkscape:document-units="mm"
     inkscape:current-layer="layer1"
     inkscape:document-rotation="0"
     showgrid="false"
     units="px"
     inkscape:snap-page="true"
     inkscape:window-width="1180"
     inkscape:window-height="738"
     inkscape:window-x="26"
     inkscape:window-y="0"
     inkscape:window-maximized="0" />
  <metadata
     id="metadata1403">
    <rdf:RDF>
      <cc:Work
         rdf:about="">
        <dc:format>image/svg+xml</dc:format>
        <dc:type
           rdf:resource="http://purl.org/dc/dcmitype/StillImage" />
        <dc:title></dc:title>
      </cc:Work>
    </rdf:RDF>
  </metadata>
  <g
     inkscape:label="Layer 1"
     inkscape:groupmode="layer"
     id="layer1">
    <g
       id="g854"
       transform="translate(2.9038755,3.0580312)">
      <g
         id="g1366"
         transform="matrix(0.18093772,0,0,0.18093773,11185.57,-5298.1907)"
         style="stroke-width:38.6873;stroke-miterlimit:4;stroke-dasharray:none">
        <g
           id="g1353"
           style="opacity:1;fill:#f9df2d;fill-opacity:1;stroke-width:106.506;stroke-miterlimit:4;stroke-dasharray:none"
           transform="matrix(0.36324004,0,0,0.36324004,-40784.339,24405.744)">
          <path
             style="color:#000000;font-style:normal;font-variant:normal;font-weight:normal;font-stretch:normal;font-size:medium;line-height:normal;font-family:sans-serif;font-variant-ligatures:normal;font-variant-position:normal;font-variant-caps:normal;font-variant-numeric:normal;font-variant-alternates:normal;font-variant-east-asian:normal;font-feature-settings:normal;font-variation-settings:normal;text-indent:0;text-align:start;text-decoration:none;text-decoration-line:none;text-decoration-style:solid;text-decoration-color:#000000;letter-spacing:normal;word-spacing:normal;text-transform:none;writing-mode:lr-tb;direction:ltr;text-orientation:mixed;dominant-baseline:auto;baseline-shift:baseline;text-anchor:start;white-space:normal;shape-padding:0;shape-margin:0;inline-size:0;clip-rule:nonzero;display:inline;overflow:visible;visibility:visible;isolation:auto;mix-blend-mode:normal;color-interpolation:sRGB;color-interpolation-filters:linearRGB;solid-color:#000000;solid-opacity:1;vector-effect:none;fill:#4cbf4b;fill-opacity:1;fill-rule:nonzero;stroke:#000000;stroke-width:106.506;stroke-linecap:round;stroke-linejoin:round;stroke-miterlimit:4;stroke-dasharray:none;stroke-dashoffset:0;stroke-opacity:1;paint-order:normal;color-rendering:auto;image-rendering:auto;shape-rendering:auto;text-rendering:auto;enable-background:accumulate;stop-color:#000000;stop-opacity:1"
             d="m -57125.385,14663.75 c -55.226,0 -99.994,44.774 -100,100 v 2169.582 0.01 c 0,67.838 57.137,124.973 124.975,124.988 h 0.02 2434.168 c 67.845,0 124.988,-57.143 124.994,-124.988 v -0.01 -2169.582 c 0,-55.226 -44.774,-99.994 -100,-100 h -50 c -55.226,0 -99.994,44.774 -100,100 0,47.14 90.135,585.785 90.135,880.977 0,705.005 -289.719,1163.605 -289.719,1163.605 -218.898,-412.044 -1367.516,250.47 -1793.378,-172.995 -444.682,-442.181 -191.204,-1871.587 -191.204,-1871.587 0,-55.226 -44.774,-99.994 -100,-100 z"
             id="path1351"
             sodipodi:nodetypes="sccsscssccsssscacss" />
        </g>
        <path
           style="fill:#338f33;fill-opacity:1;stroke:#000000;stroke-width:38.6873;stroke-linecap:butt;stroke-linejoin:miter;stroke-miterlimit:4;stroke-dasharray:none;stroke-opacity:1"
           d="m -61378.969,30501.299 c 0.25,-16.856 17.493,-31.724 31.031,-57.457 20.123,-38.251 39.128,-86.366 39.128,-86.366 0,0 25.856,45.319 32.948,89.605 4.079,25.469 -5.483,51.77 -10.731,65.912 -8.843,23.831 -61.973,44.432 -61.973,44.432 0,0 -30.718,-34.851 -30.403,-56.126 z"
           id="path1355"
           sodipodi:nodetypes="sscsscs" />
        <path
           style="fill:#338f33;fill-opacity:1;stroke:#000000;stroke-width:38.6873;stroke-linecap:butt;stroke-linejoin:miter;stroke-miterlimit:4;stroke-dasharray:none;stroke-opacity:1"
           d="m -60720.628,30514.162 c -0.25,16.856 -17.493,31.724 -31.031,57.457 -20.123,38.251 -39.128,86.366 -39.128,86.366 0,0 -25.856,-45.319 -32.948,-89.605 -4.079,-25.469 5.483,-51.77 10.731,-65.912 8.843,-23.831 61.973,-44.432 61.973,-44.432 0,0 30.718,34.851 30.403,56.126 z"
           id="path1357"
           sodipodi:nodetypes="sscsscs" />
        <path
           style="fill:#338f33;fill-opacity:1;stroke:#000000;stroke-width:38.6873;stroke-linecap:butt;stroke-linejoin:miter;stroke-miterlimit:4;stroke-dasharray:none;stroke-opacity:1"
           d="m -60659.767,30054.908 c -16.831,0.944 -32.883,-15.202 -59.511,-26.883 -39.58,-17.362 -88.921,-32.911 -88.921,-32.911 0,0 43.373,-29.002 87.046,-39.213 25.116,-5.873 52.028,1.801 66.506,6.034 24.398,7.133 48.711,58.67 48.711,58.67 0,0 -32.587,33.109 -53.831,34.303 z"
           id="path1359"
           sodipodi:nodetypes="sscsscs" />
        <path
           style="fill:#338f33;fill-opacity:1;stroke:#000000;stroke-width:38.6873;stroke-linecap:butt;stroke-linejoin:miter;stroke-miterlimit:4;stroke-dasharray:none;stroke-opacity:1"
           d="m -61488.692,30023.967 c 16.831,-0.944 32.883,15.202 59.511,26.883 39.58,17.362 88.921,32.911 88.921,32.911 0,0 -43.373,29.002 -87.046,39.213 -25.116,5.873 -52.028,-1.801 -66.506,-6.034 -24.398,-7.133 -48.711,-58.67 -48.711,-58.67 0,0 32.587,-33.109 53.831,-34.303 z"
           id="path1362"
           sodipodi:nodetypes="sscsscs" />
        <path
           style="fill:#338f33;fill-opacity:1;stroke:#000000;stroke-width:38.6873;stroke-linecap:butt;stroke-linejoin:miter;stroke-miterlimit:4;stroke-dasharray:none;stroke-opacity:1"
           d="m -61581.18,29862.603 c -16.831,-0.944 -32.883,15.202 -59.511,26.883 -39.58,17.362 -88.921,32.911 -88.921,32.911 0,0 43.373,29.002 87.046,39.213 25.116,5.873 52.028,-1.801 66.506,-6.034 24.398,-7.133 48.711,-58.67 48.711,-58.67 0,0 -32.587,-33.109 -53.831,-34.303 z"
           id="path1364"
           sodipodi:nodetypes="sscsscs" />
      </g>
      <path
         id="path1369"
         style="fill:#f9df2d;fill-opacity:1;fill-rule:evenodd;stroke:#000000;stroke-width:7;stroke-miterlimit:4;stroke-dasharray:none;stroke-opacity:1"
         d="m 178.54345,164.55451 c -3.90898,0 -9.28066,2.27837 -10.59897,4.03401 -5.37566,7.16205 -13.58101,15.85431 -19.03356,15.96431 -2.8163,0.0563 -16.69947,-11.42477 -26.50901,-11.15915 -2.13181,0.0575 -4.5922,0.15796 -6.17395,1.82512 -2.3958,2.5277 11.11391,28.42097 40.44989,24.71953 3.73871,-0.47279 20.96055,-5.45799 26.0145,-30.98993 0.64522,-3.25905 -1.38653,-4.3948 -4.1489,-4.39389 z" />
      <path
         id="path1371"
         style="fill:#f9df2d;fill-opacity:1;fill-rule:evenodd;stroke:#000000;stroke-width:7;stroke-miterlimit:4;stroke-dasharray:none;stroke-opacity:1"
         d="m 121.4851,151.26065 c -1.80848,0 -3.68697,0.11598 -5.63531,0.3617 -3.73835,0.47134 -20.958917,5.45798 -26.012867,30.98975 -1.5586,7.87151 12.496457,3.35639 14.746607,0.36024 5.37674,-7.16387 13.581,-15.85449 19.03483,-15.96431 2.81466,-0.0579 16.69964,11.42422 26.50773,11.1577 2.13163,-0.0564 4.59057,-0.15669 6.17251,-1.8253 2.23802,-2.35852 -9.38704,-25.08484 -34.8135,-25.07978 z" />
      <path
         style="fill:#f9df2d;fill-opacity:1;stroke:#000000;stroke-width:7;stroke-linecap:butt;stroke-linejoin:miter;stroke-miterlimit:4;stroke-dasharray:none;stroke-opacity:1"
         d="m 128.66072,22.11653 c -3.30808,6.170878 -5.32752,14.108256 -3.16025,20.766043 4.97416,15.279285 18.12598,31.287752 33.91858,34.253317 17.97978,3.376663 52.9811,-4.259632 50.13314,-22.330429 -1.72361,-10.936235 -12.52017,-2.416419 -25.41578,-0.581354 -5.76322,0.820012 -15.77234,-1.841219 -22.25932,-5.953574 -6.38131,-4.044861 -11.20927,-10.571826 -14.6393,-17.303619 -2.62595,-5.153102 -4.8779,-13.038372 -4.13027,-16.852356 0.88569,-4.5180154 0.60994,-9.1008087 0.60994,-9.1008087 -0.54607,-0.4136223 -2.15823,0.7018596 -4.20427,0.6359954 -1.4589,-0.046679 -2.54308,0.033125 -2.54308,0.033125 0,0 2.19677,5.0141463 1.51644,7.5038523 -1.1314,4.14112 -7.73491,5.029345 -9.82583,8.92982 z"
         id="path1373"
         sodipodi:nodetypes="aaassaascscsa" />
      <path
         style="fill:#2a2a2e;fill-opacity:1;stroke:#000000;stroke-width:7;stroke-linecap:butt;stroke-linejoin:miter;stroke-miterlimit:4;stroke-dasharray:none;stroke-opacity:1"
         d="m 146.71922,146.09271 c -6.39543,-0.48184 -15.54093,-16.87896 -19.11046,-25.49485 -3.77183,-9.22149 -7.2936,-28.985502 -7.2936,-28.985502 0,0 -13.61611,-0.405118 -14.45023,-1.916852 -0.20862,-1.727955 5.35901,-9.289525 8.87553,-13.291868 2.36052,-2.686565 6.76165,-7.056391 8.08141,-7.056391 3.44777,0 18.06265,19.168724 17.39915,20.495721 -1.84303,1.990679 -13.71291,0.884786 -13.71291,0.884786 0,0 5.61468,21.649386 9.54103,32.098176 7.17364,19.08983 16.84693,19.00009 10.67008,23.26678 z"
         id="path1375"
         sodipodi:nodetypes="ccccasccsc" />
    </g>
  </g>
</svg>
