<?xml version="1.0" encoding="UTF-8"?>
<svg width="356px" height="234px" viewBox="0 0 356 234" version="1.1" xmlns="http://www.w3.org/2000/svg" xmlns:xlink="http://www.w3.org/1999/xlink">
    <!-- Generator: Sketch 52.1 (67048) - http://www.bohemiancoding.com/sketch -->
    <title>banano-logo-vertical</title>
    <desc>Created with Sketch.</desc>
    <g id="Page-1" stroke="none" stroke-width="1" fill="none" fill-rule="evenodd">
        <g id="logo-vertical" transform="translate(-322.000000, -383.000000)" fill="#FBDD11" fill-rule="nonzero">
            <g id="banano-logo-vertical" transform="translate(150.000000, 150.000000)">
                <path d="M261.782026,456.365288 L234.152446,456.365288 L230.570077,466.281601 L220.062314,466.281601 L244.911228,403.795246 L251.021298,403.795246 L275.949993,466.281601 L265.362449,466.281601 L261.782026,456.365288 Z M258.726991,447.943214 L248.005181,418.446549 L237.265858,447.943214 L258.726991,447.943214 Z M381.921174,456.365288 L354.309107,456.365288 L350.63139,466.281601 L340.123627,466.281601 L365.050376,403.795246 L371.160446,403.795246 L396.106654,466.281601 L385.501597,466.281601 L381.921174,456.365288 Z M378.866139,447.943214 L368.144329,418.446549 L357.405006,447.943214 L378.866139,447.943214 Z M479.779583,462.691935 C474.938228,459.889751 470.91609,455.876653 468.104291,451.048514 C462.342534,441.120558 462.342534,428.879442 468.104291,418.951486 C470.912198,414.121407 474.936282,410.106367 479.779583,407.308065 C489.748337,401.563978 502.034636,401.563978 512.00339,407.308065 C516.84669,410.106367 520.870775,414.121407 523.678682,418.951486 C529.440439,428.879442 529.440439,441.120558 523.678682,451.048514 C520.868829,455.876653 516.844745,459.889751 512.00339,462.691935 C502.034636,468.436022 489.748337,468.436022 479.779583,462.691935 Z M507.372191,454.638569 C514.387096,450.594421 518.677765,443.099939 518.601876,435.019406 C518.5435,422.458096 508.288701,412.322498 495.691061,412.378775 C491.754541,412.39624 487.886128,413.430564 484.469159,415.380837 C477.440633,419.413341 473.140233,426.913645 473.22196,435 C473.274499,447.56131 483.52346,457.702729 496.119155,457.652274 C500.069295,457.63675 503.945492,456.598545 507.372191,454.638569 Z M213.233241,439.947095 C215.22777,442.739576 216.239629,446.110346 216.113146,449.535452 C216.173469,452.607374 215.365928,455.632723 213.778088,458.268017 C212.221382,460.750006 210.014752,462.762377 207.395595,464.089727 C204.626605,465.533511 201.548219,466.286452 198.425078,466.282571 L172,466.282586 L172,403.796216 L195.350585,403.796216 C198.491238,403.755464 201.596866,404.475415 204.398936,405.892032 C207.07647,407.269836 209.314235,409.367592 210.859265,411.94661 C212.462672,414.616834 213.277996,417.682935 213.213782,420.795609 C213.291617,423.687059 212.579425,426.543578 211.151147,429.062438 C209.754004,431.377538 207.730287,433.254069 205.313501,434.476628 C208.459992,435.43527 211.227037,437.348672 213.233241,439.947095 Z M201.927666,456.152796 C203.353998,455.413438 204.552661,454.299551 205.391336,452.931449 C206.241687,451.555585 206.67951,449.966258 206.65616,448.349763 C206.669781,446.729388 206.224174,445.134239 205.371877,443.750612 C204.527365,442.363105 203.334539,441.220109 201.908207,440.432238 C200.448796,439.615258 198.796742,439.192213 197.121337,439.211619 L181.340234,439.211619 L181.340234,457.334603 L197.062961,457.334603 C198.75977,457.367592 200.435175,456.960073 201.927666,456.152796 Z M202.53089,416.992092 C201.678593,415.670564 200.489659,414.599369 199.086678,413.88718 C197.621429,413.10513 195.981051,412.703432 194.319267,412.722838 L181.340234,412.722838 L181.340234,430.770139 L194.260891,430.770139 C195.922674,430.781783 197.559161,430.360679 199.008843,429.54758 C200.435175,428.753887 201.629946,427.603129 202.472513,426.2098 C203.326755,424.806768 203.772362,423.194154 203.756795,421.552432 C203.793767,419.94564 203.369565,418.362135 202.53089,416.992092 Z M333.118841,403.795246 L333.118841,466.281601 L329.227077,466.281601 L292.741788,423.899551 L292.741788,466.281601 L283.12913,466.281601 L283.12913,403.795246 L286.884683,403.795246 L323.506183,445.925021 L323.506183,403.795246 L333.118841,403.795246 Z M453.258183,403.795246 L453.258183,466.281601 L449.366419,466.281601 L412.900589,423.899551 L412.900589,466.281601 L403.285986,466.281601 L403.285986,403.795246 L407.062943,403.795246 L443.645526,445.925021 L443.645526,403.795246 L453.258183,403.795246 Z M406.134747,367.004683 C325.463057,377.197061 288.316054,305.911989 294.904666,298.956775 C299.255084,294.364927 306.019472,294.089299 311.88155,293.930959 C338.854141,293.197906 377.032355,324.804248 384.77522,324.648841 C399.771711,324.340958 422.332364,300.419951 437.114996,280.700807 C443.302257,272.452486 481.955062,260.022828 477.669095,281.694827 C463.771194,351.980014 416.414624,365.705711 406.134747,367.004683 Z M293.865253,233.995317 C374.536944,223.802939 411.683947,295.088011 405.092404,302.043225 C400.741987,306.635073 393.980529,306.910701 388.11845,307.069041 C361.145859,307.802094 322.967645,276.19282 315.22478,276.351159 C300.228289,276.659042 277.667637,300.580049 262.882075,320.299193 C256.697743,328.547514 218.044938,340.977172 222.330906,319.308105 C236.228807,249.019986 283.585377,235.294289 293.865253,233.995317 Z"></path>
            </g>
        </g>
    </g>
</svg>