<?xml version="1.0" encoding="UTF-8" standalone="no"?>
<svg
   xmlns:dc="http://purl.org/dc/elements/1.1/"
   xmlns:cc="http://creativecommons.org/ns#"
   xmlns:rdf="http://www.w3.org/1999/02/22-rdf-syntax-ns#"
   xmlns:svg="http://www.w3.org/2000/svg"
   xmlns="http://www.w3.org/2000/svg"
   xmlns:sodipodi="http://sodipodi.sourceforge.net/DTD/sodipodi-0.dtd"
   xmlns:inkscape="http://www.inkscape.org/namespaces/inkscape"
   width="3000"
   height="1100"
   version="1.1"
   id="svg69"
   sodipodi:docname="bg-hero.svg"
   inkscape:version="1.0.2 (e86c870879, 2021-01-15, custom)">
  <metadata
     id="metadata73">
    <rdf:RDF>
      <cc:Work
         rdf:about="">
        <dc:format>image/svg+xml</dc:format>
        <dc:type
           rdf:resource="http://purl.org/dc/dcmitype/StillImage" />
        <dc:title></dc:title>
      </cc:Work>
    </rdf:RDF>
  </metadata>
  <sodipodi:namedview
     pagecolor="#ffffff"
     bordercolor="#666666"
     borderopacity="1"
     objecttolerance="10"
     gridtolerance="10"
     guidetolerance="10"
     inkscape:pageopacity="0"
     inkscape:pageshadow="2"
     inkscape:window-width="661"
     inkscape:window-height="480"
     id="namedview71"
     showgrid="false"
     showborder="true"
     inkscape:zoom="0.12409724"
     inkscape:cx="196.54484"
     inkscape:cy="546.54676"
     inkscape:window-x="318"
     inkscape:window-y="160"
     inkscape:window-maximized="0"
     inkscape:current-layer="svg69"
     inkscape:snap-global="false" />
  <style
     id="style2"><![CDATA[.A{fill:#4cbe4b}.B{fill:#4cb949}.D{fill:#4cba49}.E{fill:#45af45}.F{fill:#48b646}.G{fill:#47b244}.H{fill:#46b641}]]></style>
  <defs
     id="defs9">
    <linearGradient
       id="A"
       x1="1500"
       y1="1100"
       x2="1500"
       gradientUnits="userSpaceOnUse">
      <stop
         offset=".62"
         stop-color="#4cbf4b"
         stop-opacity="0"
         id="stop4" />
      <stop
         offset="1"
         stop-color="#2b6625"
         stop-opacity=".6"
         id="stop6" />
    </linearGradient>
  </defs>
  <path
     class="A"
     d="M0 0h3000v1100H0z"
     id="path11" />
  <path
     class="B"
     d="M1512.86 5.86c-.95-1.25-1-3.33-.43-5.86h30.84c-10.8 7.2-27.1 10.33-30.4 5.86zM1560.63 0h30.8c.65 2.53.63 4.6-.23 5.86-3.14 4.48-19.62 1.33-30.56-5.86zM1627 299c-2.75 5.5-29-.73-40.1-11.84 2.37 13.52 3.55 20.9 2.6 20.84-.6.06-3.18-6.94-6.78-19.8-6.93 10.46-28.88 16.13-34.07 10.8-7.34-7.36 10.5-44.57 29.24-29.25q-1.86-7.56-3.88-16.47c-8.1 9.6-28.48 14.57-33.3 9.46-5.6-5.8 4.85-30.15 18.5-32.8a12.81 12.81 0 0 1 9.89 2.18l.46.32v-.23q-1.42-7-2.86-14.6c-4.5 4.7-11.9 8.22-18.63 9.82-6.3 1.5-12 1.34-14.23-1.07a5.19 5.19 0 0 1-1.2-2.49c-1.5-6.82 5-21.17 14.06-27.53a18.89 18.89 0 0 1 2.56-1.54 13.25 13.25 0 0 1 9-1.32 13.58 13.58 0 0 1 4.46 1.93l-.42-2.53q-.95-5.55-1.84-11.33c-9.22 8.83-28.26 13.18-32.6 8.27-1.7-1.9-1.63-5.73-.3-10.15 3.7-12.17 17.06-28.74 29.47-21.25q-.9-6.48-1.75-13.15c-9.6 8.6-28.25 12.75-32.4 7.9-6.17-7.07 13-41.1 29.58-31.75q-.68-6.23-1.3-12.6c-9.92 8.4-28.3 12.42-32.26 7.62-5.93-7 13.88-40.72 30.1-32l-.9-12.22c-10.2 8.26-28.38 12.17-32.18 7.4-5.73-7 14.78-40.47 30.74-32.15q-.28-6-.53-12c-10.44 8.18-28.55 12-32.2 7.27-5.52-7 15.8-40.38 31.52-32.22q-.1-5.23-.13-10.53h12.47l.1 11.1c15.3-10.07 39.03 24.52 34.3 31.68-3.33 4.9-23 .65-33.82-8.08q.2 6.75.5 13.4c15.1-10.38 39.88 24.37 35.33 31.55-3.2 4.92-23.12.6-34.17-8.2q.4 6.85.84 13.6c14.8-10.7 40.7 24.23 36.3 31.4-3.1 4.94-23.34.55-34.6-8.34q.57 7 1.2 13.9c14.45-11.17 41.57 24 37.37 31.2-3 5-23.73.46-35.15-8.58q.77 7.32 1.57 14.4c7.6-6.48 19.44 1 28.07 10.3 5.26 5.7 9.32 12.1 10.5 16.47a5.64 5.64 0 0 1 0 4.06c-1.8 3.13-10.8 2.5-20.12-.68a53.57 53.57 0 0 1-15.76-8.28l1.38 10.57.62 4.62c8.1-7.93 22.27 2 31.43 12.74 6.08 7.15 10 14.66 8.4 17.57-2.83 5.12-25.26.12-36.9-9.53q1.27 8.56 2.52 16.44c6.36-7.53 17.62-2 26.82 6.32 9.2 8.34 16.36 19.48 14.48 23.17-2.76 5.27-26.66-.2-38.2-10.4l3.16 18.47c11.5-18.02 46.58 20.66 43 28.16z"
     id="path13" />
  <path
     d="M2021.1 449.93c.6 10.72 1.13 31.9 1.6 60.52l1.9 223.46.2 54.25-.1 311.83h-18.3q-.06-7.56-.14-15.77l-.1-12.66q-.1-11.52-.18-24 0-6.33-.1-12.9-.08-11.6-.14-23.85l-.08-13.95-.1-22.73q0-8-.08-16.18 0-10-.08-20.32 0-10-.08-20.27 0-7.8 0-15.68l-.28-121.7v-46.43l.74-243.9.74-41.56q-3.63 1.08-7.3 2c-33 8.34-66.94 7.28-80.4 7.8 5.1-18.1 48-34.9 58.1-37.64-20.48-16.24-51.38-48.08-58.1-69.25 39-2.35 68.94 22.92 86.58 46.44-5.6-24.64-7.24-55.56 7.36-72.92 3 4.73 6.94 15.18 10.37 28a218 218 0 0 1 6.29 33.56c8.63-11.54 19.63-22.8 32.87-31.07s28.7-13.54 46.27-13.12c-1.56 7-4.88 14.8-9.5 22.9a173 173 0 0 1-17.79 25.26c17.07-4.1 33.84-4.8 45.94 1.56-7.2 7-35.52 22.23-63.5 31.12 25.7 2.1 53.2 9 65 25.2-8.84 2.9-37 4.18-64.2.93 19.8 9.55 38.9 23.68 44 41.78-14.74-.62-66.52-17.54-87.42-40.74zm-914.1-42.2c22.1.82 37.48 14 32.78 23.47-3.08 6.2-43.9.76-50-10.08l36.37 678.82h-7.07l-40.72-677.56c-1.74 16.66-51.55 16.18-55.87 12.47-17.85-15.35 29.3-26.42 40.63-27.84-4.18-.14-51.72 1.1-44.28-18.54s43.17.77 52.84 8.63c-9-8.62-30-46.05-12-52.37s23.1 28.73 24.48 41c-1.7-17.64 11.72-47.54 25.7-39.13s-10.8 42.58-16.3 50.77c15.34-10.7 50.5-22.22 53.82-5.1 2.75 14.4-22.95 15.57-40.38 15.45z"
     fill="#4dba4a"
     id="path15" />
  <path
     class="B"
     d="M3000 151.63v10.06q-96.6 10.86-193 13.2-26.8.66-53.53.66-16.2 0-32.42-.24-45.17-.67-90.16-3.22-51.1-2.88-102-8.2-52.05-5.42-103.8-13.38-23.36-3.6-46.63-7.7-54.27-9.56-108.1-21.92-24-5.5-47.88-11.57-9.47-2.4-18.9-4.9-15.37-4-30.68-8.33-9.12-2.55-18.2-5.17-51-14.73-101.24-32-13-4.47-26-9.1Q1963.34 27 1900.6 0h25.66q57.12 23.82 115.44 44.3 13 4.56 26 8.94 45.53 15.34 91.67 28.63 8.88 2.56 17.8 5 14.74 4.1 29.55 8 8.5 2.25 17 4.4 24.38 6.2 48.9 11.84 52.2 12 104.85 21.34 23.1 4.1 46.32 7.7 49.62 7.7 99.53 13 67.9 7.3 136.28 10.27 44.86 2 89.9 2 28.1.06 56.27-.62 96.98-2.22 194.25-13.18z"
     id="path17" />
  <path
     class="D"
     d="M3000 770v330h-133.2c-17.07-24.84-33.34-50.26-48.6-76.23q-11.23-19.1-21.7-38.62c-31.37-58.48-57.22-119.45-75.17-182.3l-1.26-4.46-1.4-5.08c-3.7.1-7.5.12-11.4 0-36-.94-80.4-10.9-121.92-26.84-40.65-15.6-78.55-37-103.08-61.14-29.4-29-66.34-242.15-91.17-448.13q-1.8-15-3.5-29.83l-9.1-84.55q-.52-5.18-1-10.32c-4.67-47.93-8.37-93-10.8-132.5h39.76l17.36 140.2q.66 5.13 1.33 10.3l9.2 68.6q2.05 14.82 4.2 29.74c23.26 160.5 54.7 324.17 97.8 381.87 11.2 15 35.38 27.92 62 37.18 29.6 10.3 62.2 16.05 83.12 15 6.18-.3 11.34-1.22 15.12-2.77-16.87-72.4-47-264-53.56-335.16-13.43-13.14-46-60.85-81.9-122.9q-7.6-13.16-15.35-27.1l-16.83-31q-2.8-5.28-5.6-10.64C2497.4 103.47 2472.6 49.9 2454.8 0h99c18.6 50.47 41.3 101.56 67.3 127.6A1215.25 1215.25 0 0 1 2614.2 0h174.28l11.57 115q1.7 15.27 3.5 30.8 1.1 9.54 2.27 19.16l1.2 10c24.8 203.66 63.72 425.22 114.2 495.78 18.63 26 45.94 60.44 78.8 99.27z"
     id="path19" />
  <path
     class="B"
     d="M518.87 512.4c41.46 6 50.57 33.76 44.94 41.5-6.25 8.6-17.34 10.78-26.86 5s-25.3-24.83-38.72-34.35c13.1 10.3 49.5 64 24.82 72-22 7.1-44.83-58.58-53.1-75.76V1100h-9.8V527.33c-4.26 25.34-17.4 82.24-46.56 66.36-33.82-18.4 11.43-52.55 19.6-61.75-23.18 9.58-37 37.28-57 13.24-23.1-27.77 47.4-37.65 64.88-38.74-6.4-.63-79.3-3.28-66-32.63s66 5.3 80.1 18.26c-13-14.05-41.54-73.38-13.43-81.34s32.63 46.2 33.57 65.1c-.94-27.16 22.48-71.66 43.1-57.45s-20.6 64.17-29.82 76.2c24.5-14.9 79.47-29.2 82.9-2.65 2.87 22.3-25.9 22.33-52.6 20.48z"
     id="path21" />
  <path
     class="E"
     d="M2012 1100h-71.24c-4-6.72-6-13.32-4.1-15.94 3.55-4.77 23 0 33.46 9q.08-6.7.1-13.3c-15.58 9.8-38.77-25.48-33.8-32.47 3.48-4.8 23.13.1 33.76 9.16q0-6.8-.13-13.5c-15.4 10.15-39.4-25.34-34.52-32.35 3.4-4.82 23.4.16 34.13 9.34q-.15-7-.33-13.85c-15.2 10.68-40.12-25.13-35.35-32.16 3.36-4.87 23.82.26 34.63 9.6q-.25-7.32-.55-14.4c-15 11.52-41-24.77-36.28-31.85 3.32-4.93 24.43.4 35.3 10q-.4-7.8-.8-15.2c-14.62 12.77-42-24.24-37.36-31.4 3.3-5 25.35.64 36.16 10.62q-.52-8.58-1.06-16.47c-14.16 14.64-43.17-23.42-38.62-30.67 3.3-5.17 26.7 1 37.3 11.5l-1.34-18.5c-13.43 17.6-44.68-22.06-40.15-29.47 3.37-5.4 29 1.6 39 13-.93-13.55-1.23-21-.34-20.9.67 0 2.4 7.08 4.64 20 8.06-10.24 30.77-15.26 35.4-9.78 6.5 7.6-15.25 44.22-32.48 28.32l2.25 16.58c9.08-9.33 30-13.68 34.37-8.44 6.2 7.44-15.07 42.7-31.86 29.37q.8 7.15 1.58 14.87c8.4-7.74 24.83-11.76 31.54-9.2a5.2 5.2 0 0 1 2.21 1.49c2.06 2.52.9 8.24-2.16 14.2-5.86 11.34-18.7 23.5-29.5 15.78q.6 6.75 1.15 13.84c7.65-6.54 20.9-10.26 28.42-9.35 2.25.27 4 1 4.9 2.12 2.47 3.1 0 11-4.82 18.2-6.55 9.75-17.52 18.3-26.82 12.18q.42 6.45.8 13.12c7.14-5.77 18.56-9.25 26.1-9.12 3.24 0 5.76.76 6.9 2.25 2.66 3.43-.76 12.7-6.8 20.48-6.7 8.6-16.6 15.36-25 10.2q.27 6.2.5 12.58c6.83-5.27 17.18-8.57 24.55-8.84 3.9-.15 7 .55 8.22 2.25 2.73 3.6-1.35 13.62-8.08 21.6s-16.07 13.88-23.94 9.3q.15 6 .25 12.2a48.33 48.33 0 0 1 23.78-8.6c4.2-.26 7.54.42 8.84 2.2 2.7 3.63-1.67 13.83-8.66 21.84-6.78 7.8-16 13.52-23.7 9.18q0 6 0 12a49.43 49.43 0 0 1 23.82-8.5c4.2-.24 7.47.44 8.74 2.22 1.74 2.54.27 7.94-3.02 13.65z"
     id="path23" />
  <path
     class="B"
     d="M1504.36 527.34c2.42 43.4 4 171.9 4.6 302.75l.4 153.76q0 9.33 0 18.4L1509 1100h-23.3l-1.3-162.75-.36-114.93 1.84-297.3c-27.2 28.5-90.53 49.13-108.74 49.85 6.42-22.8 30.46-40.6 55.4-52.62-33.17 7.7-66.85 10.25-77.68 6.7 11.32-34.7 44.5-48 76.84-51.5-25.8-20.47-47.85-48.1-56.33-74.78 49.2-3 86.9 28.88 109.12 58.53-7.07-31.06-9.12-70 9.28-91.9 6.7 10.74 17.66 44.84 21 77.57 21.75-29.08 55.43-56.75 99.74-55.7-4 17.8-17.1 40.12-34.38 60.7 21.5-5.15 42.65-6.06 57.9 2-9.08 8.83-44.76 28-80 39.2 32.4 2.67 67.07 11.37 82 31.76-11.14 3.65-46.66 5.26-80.9 1.17 25 12 49 29.83 55.46 52.65-18.58-.76-83.84-22.08-110.22-51.33z"
     id="path25" />
  <path
     class="D"
     d="M795.52 1100H720q-.54-13.32-1.2-28.28l-1.86-42.7-18.88-362.42-4.47-72.6-5.16-78.67-22-279.24q-1.43-15.13-2.87-29.87-.63-6.48-1.28-12.88-2.93-29.06-6-56.18-1.1-9.8-2.2-19.32C648.8 73 643.33 33.1 637.65 0h43.5l13.75 128.92L697 148q2.58 24.26 5.33 50.22l.5 4.67q1.56 14.67 3.17 29.82.54 5.12 1.1 10.3l47.72 454.56q1.2 12.44 2.5 24.63l19.54 190.06 10.63 105.35 4.37 44.32q.36 3.57.7 7 1.56 16.07 2.92 30.28l.07.8z"
     id="path27" />
  <path
     class="B"
     d="M1221.6 935.44L1208.7 933l11.7 4.48-12.9 22.08-47.2 6.76 34.16 15.6-20.07 34.4-36.8-7.1 30.53 17.83-20.16 34.55-21.26-4.34 5.86 2.7 12.87 6-19.9 34.1H1047l-.27-1.77a199.76 199.76 0 0 1-1.94-32.72q.06-3.37.25-6.87l.37-6a48.67 48.67 0 0 1 2.63-12.26c8.15-23.55 33.53-47.2 63.36-67.76l5.23-3.53q1.18-.8 2.4-1.6c45.7-30 99-52.4 116.77-56.5z"
     id="path29" />
  <path
     class="B"
     d="M1050.76 1097l.13 3h-73.5l-5.16-140.46q-.3-7.46-.58-15-1-25.57-2.1-51.94l-8.23-184.34q-1.23-25.32-2.52-50.54l-.16-3.1-8.55-152.08-6.36-95.24-4.4-57.33-.44-5.4c-7-5.75-13.42-13.45-18.86-21.3-8.7-12.56-14.73-25.44-15.84-31.08 1-3.2 4.25-6.86 7-9.2a17.12 17.12 0 0 1 2.91-2.08c4.83 4.06 16.55 9.4 21.3 10.48l-8.76-97q-.84-9.1-1.7-18.44l-.93-10L907.78.06h39.52l2 19.67L963 156q1.28 12.7 2.57 25.58l.46 4.66q.7 6.84 1.4 13.73l35 347.9q2.5 24.75 4.94 49l6.9 68.33q2 20.3 4 40l16.62 164.36c11.5-5.22 20.26-8.74 26.35-13.42 7.13 3.45 9.16 9.17 9.4 18-6.6 15.55-31.6 36.24-31.15 40.85v.2c2.5 24.76 4.78 57.45 6.85 93.48l.37 6.45q.7 12.4 1.35 25.23.45 8.67.87 17.47.16 3.27.32 6.55l1.54 32.63zM491.57 0a733.61 733.61 0 0 1-7.8 62.06q-1.53 9.1-3.27 18A731.76 731.76 0 0 1 444 206.41q-5.85 15-12.1 29.2c-57.9 131.27-138.23 209-160.7 219.9-.5 11.88-7.53 92.08-17.14 196.15l-4.74 51-14.57 153.3q-1 10.6-2 21.15-1.07 10.88-2.1 21.68l-17.8 176.5q-1.34 12.78-2.62 24.67H0V0h319.76q-.6 6.17-1.23 12.48l-17.88 177.75-3.1 29.87-7.47 67.27c26.38-11.6 48.42-32.56 66.84-59a293.32 293.32 0 0 0 17.25-28.2c22.94-42.4 39-93.4 50.1-141.86q2.07-9 3.9-17.83A1020.71 1020.71 0 0 0 435.77 0z"
     id="path31" />
  <path
     class="D"
     d="M1395.18 1100h-103.32c-14.06-124.82-60.92-405.37-111.6-674.68l-2.25-12q-1.8-9.54-3.6-19-1.3-6.8-2.6-13.6l-32.47-165.9q-1.84-9.15-3.68-18.2-6.3-31-12.47-60.62-3.12-15.07-6.22-29.72-1.48-7-3-13.9-3.84-18.1-7.62-35.44l-12.63-57h47.42c4.24 25.07 9.14 50.92 14.74 76.62q1.43 6.57 2.93 13.13 2.52 11.08 5.23 22 .93 3.74 1.87 7.45c7 27.65 14.9 54.5 23.7 79.3q3.28 9.27 6.76 18.15 3.6 9.2 7.4 17.93a366.15 366.15 0 0 0 18.19 36.5l1.82 3.1c11.74 19.74 24.6 35.6 38.67 46.08l25.1 160.73 83.88 502.84 23.72 116.2zM1877.82 0l-2.54 102.86q-.2 9.36-.36 18.93l-1.7 125.9q-.15 14.9-.28 30.08l1.18 822.23h-222.6c.6-48.6-1.3-100.82-4.52-152-9.58-152.33-31-295.66-33.7-307.56 5.1-6.37 23.7-24.7 32-31 5.74 13.38 24.28 53.83 44.37 71.56 1.8-10.22 9.3-219.63 16.25-423.08q.52-15.15 1-30.2l2.1-62.18q.33-9.36.63-18.6l4.9-146.88z"
     id="path33" />
  <path
     class="F"
     d="M2188.07 0q-59.34 28.35-120.4 53.24-7.08 2.9-14.2 5.74Q1988 85.14 1921 107.2q-23 7.55-46 14.58-82.37 25.14-165.83 43.68-51.3 11.4-102.93 20.3-10.08 1.74-20.16 3.38-7.18 1.17-14.38 2.3l-9.4 1.45-4 .6-9 1.32-5.66.82q-41.6 5.92-83.38 10.2-60.74 6.27-121.73 9.06-15.6.74-31.25 1.2-33.84 1.08-67.73 1.07h-8.43q-16.37-.06-32.72-.38h-1.8q-8.13-.17-16.26-.4-20.42-.56-40.82-1.5-86.2-4-171.94-14.9-18.15-2.3-36.25-4.92l-4.52-.66q-15.58-2.26-31.13-4.78-22.63-3.63-45.2-7.77-11.56-2.12-23.1-4.35Q761.73 164.77 697 148q-20.38-5.26-40.7-10.92-22.2-6.14-44.3-12.8-66.33-20-131.53-44.23-28.27-10.52-56.25-21.78-53.42-21.53-105.7-45.8Q305.27 6.33 292.12 0h42.33q46.37 21.3 93.72 40.45 27.66 11.2 55.6 21.6 66.06 24.66 133.45 45Q635.6 112.6 654 117.8q20.38 5.78 40.87 11.12Q779.2 151 864.8 166.14q6.45 1.16 12.92 2.26 10.37 1.77 20.72 3.44 13.2 2.13 26.45 4.1 20.3 3 40.64 5.63l12.1 1.53q78.77 9.7 158 13.56 22.48 1.1 45 1.7l9 .23 10.88.22q14.8.28 29.57.34 38.6.16 77.1-1.06 14.4-.45 28.8-1.1 37.37-1.68 74.64-4.7 42.18-3.37 84.2-8.45 16.3-2 32.58-4.17 34.14-4.63 68.16-10.38 57.24-9.64 114.07-22.4 83.3-18.7 165.56-44 20.06-6.18 40-12.75Q1972 71.5 2027.5 49.88q7.1-2.76 14.2-5.58Q2094.2 23.45 2145.53 0z"
     id="path35" />
  <path
     class="G"
     d="M1402.44 0a1671.72 1671.72 0 0 1-187.66 98.44q-10.9 4.88-21.87 9.57-9.14 3.92-18.32 7.72-4.3 1.78-8.62 3.54Q1144.7 128 1123.2 136q-71.76 27-145.54 47.06-5.82 1.6-11.64 3.13-17.38 4.6-34.86 8.8l-4.37 1.05q-14.52 3.46-29.08 6.64-34.4 7.54-69.1 13.56-22.22 3.85-44.5 7.1-36.83 5.32-73.8 9l-4.35.42q-19.77 1.9-39.6 3.3-15.12 1.08-30.25 1.86-41.94 2.18-84 2.18-60.12 0-120.3-4.47-37.47-2.76-74.92-7.28-29.7-3.57-59.37-8.24-54.24-8.5-108.3-20.66A1706.44 1706.44 0 0 1 0 145.24v-31.82a1677.48 1677.48 0 0 0 195.82 56.75q52.32 11.76 104.83 20.06 36.74 5.8 73.52 9.9Q409 204.06 444 206.4a1588.54 1588.54 0 0 0 193.55 1.38q13-.7 26-1.6 19.65-1.38 39.3-3.25l4.56-.44q36.27-3.57 72.44-8.8 20.72-3 41.34-6.55 14.64-2.52 29.2-5.3 18.28-3.5 36.48-7.43l11.67-2.55Q911.28 169 924 165.9q19.56-4.7 39-9.92a1602.9 1602.9 0 0 0 154-49.67q8.17-3.1 16.32-6.3 12.82-5 25.56-10.25 7.55-3.1 15.07-6.28l7.14-3A1638.21 1638.21 0 0 0 1343.2 0z"
     id="path37" />
  <path
     class="G"
     d="M3000 25.82v33.6q-96.4 48.2-196.46 86.35-26.88 10.28-54 19.78-14.2 5-28.46 9.77-79.1 26.52-160 46.73-60.85 15.22-122.56 26.8-7.36 1.4-14.73 2.72-16.33 3-32.7 5.63-45.73 7.52-91.83 13-32.5 3.87-65.15 6.7-75.87 6.63-152.43 7.8-16.3.26-32.6.25-16 0-32-.24-71.9-1.06-144.18-6.92-73.8-6-147.8-17-9.64-1.44-19.17-2.93c-35.2-5.54-69.06-11.7-101.42-18.27q-17.83-3.6-35.06-7.37l-.4-.1-9.9-2.18-11.14-2.52q-7.8-1.77-15.43-3.56l-72.43-18q-25.83-6.8-49.4-13.54c-54.66-15.52-99.87-30.12-133.67-41q-51.58-16.65-102.44-35.52-5.25-1.94-10.5-3.9-15.43-5.8-30.8-11.8-9.66-3.76-19.28-7.62-83.58-33.48-164.8-72.8Q929.32 10 909.52 0h68.1q63.64 30.3 128.8 57 24.67 10.1 49.53 19.66 9 3.45 18 6.85 20.35 7.67 40.83 15 35.55 12.68 71.47 24.27c48.13 15.54 119.66 38.64 208.65 61.13q23.5 5.94 48.58 11.78l3.1.72q27.64 6.38 57.06 12.45c32.9 6.77 67.42 13.15 103.32 18.86q11.2 1.78 22.55 3.47 71.9 10.68 143.68 16.57 73.23 6 146.12 7 31.1.43 62.12 0 74.46-1.14 148.3-7.52 33.14-2.85 66.1-6.78 46-5.46 91.7-13 15.47-2.55 30.9-5.33 7.93-1.43 15.85-2.93 56-10.56 111.42-24.18 42.8-10.5 85.14-22.84 14.38-4.17 28.7-8.57 71-21.75 140.42-48.55A2128.81 2128.81 0 0 0 3000 25.82z"
     id="path39" />
  <path
     class="H"
     d="M570.05 879.64l-52.5 16.55 45.68 4.47c-12.62 35.18-32.5 74.3-58.7 112.4L418 996.93l76.08 30.94a531.25 531.25 0 0 1-24.1 30.4q-4.8 5.64-9.8 11.2c-9.5 10.53-19.5 20.76-30 30.54H114.53C134.6 1020.88 178 952.78 230.6 898.83A523.29 523.29 0 0 1 348 808.5l-11.2 42.23 12-19.48.2-.25 21-34.1a408.09 408.09 0 0 1 50.91-21.11 305.44 305.44 0 0 1 39.22-10.42q5-1 9.8-1.7l5.93-.82-19.03 43.85 40.96-45.36c30.9-.33 55.94 7.9 70.92 25.62a35.34 35.34 0 0 1 3.55 5.11l-47.08 36.33 52.1-22.5c3.97 18.3 1.32 44.1-7.24 73.73z"
     id="path41" />
  <path
     class="A"
     d="M448.8 885.8L229.66 1100H182.1l266.7-214.2z"
     id="path43" />
  <path
     class="E"
     d="M420.9 775.8q-.57 9.13-1.6 18.72l-70.87 36.78h.4l66-5c-5.95 34.4-15.8 71.93-29.53 110.57q-3.06 8.63-6.4 17.32c-6 15.7-12.6 31.52-19.86 47.36l-127.77-1.4 116.43 25.2a781.58 781.58 0 0 1-42.4 74.68H0V829a747 747 0 0 1 84.28-80.69l-5.48 63.15 34-85.22c48.27-35.27 97-60.82 141.28-74.6l1.5-.47-16.26 67.44 47.2-75.03c44.1-8.2 81.9-2.68 107.74 18.9a49.94 49.94 0 0 1 6.34 6.41l-58.2 63.68 68.84-45.18c8.77 21.52 11.98 52.1 9.68 88.42z"
     id="path45" />
  <path
     class="A"
     d="M311.03 772.2L66.38 1100H12.63l298.4-327.8z"
     id="path47" />
  <path
     class="E"
     d="M1742.4 1100h-362.94a638.66 638.66 0 0 1-7.94-116.06q.35-12.48 1.24-24.3l54.36 18.15-51.43-45.6c5.34-38.2 15.42-68.92 29.26-87.78l48 52.2-35.2-65.4a43.27 43.27 0 0 1 6.64-4c17.37-8.38 37.7-9.7 59.68-4.88a159.38 159.38 0 0 1 24.93 7.77c3.08 1.22 6.18 2.56 9.3 4l23.62 72.57.6-59.7c34.42 20.8 70.15 52.65 103.4 92.7L1647 948l9.34 69.95 8.7-53.87a651.52 651.52 0 0 1 77.34 135.92z"
     id="path49" />
  <path
     class="A"
     d="M1571.56 1100h-21.54l-75.07-180.37 96.6 180.37z"
     id="path51" />
  <path
     class="H"
     d="M3000 1021.47V1100h-202.47l18.54-30.44 13-21.3L2780 1098l-115.9-56.2 49.6-102.4-85.55 85-115.33-55.93 63.32-102.93-138.26 66.58-74-35.87 23.23-33-30 29.65-81.85-39.7c54.25-20.7 193.06-56.9 330-60.67a736.75 736.75 0 0 1 80 1.91c11.8 1 23.44 2.25 34.88 3.92q6.06.87 12 1.9c69.38 11.8 130 37.8 167.8 85.8A2815.96 2815.96 0 0 1 3000 1021.47z"
     id="path53" />
  <path
     class="E"
     d="M3000 827.47V1100h-85.2l61.5-48-104.37 48h-32.7l-23.17-30.44-21.43-28.14L2923 945.3l-126.5 39.84-36.05 11.35-130.76-171.77 146.66-35.02-166.7 8.7-48.86-64.2 59.13-8.9-67.33-1.84-52.38-68.84 98.1 13.27c25.52 3.86 53.6 8.68 83.12 15 104.17 22.2 226.43 62.78 318.57 144.56zm-671.13 188.93l-73.25 83.6h-102.87l-93.53-87.94a3.48 3.48 0 0 1 3.65-5.77l69.94 27.4a3.47 3.47 0 0 0 4.42-4.69l-32.94-71.26a3.48 3.48 0 0 1 5.63-3.9l45.53 46.2a3.48 3.48 0 0 0 5.9-3l-12.76-71.07a3.47 3.47 0 0 1 6.39-2.41l31.8 52.64a3.47 3.47 0 0 0 6.43-1.44l7-69.64a3.48 3.48 0 0 1 6.91-.06l8.53 71.3a3.47 3.47 0 0 0 6.57 1.11L2248.3 924a3.48 3.48 0 0 1 6.58 1.91l-7.33 64.92a3.48 3.48 0 0 0 6 2.78l41.36-43.6a3.48 3.48 0 0 1 5.73 3.73l-31.36 75.13a3.47 3.47 0 0 0 4.6 4.52l51-22.43a3.48 3.48 0 0 1 4 5.44zM1101.75 523.74c-24.23-2.1-31.6 12.68-32.8 16.53-12.24-.08-71.54-5.13-95.76 28.92-4.38-34.35-17.54-74.47-51.25-91.63A409.29 409.29 0 0 0 927 430.4a69.77 69.77 0 0 0 17.31-24.54c7.43-18.45 8.24-48.6-10-59.9A27.81 27.81 0 0 0 923 342c-8.92-64.52-28.56-113.9-38.54-128.4 11.45-4.26 17.83-7.17 9.84-27.22-7.07-17.72-21.2-24.13-46.37-18-26.83 6.63-29.93 18.1-25.66 32.24 4.74 15.6 11 29 25.32 22.48 11.82 19.8 15.6 29.6 28.3 93.92-19.46-15.07-52-18.8-81-16.35-2.26.12-5.36.44-9.43 1 59.47-8.1 60.9-23.4 60.9-25.24-.1-23.4-74-23.35-64.94-14.33 7.5 7.5 33.9 1.77 30.35 9.75-2.95 6.6-87.75 8.85-121.42 77.82-5.42-41.93-2.1-76.25 3.16-99.86 12.12 1.3 18.38-8 17.62-35.58-.5-17.7-16-20.77-38.77-21.1-23.8-.34-36.55 3.16-37 28.67-.36 22.56 1.92 29.1 18.2 28.1-2.4 7.57-12.58 72.53-6 141.27-9.05 1.38-17.08 5.26-22.14 12.28-12.53 17.4-.34 45 13.55 59.2 7.85 8.06 18.46 14.1 29.34 17.5C680 507.53 697.18 531 722 545.7c2.8 71.64 55.85 121.18 100 133.18-4.55 9.46-31.58 24.8-46.3 24.23-25.17-1-43.53-22.1-47-26.34-10.85-13.42-12.7-25.64-14.63-38.58-2.08-13.78-4.42-29.4-19.1-42.93-10.15-9.36-24.25-16.07-38.67-18.4-16.72-2.7-32.16.76-43.46 9.77-19.14 15.26-25.58 44.38-14.67 66.3 10.56 21.2 39.06 37.83 60 27.5 11.1-5.42 20.84-18.78 17.94-33.65-2.1-10.9-10.72-20-22.5-23.74A11 11 0 0 0 647 644c4 1.27 7 4 7.54 6.93.74 3.83-3 8.27-6 9.77-3.36 1.65-9 .87-14.74-2a36.55 36.55 0 0 1-15.81-15.55c-6.9-13.86-1.08-31.5 8.7-39.3 13.9-11.07 39.7-5.1 53.5 7.62 9 8.28 10.35 17.4 12.25 30 2.08 13.85 4.67 31.08 19.3 49.14 6.3 7.77 29.42 33.22 63.22 34.5h2.58c24.56 0 48.7-13.24 67.16-35.7 4.5.08 47.9-2.82 79.63 3.65 34.92 7.13 54.46 31.57 69.4 29.76 17.9-2.16 46.74-41.15 33.9-51.7-9.06-7.46-20.8-9-30.08 1-12.23 1.05-30.25-7.4-40.85-16.2 23.3-14.28 41.5-63 67.3-68.7 21.62-4.75 64.57-1.93 75-11.26s27.02-50.12 2.77-52.22z"
     id="path55" />
  <path
     class="F"
     d="M1374 437.06c-5.2-5.63-15.18-4.18-19.18-1.22-7.65-2.22-15.56-12.3-21.65-20.24 11.2-21.34 2-53.86-3.52-60.13 5.47-6.82 8.48-16.33 10-26a35 35 0 0 0 10.84-11c5.12-8.5 7.9-23.26-.16-30.28a15.4 15.4 0 0 0-10.09-3.51c3.07-24.3-6-62.06-7.1-66.83 7.37-.4 6.2-7.55 5.45-13.5-1.64-12.67-10.45-12.82-18.78-11.84-12.8 1.5-16 8.08-14.44 15.48 1.6 8 1.87 14.2 9.6 12.53 1.3 3.9 6.57 37.6 5 51.92-6.1-10.95-20.64-16.17-36.8-17 21.88-2.13 23-8.23 23.07-9 1-11.32-34.75-14.5-30.77-9.76 3.3 3.95 16.3 2.33 14.25 6-1.7 3.06-54.3 7.6-66.83 33.26-4.2-18.1-1.15-49.15-.6-53 7 1 10.7-7.65 10.34-15.76-.32-7.36-4.3-13.53-16.2-13.52-6.77 0-18.56.72-19.06 14.1-.18 5 .13 14.78 7.65 15.06-.3 5.4-5.72 39.46-.34 66.84a14.88 14.88 0 0 0-8.61 4.07c-7.54 7.57-3.72 22.1 2 30.2a35 35 0 0 0 11.56 10.14c2.37 10.4 8.1 20.36 20.58 31.1-3 26.23 3.42 54.53 20.8 67.28-2.7 3.47-21.67 7-28.5 1-6.1-5.37-5.85-14.7-5.58-24.55.3-10.93.64-23.32-9.2-30.5-10.43-7.6-28.24-5.67-38.13 4.14-7.36 7.3-12 20.72-6 31.2 4.34 7.66 14.15 13.8 22.66 10.65l.48-.2c6.52-2.7 8.9-9.38 9.62-12.14a5.48 5.48 0 1 0-10.61-2.77c-.47 1.8-1.6 4.1-3.2 4.78h-.1c-2.7 1-7.35-2.3-9.32-5.76-3.1-5.47-.22-13.62 4.22-18 6-6 17.88-7.5 23.94-3.07 4.84 3.54 5 10.42 4.7 21.34-.3 11.4-.67 24.33 9.3 33.1 8.84 7.76 23.13 9.46 35.4 4.94 2.75-1 7.83-3.3 10.48-3.24 4.16 20.6 22.9 38.12 31.78 39.74 14 2.54 27.44-5.56 27.18-11.8-.4-9.3-13.63-10.08-18.5-9-5-4.28-13.9-12.05-17-23.43 6-.46 25.1-6 29.56-9.24 12 18.9 30.22 31.17 41.56 29.07 15.06-2.73 22.5-17.07 18.24-21.67z"
     id="path57" />
  <path
     class="B"
     d="M2215.15 93.68c-7.45-1.57-9.7 1.44-10.87 5.92-1.7 6.63 0 8.77 3.15 8.9a81.93 81.93 0 0 1-3.13 27c-1.3-6.73-6.9-11.67-14-14.77 11.93 2.65 13.56-.37 13.73-.78 2.42-5.75-15.7-13.45-14.42-10.3 1.06 2.62 8.12 4 6.42 5.55-1.4 1.32-26.86-5.3-39.47 5.5 3.9-14.56 6.43-18.55 10.28-23.2 3.44 2.24 7.35-1.94 9.2-5.8 1.67-3.48 2.63-7.34-5.36-10.34-7.52-2.83-11.26-.78-13.8 3.53-2.86 4.87-2.93 8-.13 9.55-5.2 7.47-8.77 12.64-12.38 29.87a7.2 7.2 0 0 0-3.1.56c-5.15 2.2-6.14 10-5 15.1a18.33 18.33 0 0 0 3.51 7 107.8 107.8 0 0 0-.55 12.41c-9.4 3.1-14.4 13-16.88 21.68-4.92-9.77-19-9.38-22.14-9.84-.16-1.05-1.48-6.23-7.83-5.58s-3.66 10.8-1.33 13.64 13.56 3.8 19 5.88c6.45 2.5 7.73 14.4 13.2 19-3.1 1.86-9.56 2-12.68 1.28-2-3-4.24-4.47-7.64-2.7-3.86 2 .55 12 5.1 13.26 3.8 1.06 12.8-.5 22.13-1 8.46-.42 19.58 2.05 20.75 2.2 3.9 6.54 9.6 10.92 16 11.9.22 0 .44.07.67.1 8.8 1 15.8-4.66 17.72-6.42 4.5-4.1 5.85-8.45 6.94-12 1-3.2 1.7-5.5 4.36-7.28 4.07-2.75 11-3.27 14.14.15a8.86 8.86 0 0 1 .69 10.5 9.56 9.56 0 0 1-4.7 3.4 4.7 4.7 0 0 1-3.89 0 2.82 2.82 0 0 1-1.18-2.77 2.71 2.71 0 0 1 2.22-1.5 2.88 2.88 0 0 0-.89-5.69 8.42 8.42 0 0 0-6.76 5.26c-1.33 3.73.66 7.56 3.3 9.4 5 3.5 13 .33 16.6-4.74a14.57 14.57 0 0 0-1.17-17.73 14.3 14.3 0 0 0-10.86-4.25 19.94 19.94 0 0 0-10.73 3.23c-4.33 2.92-5.56 6.87-6.64 10.35-1 3.27-2 6.36-5.32 9.4-1 1-6.64 5.7-13.2 5-3.83-.43-10.22-5.47-11-8.1 11.9-1.36 27.6-12.07 31.15-30.5 7-2.83 12.37-8.2 16.48-14.84a18.53 18.53 0 0 0 8.28-3.36c4.16-3.14 8.4-9.8 5.85-14.8a8.52 8.52 0 0 0-5.24-4c4.4-17.52 4.35-34.74 4-36.8 4.17.9 4.74-.1 5.82-6.55 1.32-7.84-1.32-9.44-8.4-10.93z"
     id="path59" />
  <path
     class="E"
     d="M1134.13 1058.76l-1.54 1.2q-3.66 2.77-8.26 5.62-3.3 2.06-7 4.13c-17 9.45-40.53 19.1-66.52 27.27l-4 1.25q-2.94.9-5.9 1.77H798.27l-2.82-.74c-28.87-7.75-56.83-17.33-76.68-27.54-18.9-9.7-30.42-20-28.36-29.8 1.38-6.5 11.3-10.72 26.5-12.92a227.41 227.41 0 0 1 34.09-1.81c-24.26-22.42-38.43-43.58-31.16-55.72 5.5-9.17 30-5.54 60.88 5.4-15.58-29-22-53.55-11.24-62.64 1.8-1.52 4.27-2.15 7.3-2 10.92.56 29.1 11.34 49.54 27.7-5.3-32.6-3.44-58 9.76-63.1 11.06-4.25 30.8 18.25 50.4 51.1 8-40.2 21.3-70.6 37.67-69.93 11.47.5 20.42 27.27 25.4 63.44a222.8 222.8 0 0 1 20-28.89c12.45-14.88 24.37-22.8 33.78-19.3 10.14 3.8 10.9 29.13 5.5 62.15 11-8.76 21.42-15.76 30.67-20.22 12.52-6 22.8-7.42 29.08-2.24 8.25 6.8 1 30.45-14.44 59.38 24.6-8.77 45.53-12.3 56.83-7.37a15 15 0 0 1 5.69 4.11 12.9 12.9 0 0 1 1.1 1.53c2.76 4.5.6 11.7-5.2 20.5-6.08 9.23-16.16 20.25-28.74 31.86a188.08 188.08 0 0 1 30.76 1.87q4.05.63 7.65 1.5c12.57 3 20.82 8.15 22.5 15.74 1.05 4.8-2.9 10.55-10.6 16.68z"
     id="path61" />
  <path
     d="M914.7 1100h-4.94c-.87-51.34 6.8-199.17 10.9-199 3.1.13-1.02 147.72-5.95 199zm187.6-50.34c.34 1.54-37 11.14-80.4 21.28 5.32-3.5 10.58-7.13 15.75-10.8 35.86-7.28 64.25-12.23 64.64-10.47zm-22.17-58.03c.82 1.34-31 22.36-68.44 45.93 3.84-5 7.6-10.12 11.24-15.25 31.3-18.43 56.26-32.2 57.2-30.68zm-266.86 82.02c-43.76-9.7-81.52-19.08-81.1-21.13.28-1.33 28.6 3.43 64.43 10.32 5.45 3.7 11.02 7.32 16.66 10.8zm-1.4-48.65q5.86 7.85 12.1 15.5c-37.46-23-69.1-43.58-68.05-45.35.7-1.16 25.08 12.05 55.94 29.84zm34.92-10.1c-28.5-34.58-52.47-65.24-50.87-66.6 1-.88 20.4 20.3 44.38 47.8a469.49 469.49 0 0 0 6.5 18.8zm142.82-3.52c2-6 3.94-12.13 5.75-18.22 23.77-27.83 43.1-49.23 44.5-48.08 1.22 1-22.3 31.58-50.24 66.3zM879.27 984.6a484.56 484.56 0 0 0-.85 18.18c-16.6-44.24-30.5-84.3-28.46-85.1 1.36-.52 14.33 29.7 29.3 66.9zm74.28 27.23c.33-7.57.48-15.25.48-22.94 16-41.33 30.65-76.6 32.6-75.87 1.7.64-14.92 49.3-33.07 98.8z"
     fill="#4cbf4b"
     id="path63" />
  <path
     class="E"
     d="M2382.44 597.76c-21.3-18.07-57.25-19.15-76.9-2.3-18.57 15.92-15.95 40.64-13.63 62.45 2.1 19.7 4.06 38.28-7.32 50-12.72 13.07-51.2 8.9-57.16 2.38 32.78-28.22 41.1-85.8 31.06-137.8 13.42-13.6 23-33 29.48-52.93a67.91 67.91 0 0 0 16.54-17.48c10.72-16.75 17.1-46.22 1.3-60.72a27.42 27.42 0 0 0-8.75-5.37c10.5-80.2-9.1-141.47-10.52-152.17 15-1.74 14.1-21.4 12.94-31.32-3.1-26.67-26.8-26.25-40.33-25.2-23.82 1.85-30.8 14.8-30.3 29.57.56 16.28 9.4 33 23.15 29.9 1.73 7.53 12.68 69.12 7.13 106-16.54-14.46-31.33-25.16-48.64-32.06 34.9-.43 38.27-10.66 38.6-12.14 5.15-22.82-66.87-39.34-60.08-28.53 5.64 9 32.64 9.33 27.4 16.3-4.35 5.78-131.2 4.35-152 64.66-5.34-28.4-.06-96.65 1.9-104.63 15.74 2.13 15.27-10.4 17.26-26.56 1.84-15.05-5.5-27.7-31.3-28.7-16.8-.65-34.42 1-35.7 26.63-.6 12-1.8 26.48 13 26.1-1.45 9.72-13.68 86.7-3.75 134.8-7.56.7-14.47 3.36-19.62 8.6-15 15.3-7.15 44.4 4.4 60.57A70.07 70.07 0 0 0 2034 518c4.54 19.1 12.06 37.64 24 50.42-10.08 13.4-23.34 79.9 2.4 120.8-10.93 16.84-25.7 41.44-40.64 47.08-8.46-5.3-30.64-3.6-35.2 8.08s13.7 41.14 44.24 44.35c23 2.43 50.83-34.5 71.78-74.18 9.42 5.85 46.58 13.87 58.57 13.85-4.34 23.24-16.85 45-26.15 54.32-9.9-1.33-35.08 2-34.94 22.7.1 12.55 28.66 26.63 56.2 19.35 17.52-4.63 47.6-46.17 57.55-91 5.3-.54 12.82 3.24 18.48 4.84 25.22 7.12 53.53 1.47 70-15.44 18.57-19.1 15.84-44.9 13.42-67.64-2.3-21.8-3.05-35.6 6.07-43.42 11.44-9.8 35.4-8.62 48.37 2.38 9.57 8.1 16.6 24 11.26 35.38-3.4 7.24-12.17 14.56-17.74 13l-.2-.06c-3.32-1.08-5.92-5.56-7.14-9.06a11 11 0 1 0-20.78 7.21c1.87 5.4 7.68 18.42 21.14 22.78l1 .3c17.5 4.94 36.17-8.86 43.64-24.85 10.3-21.88-1.03-48-16.9-61.44z"
     id="path65" />
  <path
     d="M0 0h3000v1100H0z"
     fill="url(#A)"
     id="path67" />
</svg>
