<?xml version="1.0" encoding="UTF-8" standalone="no"?>
<!DOCTYPE svg PUBLIC "-//W3C//DTD SVG 1.1//EN" "http://www.w3.org/Graphics/SVG/1.1/DTD/svg11.dtd">
<svg width="100%" height="100%" viewBox="0 0 450 452" version="1.1" xmlns="http://www.w3.org/2000/svg" xmlns:xlink="http://www.w3.org/1999/xlink" xml:space="preserve" xmlns:serif="http://www.serif.com/" style="fill-rule:evenodd;clip-rule:evenodd;stroke-linejoin:round;stroke-miterlimit:2;">
    <g id="Layer_x0020_1" transform="matrix(1,0,0,1,-45,-44)">
        <rect x="0" y="0" width="540" height="540" style="fill:none;"/>
        <g id="_2419820813232">
            <circle cx="270" cy="270" r="223.2" style="fill:rgb(77,77,77);"/>
            <g>
                <path d="M200.088,241.272L270,171.36L339.912,241.344L380.592,200.664L270,90L159.408,200.592L200.088,241.272ZM90,270L130.68,229.32L171.36,270L130.68,310.68L90,270ZM200.088,298.728L270,368.64L339.912,298.656L380.664,339.336L270,450L159.336,339.336L200.088,298.728ZM368.64,270L409.32,229.32L450,270L409.32,310.68L368.64,270Z" style="fill:rgb(243,186,47);"/>
            </g>
            <g>
                <path d="M315.36,270L270,224.496L236.448,258.12L224.496,270.072L269.928,315.504L315.36,270.072L315.36,270Z" style="fill:rgb(243,186,47);"/>
            </g>
        </g>
    </g>
</svg>
