<svg width="387" height="269" viewBox="0 0 387 269" fill="none" xmlns="http://www.w3.org/2000/svg">
<path d="M159.389 64L144.937 78.4517L130.485 64L144.937 49.5484L159.389 64ZM194.485 28.9032L219.26 53.6774L233.711 39.2258L194.485 0L155.26 39.2258L169.711 53.6774L194.485 28.9032ZM244.034 49.5484L229.582 64L244.034 78.4516L258.485 64L244.034 49.5484ZM194.485 99.0968L169.711 74.3226L155.26 88.7742L194.485 128L233.711 88.7742L219.26 74.3226L194.485 99.0968ZM194.485 78.4517L208.937 64L194.485 49.5484L180.034 64L194.485 78.4517ZM50.2346 197.701V197.54C50.2346 189.996 46.2226 186.225 39.7219 183.737C43.7339 181.49 47.1054 177.959 47.1054 171.619V171.459C47.1054 162.631 40.0431 156.933 28.5669 156.933H2.48535V213.109H29.2093C41.8885 213.109 50.2346 207.973 50.2346 197.701ZM34.8263 173.706C34.8263 177.879 31.375 179.644 25.9186 179.644H14.5231V167.767H26.7207C31.9375 167.767 34.8263 169.854 34.8263 173.546V173.706ZM37.9564 196.176C37.9564 200.349 34.6657 202.275 29.2092 202.275H14.5231V189.917H28.8074C35.1474 189.917 37.9564 192.244 37.9564 196.015V196.176ZM76.1514 213.109V156.933H63.7924V213.109H76.1514ZM142.585 213.109V156.933H130.387V191.522L104.064 156.933H92.6687V213.109H104.867V177.397L132.073 213.109L142.585 213.109ZM211.044 213.109L186.968 156.532H175.573L151.497 213.109H164.097L169.233 200.51H192.987L198.123 213.109H211.044ZM188.573 189.595H173.647L181.11 171.378L188.573 189.595ZM269.953 213.109V156.933H257.754V191.522L231.432 156.933H220.036V213.109H232.234V177.397L259.44 213.109L269.953 213.109ZM333.756 204.041L325.892 196.096C321.478 200.109 317.546 202.677 311.126 202.677C301.495 202.677 294.834 194.652 294.834 185.021V184.861C294.834 175.23 301.656 167.366 311.126 167.366C316.743 167.366 321.157 169.773 325.491 173.706L333.355 164.637C328.139 159.501 321.798 155.97 311.206 155.97C293.951 155.97 281.914 169.051 281.914 185.021V185.181C281.914 201.312 294.193 214.072 310.724 214.072C321.558 214.072 327.978 210.221 333.756 204.041ZM386.485 213.109V202.115H355.99V190.318H382.473V179.323H355.99V167.928H386.084V156.933H343.712V213.109L386.485 213.109Z" fill="#F0B90B"/>
<path d="M8.06928 240.239C8.06928 237.727 10.3137 235.75 14.1613 235.75C17.5814 235.75 20.9481 237.086 24.3147 239.598L27.8417 234.628C24.0475 231.582 19.719 229.925 14.2682 229.925C6.84018 229.925 1.49629 234.307 1.49629 240.827C1.49629 247.774 5.98516 250.125 13.9476 252.049C20.8946 253.652 22.3909 255.095 22.3909 257.82C22.3909 260.706 19.8258 262.576 15.7645 262.576C11.1153 262.576 7.53489 260.813 3.95448 257.713L0 262.416C4.48887 266.424 9.8862 268.401 15.6042 268.401C23.4597 268.401 28.9639 264.233 28.9639 257.179C28.9639 250.927 24.8491 248.094 16.9401 246.171C9.77932 244.461 8.06928 243.178 8.06928 240.239Z" fill="#F0B90B"/>
<path d="M66.8867 241.041V267.867H73.4597V230.46H66.4592L55.0767 248.148L43.6943 230.46H36.6938V267.867H43.1599V241.147L54.863 258.675H55.0767L66.8867 241.041Z" fill="#F0B90B"/>
<path d="M102.432 230.192H96.3404L79.8812 267.867H86.6145L90.4621 258.836H108.15L111.945 267.867H118.892L102.432 230.192ZM105.746 253.011H92.8668L99.2795 238.048L105.746 253.011Z" fill="#F0B90B"/>
<path d="M157.049 267.867L146.949 253.706C152.186 252.263 155.873 248.522 155.873 242.323C155.873 235.002 150.583 230.46 141.979 230.46H125.306V267.867H131.879V254.828H140.109L149.3 267.867H157.049ZM149.194 242.697C149.194 246.545 146.201 249.003 141.498 249.003H131.879V236.445H141.445C146.308 236.445 149.194 238.582 149.194 242.697Z" fill="#F0B90B"/>
<path d="M179.586 236.552H191.449V230.46H161.096V236.552H172.959V267.867H179.586V236.552Z" fill="#F0B90B"/>
<path d="M246.985 261.882L242.763 257.607C239.557 260.599 236.618 262.47 232.022 262.47C224.861 262.47 219.678 256.484 219.678 249.11C219.678 241.735 224.861 235.857 232.022 235.857C236.297 235.857 239.504 237.727 242.496 240.506L246.718 235.643C243.138 232.223 238.969 229.818 232.076 229.818C220.747 229.818 212.784 238.529 212.784 249.217C212.784 260.011 220.907 268.508 231.808 268.508C238.809 268.508 243.084 265.943 246.985 261.882Z" fill="#F0B90B"/>
<path d="M278.315 252.102V267.867H284.888V230.46H278.315V246.01H260.467V230.46H253.894V267.867H260.467V252.102H278.315Z" fill="#F0B90B"/>
<path d="M313.84 230.192H307.748L291.288 267.867H298.022L301.869 258.836H319.558L323.352 267.867H330.299L313.84 230.192ZM317.153 253.011H304.274L310.687 238.048L317.153 253.011Z" fill="#F0B90B"/>
<path d="M337.088 230.46V267.867H343.661V230.46H337.088Z" fill="#F0B90B"/>
<path d="M379.806 256.324L359.766 230.46H353.674V267.867H360.14V241.254L380.768 267.867H386.272V230.46H379.806V256.324Z" fill="#F0B90B"/>
</svg>
