<svg width="24" height="24" viewBox="0 0 24 24" fill="none" xmlns="http://www.w3.org/2000/svg">
<circle cx="12" cy="12" r="12" fill="#4F4F4F"/>
<path d="M7.60588 11.9923L5.8116 13.7873L4 11.9923L5.81093 10.1814L7.60588 11.9923ZM11.9923 7.60588L15.0827 10.6962L16.8943 8.88598L11.9923 4L7.09037 8.90197L8.90197 10.7122L11.9923 7.60588ZM18.1737 10.1814L16.3788 11.9923L18.1897 13.8033L20 11.9923L18.1737 10.1814ZM11.9923 16.3788L8.90197 13.2724L7.09037 15.0834L11.9923 19.9847L16.8943 15.0827L15.0827 13.2724L11.9923 16.3788ZM11.9923 13.788L13.8033 11.9764L11.9923 10.1821L10.1814 11.9923L11.9923 13.7873V13.788Z" fill="#F0B90B"/>
</svg>
