<svg width="128" height="128" viewBox="0 0 128 128" fill="none" xmlns="http://www.w3.org/2000/svg">
<path d="M44.9555 1.22614C48.0665 -0.408713 52.8002 -0.408713 55.9112 1.22614L87.6562 17.9083C89.5298 18.8929 90.5588 20.3601 90.7432 21.8747L90.7734 21.8747V105.728C90.7322 107.38 89.6935 109.021 87.6562 110.092L55.9112 126.774C52.8002 128.409 48.0665 128.409 44.9555 126.774L13.2106 110.092C11.1818 109.026 10.2082 107.373 10.16 105.728C10.1552 105.566 10.1546 105.431 10.1592 105.319L10.159 22.4133C10.1558 22.3225 10.1555 22.2318 10.1581 22.1415L10.16 21.8747L10.1742 21.8746C10.3152 20.3434 11.2975 18.9137 13.2106 17.9083L44.9555 1.22614ZM85.776 68.656L55.9112 84.3502C52.8002 85.9851 48.0665 85.9851 44.9555 84.3502L15.156 68.691V105.562L44.9555 121.139C46.6382 122.034 48.3847 122.906 50.0924 123.017L50.4334 123.028C52.2129 123.034 53.9405 122.135 55.6924 121.284L85.776 105.428V68.656ZM4.9967 103.905C4.9967 107.117 5.37199 109.229 6.11712 110.717C6.73472 111.95 7.66138 112.892 9.35341 114.039L9.45 114.104C9.82133 114.353 10.2304 114.614 10.7283 114.92L11.3155 115.278L13.1186 116.361L10.5325 120.615L8.51434 119.402L8.17512 119.195C7.59159 118.836 7.10795 118.529 6.65683 118.226C1.8345 114.991 0.0360243 111.465 0.000537036 104.128L0 103.905H4.9967ZM47.9343 46.1808C47.7032 46.2598 47.4866 46.3511 47.2891 46.4549L15.5442 63.1371C15.5109 63.1546 15.4791 63.1719 15.4489 63.189L15.422 63.2046L15.4718 63.2329L15.5442 63.272L47.2891 79.9542C47.4866 80.058 47.7032 80.1493 47.9343 80.2283V46.1808ZM52.9325 46.1808V80.2283C53.1636 80.1493 53.3802 80.058 53.5776 79.9542L85.3226 63.272C85.3559 63.2545 85.3877 63.2372 85.4179 63.2201L85.4448 63.2046L85.3949 63.1762L85.3226 63.1371L53.5776 46.4549C53.3802 46.3511 53.1636 46.2598 52.9325 46.1808ZM85.776 27.823L57.299 42.788L85.776 57.753V27.823ZM15.156 27.858V57.718L43.567 42.788L15.156 27.858ZM53.5776 5.62216C51.9268 4.75463 48.94 4.75463 47.2891 5.62216L15.5442 22.3044C15.5109 22.3219 15.4791 22.3392 15.4489 22.3563L15.422 22.3718L15.4718 22.4002L15.5442 22.4393L47.2891 39.1215C48.94 39.989 51.9268 39.989 53.5776 39.1215L85.3226 22.4393C85.3559 22.4218 85.3877 22.4045 85.4179 22.3873L85.4448 22.3718L85.3949 22.3434L85.3226 22.3044L53.5776 5.62216ZM90.4675 7.45154L92.4857 8.66424L92.8249 8.87145C93.4084 9.22982 93.892 9.5377 94.3432 9.84031C99.1655 13.075 100.964 16.6017 100.999 23.9381L101 24.1616H96.0033C96.0033 20.9488 95.628 18.8372 94.8829 17.3495C94.2653 16.1165 93.3386 15.1742 91.6466 14.0276L91.55 13.9625C91.1787 13.7134 90.7696 13.4525 90.2717 13.1458L89.6845 12.788L87.8814 11.7054L90.4675 7.45154Z" fill="rgb(25,105,255)"/>
</svg>
