<svg height="20" width="20" viewBox="0 0 20 20" fill="none" xmlns="http://www.w3.org/2000/svg">
<path fill-rule="evenodd" clip-rule="evenodd" d="M1.5 3C1.5 2.72386 1.72386 2.5 2 2.5H18C18.2761 2.5 18.5 2.72386 18.5 3V17C18.5 17.2761 18.2761 17.5 18 17.5H2C1.72386 17.5 1.5 17.2761 1.5 17V3ZM2.5 3.5V16.5H17.5V3.5H2.5ZM3.5 5C3.5 4.72386 3.72386 4.5 4 4.5H16C16.2761 4.5 16.5 4.72386 16.5 5V15C16.5 15.2761 16.2761 15.5 16 15.5H4C3.72386 15.5 3.5 15.2761 3.5 15V5ZM4.5 5.5V13.8769L8.66504 10.1284C8.83488 9.9755 9.08675 9.95723 9.27687 10.084L10.7456 11.0631L13.1875 9.10957C13.3507 8.97901 13.5779 8.96373 13.7571 9.07126L15.5 10.117V5.5H4.5ZM15.5 11.2832L13.5407 10.1076L11.6187 11.6452L12.2769 12.084C12.5066 12.2372 12.5687 12.5476 12.4155 12.7774C12.2624 13.0071 11.9519 13.0692 11.7222 12.916L9.04532 11.1315L5.3025 14.5H15.5V11.2832ZM6.5 8C6.5 7.72386 6.72386 7.5 7 7.5C7.27614 7.5 7.5 7.72386 7.5 8C7.5 8.27614 7.27614 8.5 7 8.5C6.72386 8.5 6.5 8.27614 6.5 8ZM7 6.5C6.17157 6.5 5.5 7.17157 5.5 8C5.5 8.82843 6.17157 9.5 7 9.5C7.82843 9.5 8.5 8.82843 8.5 8C8.5 7.17157 7.82843 6.5 7 6.5Z" fill="white"/>
</svg>
