<?xml version="1.0" encoding="UTF-8" standalone="no"?>
<!DOCTYPE svg PUBLIC "-//W3C//DTD SVG 1.1//EN" "http://www.w3.org/Graphics/SVG/1.1/DTD/svg11.dtd">
<svg width="100%" height="100%" viewBox="0 0 951 305" version="1.1" xmlns="http://www.w3.org/2000/svg" xmlns:xlink="http://www.w3.org/1999/xlink" xml:space="preserve" xmlns:serif="http://www.serif.com/" style="fill-rule:evenodd;clip-rule:evenodd;">
    <g id="Plan-de-travail1" serif:id="Plan de travail1" transform="matrix(1,0,0,1,-28.4422,-330.659)">
        <rect x="28.442" y="330.659" width="950.545" height="304.501" style="fill:none;"/>
        <clipPath id="_clip1">
            <rect x="28.442" y="330.659" width="950.545" height="304.501"/>
        </clipPath>
        <g clip-path="url(#_clip1)">
            <g transform="matrix(1,0,0,1,-14.8938,-49.8478)">
                <g id="Layer-1" serif:id="Layer 1">
                    <g id="g2153">
                        <g id="g1972" transform="matrix(0.814183,0,0,0.814183,99.2486,78.203)">
                            <path id="path1119" d="M430.312,457.641C385.29,460.58 302.683,555.47 299.002,507.413L291.665,411.641L151.885,570.946L296.614,697.936C296.614,697.936 290.015,620.521 299.04,602.231C310.053,579.912 372.074,527.845 433.385,519.893C478.896,513.991 524.804,533.363 566.162,539.237C616.087,546.328 657.395,540.888 657.395,540.888L654.204,492.018C573.602,523.587 492.262,455.447 430.312,457.641Z" style="fill:rgb(76,191,75);fill-rule:nonzero;stroke:black;stroke-width:11.45px;"/>
                            <path id="path1121" d="M319.26,608.386C319.26,608.386 385.102,564.988 421.965,562.581C510.887,556.776 696.617,583.75 696.617,583.75L690.39,488.373C690.39,488.373 737.295,539.604 766.091,564.871C783.679,580.303 829.542,610.469 829.542,610.469C829.542,610.469 780.304,644.44 765.991,660.753C741.974,688.124 714.552,741.522 714.552,741.522L706.837,623.339C706.837,623.339 515.624,602.09 437.145,607.213C386.844,610.497 320.495,648.562 320.495,648.562L319.26,608.386Z" style="fill:rgb(76,191,75);fill-rule:nonzero;stroke:black;stroke-width:11.45px;"/>
                            <path id="path3671-8" d="M608.025,593.826C633.397,602.623 657.227,657.62 657.227,657.62C657.227,657.62 603.288,664.321 583.83,649.229C571.141,639.389 566.623,604.236 566.623,604.236C566.623,604.236 594.58,589.165 608.025,593.826Z" style="fill:rgb(48,136,48);fill-rule:nonzero;stroke:black;stroke-width:11.45px;"/>
                            <path id="path3669-1" d="M393.932,441.56C415.333,425.337 474.306,436.037 474.306,436.037C474.306,436.037 449.945,484.625 426.592,492.436C411.364,497.529 379.614,481.778 379.614,481.778C379.614,481.778 382.593,450.158 393.932,441.56Z" style="fill:rgb(48,136,48);fill-rule:nonzero;stroke:black;stroke-width:11.45px;"/>
                            <path id="path3673-9" d="M428.169,586.053C404.155,598.075 387.679,655.702 387.679,655.702C387.679,655.702 442.03,655.336 459.362,637.84C470.663,626.433 470.572,590.991 470.572,590.991C470.572,590.991 440.893,579.682 428.169,586.053Z" style="fill:rgb(48,136,48);fill-rule:nonzero;stroke:black;stroke-width:11.45px;"/>
                            <path id="path3675-8" d="M523.737,541.6C536.552,554.28 576.74,552.346 576.74,552.346C576.74,552.346 564.801,517.868 549.947,510.616C540.26,505.887 517.746,513.576 517.746,513.576C517.746,513.576 516.947,534.881 523.737,541.6Z" style="fill:rgb(48,136,48);fill-rule:nonzero;stroke:black;stroke-width:7.69px;"/>
                        </g>
                        <g id="g2119" transform="matrix(1,0,0,1,0,-22.2365)">
                            <circle id="circle1089-2" cx="891.429" cy="555.268" r="86.632" style="fill:rgb(44,44,44);stroke:black;stroke-width:8.82px;"/>
                            <path id="path1091-8" d="M864.293,544.117L891.429,516.982L918.564,544.145L934.353,528.356L891.429,485.403L848.504,528.328L864.293,544.117ZM821.564,555.268L837.353,539.478L853.143,555.268L837.353,571.057L821.564,555.268ZM864.293,566.418L891.429,593.553L918.564,566.39L934.381,582.179L891.429,625.132L848.477,582.181L864.293,566.418ZM929.714,555.268L945.504,539.478L961.293,555.268L945.504,571.057L929.714,555.268Z" style="fill:rgb(243,186,47);"/>
                            <path id="path1095-2" d="M909.034,555.268L891.429,537.606L878.406,550.657L876.897,552.166L873.768,555.294L891.401,572.926L909.034,555.293L909.034,555.268Z" style="fill:rgb(243,186,47);"/>
                        </g>
                        <path id="path3607-6-1" d="M88.446,451.669C88.446,451.669 91.569,465.597 85.112,474.337C75.923,486.777 57.823,491.929 54.791,506.298C48.323,536.966 59.045,578.243 86.435,594.842C113.1,611.001 167.356,626.808 191.778,607.163C197.69,602.406 197.518,583.378 197.518,583.378C197.518,583.378 139.863,583.721 119.525,566.588C103.772,553.316 95.341,515.537 91.548,492.615C90.458,486.027 105.698,472.258 105.152,462.53C104.798,456.217 88.446,451.669 88.446,451.669Z" style="fill:rgb(249,223,45);fill-rule:nonzero;stroke:black;stroke-width:9.5px;"/>
                    </g>
                </g>
            </g>
        </g>
    </g>
</svg>
