<svg xmlns="http://www.w3.org/2000/svg" width="32" height="32" fill="none"><g clip-path="url(#a)"><path fill="#F5F8FF" d="M32 16a16 16 0 1 0-32 0 16 16 0 0 0 32 0Z"/><path fill="#2D374B" d="M30 16a14 14 0 1 0-28 0 14 14 0 0 0 28 0Z"/><path fill="#F5F8FF" d="M20.17 20.9c-6 .76-8.75-4.5-8.26-5.02.32-.34.83-.36 1.26-.37 2-.06 4.84 2.28 5.41 2.27 1.11-.03 2.79-1.8 3.89-3.25.45-.61 3.32-1.53 3 .07-1.03 5.2-4.54 6.21-5.3 6.3Zm-8.34-9.83c6-.75 8.75 4.52 8.26 5.04-.32.34-.83.36-1.26.37-2 .05-4.84-2.29-5.41-2.27-1.11.02-2.79 1.79-3.89 3.25-.45.6-3.32 1.52-3-.08 1.03-5.2 4.54-6.21 5.3-6.3Z"/></g><defs><clipPath id="a"><path fill="#fff" d="M0 0h32v32H0z"/></clipPath></defs></svg>