<?xml version="1.0" encoding="UTF-8" standalone="no"?>
<!DOCTYPE svg PUBLIC "-//W3C//DTD SVG 1.1//EN" "http://www.w3.org/Graphics/SVG/1.1/DTD/svg11.dtd">
<svg width="100%" height="100%" viewBox="0 0 562 588" version="1.1" xmlns="http://www.w3.org/2000/svg" xmlns:xlink="http://www.w3.org/1999/xlink" xml:space="preserve" xmlns:serif="http://www.serif.com/" style="fill-rule:evenodd;clip-rule:evenodd;">
    <g id="Plan-de-travail1" serif:id="Plan de travail1" transform="matrix(0.809207,0,0,0.887022,32.031,-93.1869)">
        <rect x="-39.583" y="105.056" width="693.548" height="662.266" style="fill:none;"/>
        <clipPath id="_clip1">
            <rect x="-39.583" y="105.056" width="693.548" height="662.266"/>
        </clipPath>
        <g clip-path="url(#_clip1)">
            <g id="Layer-1" serif:id="Layer 1" transform="matrix(1.23578,0,0,1.12737,-41.7609,-50.9507)">
                <g id="g1059" transform="matrix(0.649086,0,0,0.649086,-196.331,73.6701)">
                    <path id="path916" d="M856.396,927.774L848.413,927.855L848.234,939.293C848.229,939.738 843.424,939.684 844.7,944.441C845.103,945.942 848.63,946.951 848.63,946.951L848.346,967.942C848.346,967.942 845.575,967.64 843.636,966.719C840.854,965.397 838.367,963.437 836.226,964.66C834.703,965.531 833.859,966.601 834.832,969.737C835.975,973.419 840.732,978.444 844.663,979.393C846.787,979.905 852.249,981.49 856.022,980.736C863.266,979.291 869.373,974.571 869.373,974.571L879.485,973.901C879.485,973.901 875.734,978.071 876.781,980.049C877.964,982.282 881.798,982.085 884.237,981.423C887.921,980.424 892.904,973.941 892.904,973.941C892.904,973.941 902.564,975.71 906.074,973.464C908.708,971.778 909.429,965.323 909.429,965.323C909.429,965.323 914.029,964.095 914.814,961.445C915.497,959.139 913.833,950.455 913.833,950.455C913.833,950.455 917.169,948.955 917.599,946.565C917.895,944.915 917.052,941.308 916.48,938.735C916.094,937.001 915.965,934.689 914.927,933.639C913.629,932.328 910.85,932.698 910.85,932.698L909.05,927.253C909.05,927.253 910.875,923.873 911.184,922.013C911.525,919.959 910.824,915.777 910.824,915.777L912.565,908.143C912.565,908.143 910.005,907.008 908.639,906.957C907.591,906.918 905.567,907.64 905.567,907.64C905.567,907.64 905.125,911.874 904.752,913.271C904.444,914.43 903.525,915.308 903.525,915.308L901.985,916.312L901.382,912.227L901.516,904.593C901.516,904.593 898.709,903.91 897.239,904.07C896.254,904.178 894.15,905.397 894.15,905.397L895.623,912.227L891.337,921.067C891.337,921.067 891.493,913.78 890.083,910.539C889.211,908.534 885.846,905.531 885.846,905.531L883.637,897.897L878.145,900.843L880.623,908.076L880.154,910.888L878.279,909.616L876.739,902.518L871.114,906L874.596,913.299L872.721,913.433L868.168,907.875L865.221,901.312L858.994,904.459L862.883,910.822C862.883,910.822 862.603,912.533 862.697,913.205C862.871,914.443 863.688,916.551 863.688,916.551C863.688,916.551 858.558,912.45 855.757,911.393C853.744,910.635 849.246,911.106 849.246,911.106L843.185,907.602C843.185,907.602 841.205,909.239 840.65,910.409C840.195,911.37 840.155,913.994 840.155,913.994L847.399,916.883L856.396,927.774Z" style="fill:rgb(21,22,24);fill-opacity:0.99;fill-rule:nonzero;stroke:black;stroke-width:6.55px;"/>
                    <path id="path918" d="M896.305,930.035C891.668,929.98 886.354,930.286 881.293,930.243C865.804,930.11 850.69,930.476 850.69,930.476L850.69,972.095C850.69,972.095 855.822,972.201 862.87,972.269C862.048,972.208 861.265,972.126 860.626,971.986C858.19,971.456 852.729,971.329 850.716,970.271C849.901,969.842 850.518,967.902 850.518,967.902C850.518,967.902 855.486,967.519 861.062,963.373C864.834,960.568 869.897,952.615 869.897,952.615L871.27,944.921L878.439,945.038L875.912,953.777C875.912,953.777 877.006,956.931 875.719,962.929C874.432,968.927 871.358,972.158 871.358,972.158C871.358,972.158 870.089,972.244 868.505,972.309C872.842,972.329 877.431,972.329 882.149,972.275C889.969,972.184 897.82,973.651 903.178,971.431C904.972,970.688 905.125,970.338 905.594,969.395C907.84,964.883 906.482,959.48 906.401,954.295C906.258,945.128 906.731,935.729 906.731,935.729C906.731,935.729 906.219,931.206 903.719,930.675C901.625,930.23 899.087,930.067 896.305,930.035L896.305,930.035Z" style="fill:rgb(179,114,20);fill-rule:nonzero;"/>
                    <path id="rect1027" d="M853.905,930.41C851.963,930.446 850.69,930.476 850.69,930.476L850.69,967.847C850.743,967.838 850.797,967.835 850.848,967.83C851.262,967.744 852.5,967.489 853.905,967.146L853.905,930.41Z" style="fill:rgb(120,77,13);fill-rule:nonzero;"/>
                    <path id="path1035" d="M849.672,967.844C849.672,967.844 850.919,967.791 851.548,967.687C852.33,967.558 853.905,967.146 853.905,967.146L854.609,968.578L854.443,969.525C854.443,969.525 850.891,970.567 850.773,970.579C850.655,970.59 848.086,970.058 848.086,970.058L849.672,967.844Z" style="fill:rgb(21,22,24);fill-opacity:0.99;fill-rule:nonzero;"/>
                    <path id="path920" d="M870.838,953.864C870.838,953.864 863.832,965.361 858.05,967.991C853.595,970.017 846.581,969.458 843.371,968.264C840.858,967.329 840.192,965.061 838.012,965.896C837.373,966.141 836.678,967.753 836.868,968.51C838.455,974.842 846.604,979.862 853.082,979.055C876.85,976.091 874.484,954.716 874.484,954.716L870.838,953.864Z" style="fill:rgb(255,204,0);fill-rule:nonzero;"/>
                    <path id="path922" d="M870.838,953.864L874.484,954.716L876.141,946.927L872.519,946.761L870.838,953.864Z" style="fill:rgb(173,111,20);fill-rule:nonzero;"/>
                    <path id="path924" d="M849.652,912.897L848.397,915.224L842.219,912.713L843.592,909.448L849.652,912.897Z" style="fill:rgb(173,111,20);fill-rule:nonzero;"/>
                    <path id="path926" d="M849.652,912.897L848.748,916.312C848.748,916.312 852.522,919.85 854.183,921.766C855.98,923.838 858.927,928.198 858.927,928.198L863.447,928.399L864.083,919.125C864.083,919.125 858.53,914.07 855.01,912.931C853.413,912.414 849.652,912.897 849.652,912.897L849.652,912.897Z" style="fill:rgb(255,204,0);fill-rule:nonzero;"/>
                    <path id="path928" d="M858.927,923.21C859.533,922.767 860.498,923.522 861.07,924.415C861.746,925.471 863.088,927.69 861.907,928.265C860.838,928.786 860.242,926.543 859.63,925.52C859.1,924.633 858.308,923.661 858.927,923.21Z" style="fill:rgb(242,181,1);fill-rule:nonzero;"/>
                    <path id="path930" d="M867.737,909.875C867.737,909.875 866.634,910.577 866.082,910.82C865.395,911.122 864.02,911.509 864.02,911.509C864.02,911.509 865.617,916.661 865.777,919.356C865.951,922.292 865.021,928.399 865.021,928.399C865.021,928.399 868.265,928.827 869.907,928.35C870.46,928.189 870.72,927.127 871.371,926.727C872.213,926.211 873.391,926.357 873.391,926.357C874.276,921.142 872.857,913.029 867.737,909.875Z" style="fill:rgb(255,204,0);fill-rule:nonzero;"/>
                    <rect id="rect932" x="887.316" y="942.827" width="26.553" height="17.203" style="fill:rgb(21,22,24);fill-opacity:0.99;"/>
                    <rect id="rect934" x="888.997" y="944.646" width="22.534" height="13.111" style="fill:rgb(153,92,13);"/>
                    <circle id="circle936" cx="896.41" cy="951.619" r="4.838" style="fill:rgb(22,22,24);"/>
                    <circle id="circle938" cx="896.41" cy="951.234" r="2.009" style="fill:rgb(252,204,0);"/>
                    <circle id="circle940" cx="908.966" cy="947.585" r="1.339" style="fill:white;"/>
                    <circle id="circle942" cx="875.015" cy="933.723" r="1.339" style="fill:white;"/>
                    <path id="path944" d="M912.744,947.637C912.744,947.637 914.735,947.318 915.182,946.548C916.534,944.225 914.906,941.142 914.401,938.522C914.188,937.417 914.023,935.939 913.028,935.373C911.935,934.752 910.102,934.89 909.287,935.847C907.74,937.662 909.524,942.997 909.524,942.997C909.524,942.997 911.606,941.262 913.057,943.776C914.508,946.29 912.744,947.637 912.744,947.637L912.744,947.637Z" style="fill:rgb(105,63,9);fill-rule:nonzero;"/>
                    <circle id="circle946" cx="911.595" cy="937.8" r="1.456" style="fill:white;"/>
                    <path id="path948" d="M878.509,931.917C877.939,931.916 877.851,933.586 878.154,934.166C879.361,936.476 884.973,934.511 891.017,934.68C896.562,934.835 898.454,933.581 901.829,935.231C902.629,935.622 902.918,937.257 903.771,937.031C904.842,936.746 905.046,934.93 904.765,933.858C904.532,932.967 903.932,932.745 903.321,932.485C900.363,931.227 896.872,932.132 893.687,932.059C886.171,931.888 878.509,931.917 878.509,931.917L878.509,931.917Z" style="fill:white;fill-rule:nonzero;"/>
                    <path id="path950" d="M865.772,964.944L866.766,965.465C866.766,965.465 865.686,966.854 865.099,967.359C864.329,968.022 862.694,968.969 862.694,968.969L861.983,968.211C861.983,968.211 863.591,967.259 864.253,966.688C864.854,966.17 865.772,964.944 865.772,964.944Z" style="fill:rgb(242,181,1);fill-rule:nonzero;"/>
                    <path id="path952" d="M859.569,969.395L859.9,970.626C859.9,970.626 857.182,971.841 855.775,971.998C852.952,972.314 847.21,972.047 847.21,972.047C847.21,972.047 847.69,971.222 848.198,971.15C849.721,970.933 852.816,971.235 854.519,970.869C856.368,970.473 859.569,969.395 859.569,969.395L859.569,969.395Z" style="fill:rgb(242,181,1);fill-rule:nonzero;"/>
                    <path id="path954" d="M882.108,973.941L890.441,974.343C890.441,974.343 882.227,982.238 879.168,979.909C877.467,978.614 882.108,973.941 882.108,973.941Z" style="fill:rgb(255,204,0);fill-rule:nonzero;"/>
                    <path id="path956" d="M864.267,903.271L866.678,909.248L864.703,910.269L860.919,904.493L864.267,903.271Z" style="fill:rgb(173,111,20);fill-rule:nonzero;"/>
                    <path id="path958" d="M875.501,905.313L877.744,911.759L875.735,912.043L873.04,906.318L875.501,905.313Z" style="fill:rgb(173,111,20);fill-rule:nonzero;"/>
                    <path id="path960" d="M882.865,900.476L880.048,901.423L882.226,907.152L884.759,906.56L882.865,900.476Z" style="fill:rgb(173,111,20);fill-rule:nonzero;"/>
                    <path id="path962" d="M896.905,906.395L899.959,906.608L898.917,913.166L897.639,912.905L896.905,906.395Z" style="fill:rgb(173,111,20);fill-rule:nonzero;"/>
                    <path id="path964" d="M907.582,908.928L910.447,909.757L908.411,915.723L906.446,915.178L907.582,908.928Z" style="fill:rgb(173,111,20);fill-rule:nonzero;"/>
                    <path id="path966" d="M878.882,912.328C878.882,912.328 875.972,912.42 875.467,913.701C874.91,915.115 875.468,917.365 875.58,919.71C875.757,923.392 875.768,927.161 875.768,927.161C875.768,927.161 879.161,922.245 879.853,919.661C881.609,913.107 878.882,912.328 878.882,912.328L878.882,912.328Z" style="fill:rgb(255,204,0);fill-rule:nonzero;"/>
                    <path id="path968" d="M885.612,907.758L881.845,908.159C881.845,908.159 881.669,916.789 881.062,919.43C880.179,923.268 877.108,928.299 877.108,928.299L888.492,928.533C888.492,928.533 890.012,918.077 889.281,914.586C888.752,912.057 885.612,907.758 885.612,907.758L885.612,907.758Z" style="fill:rgb(255,204,0);fill-rule:nonzero;"/>
                    <path id="path970" d="M867.398,923.745L868.369,923.745L868.101,927.161L867.398,923.745Z" style="fill:rgb(242,181,1);fill-rule:nonzero;"/>
                    <path id="path972" d="M883.235,920.765L883.905,920.933L882.498,925.152L883.235,920.765Z" style="fill:rgb(242,181,1);fill-rule:nonzero;"/>
                    <path id="path974" d="M896.055,913.864L900.01,913.901C900.01,913.901 901.903,917.597 901.282,919.359C900.605,921.279 896.647,926.438 894.265,927.746C891.045,929.513 890.325,928.746 889.998,927.261C889.559,925.263 893.725,922.67 894.652,919.326C895.15,917.53 896.055,913.864 896.055,913.864L896.055,913.864Z" style="fill:rgb(255,204,0);fill-rule:nonzero;"/>
                    <path id="path976" d="M905.501,915.877L896.46,928.433C896.46,928.433 900.842,927.397 902.956,927.897C904.418,928.243 906.806,930.241 906.806,930.241C906.806,930.241 908.7,925.053 909.083,922.339C909.33,920.593 910.118,918.477 909.083,917.049C908.346,916.032 905.501,915.877 905.501,915.877Z" style="fill:rgb(255,204,0);fill-rule:nonzero;"/>
                    <path id="path978" d="M848.631,941.458L848.583,945.08C848.583,945.08 846.547,945.231 846.547,943.163C846.547,941.295 848.631,941.458 848.631,941.458L848.631,941.458Z" style="fill:rgb(255,204,0);fill-rule:nonzero;"/>
                    <path id="path1005" d="M909.511,959.558L912.726,958.62C912.726,958.62 912.47,960.979 911.99,961.69C911.521,962.386 909.076,963.04 909.076,963.04L909.511,959.558Z" style="fill:rgb(105,63,9);fill-rule:nonzero;"/>
                </g>
                <g id="g1131" transform="matrix(0.781528,-0.62387,0.62387,0.781528,-1059.84,421.083)">
                    <path id="path1061" d="M856.396,927.774L848.413,927.855L848.234,939.293C848.229,939.738 843.424,939.684 844.7,944.441C845.103,945.942 848.63,946.951 848.63,946.951L848.346,967.942C848.346,967.942 845.575,967.64 843.636,966.719C840.854,965.397 838.367,963.437 836.226,964.66C834.703,965.531 833.859,966.601 834.832,969.737C835.975,973.419 840.732,978.444 844.663,979.393C846.787,979.905 852.249,981.49 856.022,980.736C863.266,979.291 869.373,974.571 869.373,974.571L879.485,973.901C879.485,973.901 875.734,978.071 876.781,980.049C877.964,982.282 881.798,982.085 884.237,981.423C887.921,980.424 892.904,973.941 892.904,973.941C892.904,973.941 902.564,975.71 906.074,973.464C908.708,971.778 909.429,965.323 909.429,965.323C909.429,965.323 914.029,964.095 914.814,961.445C915.497,959.139 913.833,950.455 913.833,950.455C913.833,950.455 917.169,948.955 917.599,946.565C917.895,944.915 917.052,941.308 916.48,938.735C916.094,937.001 915.965,934.689 914.927,933.639C913.629,932.328 910.85,932.698 910.85,932.698L909.05,927.253C909.05,927.253 910.875,923.873 911.184,922.013C911.525,919.959 910.824,915.777 910.824,915.777L912.565,908.143C912.565,908.143 910.005,907.008 908.639,906.957C907.591,906.918 905.567,907.64 905.567,907.64C905.567,907.64 905.125,911.874 904.752,913.271C904.444,914.43 903.525,915.308 903.525,915.308L901.985,916.312L901.382,912.227L901.516,904.593C901.516,904.593 898.709,903.91 897.239,904.07C896.254,904.178 894.15,905.397 894.15,905.397L895.623,912.227L891.337,921.067C891.337,921.067 891.493,913.78 890.083,910.539C889.211,908.534 885.846,905.531 885.846,905.531L883.637,897.897L878.145,900.843L880.623,908.076L880.154,910.888L878.279,909.616L876.739,902.518L871.114,906L874.596,913.299L872.721,913.433L868.168,907.875L865.221,901.312L858.994,904.459L862.883,910.822C862.883,910.822 862.603,912.533 862.697,913.205C862.871,914.443 863.688,916.551 863.688,916.551C863.688,916.551 858.558,912.45 855.757,911.393C853.744,910.635 849.246,911.106 849.246,911.106L843.185,907.602C843.185,907.602 841.205,909.239 840.65,910.409C840.195,911.37 840.155,913.994 840.155,913.994L847.399,916.883L856.396,927.774Z" style="fill:rgb(21,22,24);fill-opacity:0.99;fill-rule:nonzero;stroke:black;stroke-width:4.25px;"/>
                    <path id="path1063" d="M896.305,930.035C891.668,929.98 886.354,930.286 881.293,930.243C865.804,930.11 850.69,930.476 850.69,930.476L850.69,972.095C850.69,972.095 855.822,972.201 862.87,972.269C862.048,972.208 861.265,972.126 860.626,971.986C858.19,971.456 852.729,971.329 850.716,970.271C849.901,969.842 850.518,967.902 850.518,967.902C850.518,967.902 855.486,967.519 861.062,963.373C864.834,960.568 869.897,952.615 869.897,952.615L871.27,944.921L878.439,945.038L875.912,953.777C875.912,953.777 877.006,956.931 875.719,962.929C874.432,968.927 871.358,972.158 871.358,972.158C871.358,972.158 870.089,972.244 868.505,972.309C872.842,972.329 877.431,972.329 882.149,972.275C889.969,972.184 897.82,973.651 903.178,971.431C904.972,970.688 905.125,970.338 905.594,969.395C907.84,964.883 906.482,959.48 906.401,954.295C906.258,945.128 906.731,935.729 906.731,935.729C906.731,935.729 906.219,931.206 903.719,930.675C901.625,930.23 899.087,930.067 896.305,930.035L896.305,930.035Z" style="fill:rgb(179,114,20);fill-rule:nonzero;"/>
                    <path id="path1065" d="M853.905,930.41C851.963,930.446 850.69,930.476 850.69,930.476L850.69,967.847C850.743,967.838 850.797,967.835 850.848,967.83C851.262,967.744 852.5,967.489 853.905,967.146L853.905,930.41Z" style="fill:rgb(120,77,13);fill-rule:nonzero;"/>
                    <path id="path1067" d="M849.672,967.844C849.672,967.844 850.919,967.791 851.548,967.687C852.33,967.558 853.905,967.146 853.905,967.146L854.609,968.578L854.443,969.525C854.443,969.525 850.891,970.567 850.773,970.579C850.655,970.59 848.086,970.058 848.086,970.058L849.672,967.844Z" style="fill:rgb(21,22,24);fill-opacity:0.99;fill-rule:nonzero;"/>
                    <path id="path1069" d="M870.838,953.864C870.838,953.864 863.832,965.361 858.05,967.991C853.595,970.017 846.581,969.458 843.371,968.264C840.858,967.329 840.192,965.061 838.012,965.896C837.373,966.141 836.678,967.753 836.868,968.51C838.455,974.842 846.604,979.862 853.082,979.055C876.85,976.091 874.484,954.716 874.484,954.716L870.838,953.864Z" style="fill:rgb(255,204,0);fill-rule:nonzero;"/>
                    <path id="path1071" d="M870.838,953.864L874.484,954.716L876.141,946.927L872.519,946.761L870.838,953.864Z" style="fill:rgb(173,111,20);fill-rule:nonzero;"/>
                    <path id="path1073" d="M849.652,912.897L848.397,915.224L842.219,912.713L843.592,909.448L849.652,912.897Z" style="fill:rgb(173,111,20);fill-rule:nonzero;"/>
                    <path id="path1075" d="M849.652,912.897L848.748,916.312C848.748,916.312 852.522,919.85 854.183,921.766C855.98,923.838 858.927,928.198 858.927,928.198L863.447,928.399L864.083,919.125C864.083,919.125 858.53,914.07 855.01,912.931C853.413,912.414 849.652,912.897 849.652,912.897L849.652,912.897Z" style="fill:rgb(255,204,0);fill-rule:nonzero;"/>
                    <path id="path1077" d="M858.927,923.21C859.533,922.767 860.498,923.522 861.07,924.415C861.746,925.471 863.088,927.69 861.907,928.265C860.838,928.786 860.242,926.543 859.63,925.52C859.1,924.633 858.308,923.661 858.927,923.21Z" style="fill:rgb(242,181,1);fill-rule:nonzero;"/>
                    <path id="path1079" d="M867.737,909.875C867.737,909.875 866.634,910.577 866.082,910.82C865.395,911.122 864.02,911.509 864.02,911.509C864.02,911.509 865.617,916.661 865.777,919.356C865.951,922.292 865.021,928.399 865.021,928.399C865.021,928.399 868.265,928.827 869.907,928.35C870.46,928.189 870.72,927.127 871.371,926.727C872.213,926.211 873.391,926.357 873.391,926.357C874.276,921.142 872.857,913.029 867.737,909.875Z" style="fill:rgb(255,204,0);fill-rule:nonzero;"/>
                    <rect id="rect1081" x="887.316" y="942.827" width="26.553" height="17.203" style="fill:rgb(21,22,24);fill-opacity:0.99;"/>
                    <rect id="rect1083" x="888.997" y="944.646" width="22.534" height="13.111" style="fill:rgb(153,92,13);"/>
                    <circle id="circle1085" cx="896.41" cy="951.619" r="4.838" style="fill:rgb(22,22,24);"/>
                    <circle id="circle1087" cx="896.41" cy="951.234" r="2.009" style="fill:rgb(252,204,0);"/>
                    <circle id="circle1089" cx="908.966" cy="947.585" r="1.339" style="fill:white;"/>
                    <circle id="circle1091" cx="875.015" cy="933.723" r="1.339" style="fill:white;"/>
                    <path id="path1093" d="M912.744,947.637C912.744,947.637 914.735,947.318 915.182,946.548C916.534,944.225 914.906,941.142 914.401,938.522C914.188,937.417 914.023,935.939 913.028,935.373C911.935,934.752 910.102,934.89 909.287,935.847C907.74,937.662 909.524,942.997 909.524,942.997C909.524,942.997 911.606,941.262 913.057,943.776C914.508,946.29 912.744,947.637 912.744,947.637L912.744,947.637Z" style="fill:rgb(105,63,9);fill-rule:nonzero;"/>
                    <circle id="circle1095" cx="911.595" cy="937.8" r="1.456" style="fill:white;"/>
                    <path id="path1097" d="M878.509,931.917C877.939,931.916 877.851,933.586 878.154,934.166C879.361,936.476 884.973,934.511 891.017,934.68C896.562,934.835 898.454,933.581 901.829,935.231C902.629,935.622 902.918,937.257 903.771,937.031C904.842,936.746 905.046,934.93 904.765,933.858C904.532,932.967 903.932,932.745 903.321,932.485C900.363,931.227 896.872,932.132 893.687,932.059C886.171,931.888 878.509,931.917 878.509,931.917L878.509,931.917Z" style="fill:white;fill-rule:nonzero;"/>
                    <path id="path1099" d="M865.772,964.944L866.766,965.465C866.766,965.465 865.686,966.854 865.099,967.359C864.329,968.022 862.694,968.969 862.694,968.969L861.983,968.211C861.983,968.211 863.591,967.259 864.253,966.688C864.854,966.17 865.772,964.944 865.772,964.944Z" style="fill:rgb(242,181,1);fill-rule:nonzero;"/>
                    <path id="path1101" d="M859.569,969.395L859.9,970.626C859.9,970.626 857.182,971.841 855.775,971.998C852.952,972.314 847.21,972.047 847.21,972.047C847.21,972.047 847.69,971.222 848.198,971.15C849.721,970.933 852.816,971.235 854.519,970.869C856.368,970.473 859.569,969.395 859.569,969.395L859.569,969.395Z" style="fill:rgb(242,181,1);fill-rule:nonzero;"/>
                    <path id="path1103" d="M882.108,973.941L890.441,974.343C890.441,974.343 882.227,982.238 879.168,979.909C877.467,978.614 882.108,973.941 882.108,973.941Z" style="fill:rgb(255,204,0);fill-rule:nonzero;"/>
                    <path id="path1105" d="M864.267,903.271L866.678,909.248L864.703,910.269L860.919,904.493L864.267,903.271Z" style="fill:rgb(173,111,20);fill-rule:nonzero;"/>
                    <path id="path1107" d="M875.501,905.313L877.744,911.759L875.735,912.043L873.04,906.318L875.501,905.313Z" style="fill:rgb(173,111,20);fill-rule:nonzero;"/>
                    <path id="path1109" d="M882.865,900.476L880.048,901.423L882.226,907.152L884.759,906.56L882.865,900.476Z" style="fill:rgb(173,111,20);fill-rule:nonzero;"/>
                    <path id="path1111" d="M896.905,906.395L899.959,906.608L898.917,913.166L897.639,912.905L896.905,906.395Z" style="fill:rgb(173,111,20);fill-rule:nonzero;"/>
                    <path id="path1113" d="M907.582,908.928L910.447,909.757L908.411,915.723L906.446,915.178L907.582,908.928Z" style="fill:rgb(173,111,20);fill-rule:nonzero;"/>
                    <path id="path1115" d="M878.882,912.328C878.882,912.328 875.972,912.42 875.467,913.701C874.91,915.115 875.468,917.365 875.58,919.71C875.757,923.392 875.768,927.161 875.768,927.161C875.768,927.161 879.161,922.245 879.853,919.661C881.609,913.107 878.882,912.328 878.882,912.328L878.882,912.328Z" style="fill:rgb(255,204,0);fill-rule:nonzero;"/>
                    <path id="path1117" d="M885.612,907.758L881.845,908.159C881.845,908.159 881.669,916.789 881.062,919.43C880.179,923.268 877.108,928.299 877.108,928.299L888.492,928.533C888.492,928.533 890.012,918.077 889.281,914.586C888.752,912.057 885.612,907.758 885.612,907.758L885.612,907.758Z" style="fill:rgb(255,204,0);fill-rule:nonzero;"/>
                    <path id="path1119" d="M867.398,923.745L868.369,923.745L868.101,927.161L867.398,923.745Z" style="fill:rgb(242,181,1);fill-rule:nonzero;"/>
                    <path id="path1121" d="M883.235,920.765L883.905,920.933L882.498,925.152L883.235,920.765Z" style="fill:rgb(242,181,1);fill-rule:nonzero;"/>
                    <path id="path1123" d="M896.055,913.864L900.01,913.901C900.01,913.901 901.903,917.597 901.282,919.359C900.605,921.279 896.647,926.438 894.265,927.746C891.045,929.513 890.325,928.746 889.998,927.261C889.559,925.263 893.725,922.67 894.652,919.326C895.15,917.53 896.055,913.864 896.055,913.864L896.055,913.864Z" style="fill:rgb(255,204,0);fill-rule:nonzero;"/>
                    <path id="path1125" d="M905.501,915.877L896.46,928.433C896.46,928.433 900.842,927.397 902.956,927.897C904.418,928.243 906.806,930.241 906.806,930.241C906.806,930.241 908.7,925.053 909.083,922.339C909.33,920.593 910.118,918.477 909.083,917.049C908.346,916.032 905.501,915.877 905.501,915.877Z" style="fill:rgb(255,204,0);fill-rule:nonzero;"/>
                    <path id="path1127" d="M848.631,941.458L848.583,945.08C848.583,945.08 846.547,945.231 846.547,943.163C846.547,941.295 848.631,941.458 848.631,941.458L848.631,941.458Z" style="fill:rgb(255,204,0);fill-rule:nonzero;"/>
                    <path id="path1129" d="M909.511,959.558L912.726,958.62C912.726,958.62 912.47,960.979 911.99,961.69C911.521,962.386 909.076,963.04 909.076,963.04L909.511,959.558Z" style="fill:rgb(105,63,9);fill-rule:nonzero;"/>
                </g>
                <path id="path3935-6-3" d="M293.868,152.03C293.868,152.03 281.674,152.605 277.283,153.653C262.199,157.254 236.412,166.441 220.001,177.065C209.898,183.605 202.515,191.046 197.252,197.24C193.083,202.139 185.736,211.175 181.198,220.462C176.96,229.131 175.459,237.956 173.545,245.631C166.753,272.896 171.147,293.296 171.147,293.296C170.073,295.054 170.965,297.548 170.503,299.344C170.238,300.337 169.128,301.008 168.967,302.189C168.707,304.091 170.042,305.67 169.851,307.581C169.667,309.439 168.084,311.003 168.115,312.918C168.115,313.977 169.09,315.967 169.09,315.967C169.09,315.967 162.776,314.411 153.975,314.035C147.74,313.768 140.348,314.77 132.687,314.324C123.607,313.797 113.87,312.116 107.053,312.328C87.952,312.925 70.023,316.587 50.149,319.251C42.444,320.285 35.753,319.979 29.901,321.435C21,323.65 14.682,328.048 14.682,332.519C14.682,336.918 18.911,342.649 24.68,343.357C35.965,344.744 52.698,338.84 52.698,338.84C52.698,338.84 88.001,338.409 105.499,340.371C119.361,341.925 146.552,348.455 146.552,348.455C146.552,348.455 137.995,357.795 129.898,381.081C121.949,403.929 124.32,412.386 124.32,412.386C124.32,412.386 109.702,410.816 95.967,423.497C87.1,431.683 84.594,447.882 84.425,456.85C84.129,472.485 95.554,495.651 110.603,509.506C124.664,522.447 142.407,526.621 142.407,526.621C142.407,526.621 154.067,545.303 161.993,552.74C166.096,556.591 172.543,561.926 178.213,566.01C184.717,570.698 191.648,574.932 198.547,578.859C209.538,585.11 219.245,588.808 219.245,588.808C219.245,588.808 215.359,591.973 209.943,608.075C207.688,614.769 205.919,628.879 205.919,628.879C205.919,628.879 204.164,631.002 203.73,632.277C203.221,633.809 203.334,637.111 203.334,637.111C203.334,637.111 189.525,638.024 188.42,637.705C187.846,636.664 188.163,633.179 186.68,632.16C185.871,630.672 179.265,632.308 175.694,631.829C171.543,631.275 167.988,628.256 163.346,629.029C161.549,629.327 157.346,631.14 155.915,633.12C154.549,635.013 154.985,637.003 154.985,637.003C154.985,637.003 154.245,636.92 153.875,637.085C152.74,637.575 151.752,639.89 151.752,639.89C151.752,639.89 149.058,638.04 147.58,637.358C146.378,636.802 143.808,636.108 143.808,636.108C143.808,636.108 139.727,627.255 135.415,626.419C129.645,625.301 113.226,630.915 105.821,630.3C83.75,628.472 51.136,607.665 51.136,607.665C51.136,607.665 44.828,605.794 44.167,608.266C40.742,621.049 93.923,641.229 101.819,643.046C109.541,644.825 117.685,641.99 125.494,640.908C126.818,644.634 127.279,649.973 127.279,650.935C122.232,653.459 109.607,656.993 100.077,656.283C90.711,655.586 86.577,653.348 72.838,647.015C55.73,639.132 36.483,628.223 32.451,629.657C31.436,630.89 30.945,632.86 30.81,634.462C30.728,635.513 30.596,636.335 31.307,636.927C36.771,641.503 72.011,666.572 96.011,671.329C97.996,672.35 111.021,670.25 118.409,668.9C124.975,667.701 125.401,665.999 126.366,666.84C127.331,667.678 126.218,670.954 125.664,672.917C124.551,676.864 123.669,682.236 120.482,684.076C120.482,684.076 107.378,688.364 100.77,687.475C73.529,683.806 40.604,659.264 40.604,659.264C40.604,659.264 31.367,650.978 27.008,653.316C24.423,654.701 23.078,658.858 25.481,661.984C27.704,666.068 69.209,701.493 95.501,703.11C107.91,703.873 119.068,701.695 133.226,695.156C138.987,692.494 141.318,683.262 143.851,676.599C145.528,672.184 145.886,667.374 146.755,662.732C147.261,660.029 144.87,655.512 148.096,654.591C151.104,653.731 151.979,659.586 154.472,661.472C156.103,662.707 158.117,663.893 159.944,664.261C163.447,664.968 170.447,664.702 170.447,664.702C170.447,664.702 188.237,664.751 194.214,663.546C197.09,662.966 197.025,659.34 197.025,659.34L209.047,658.619C209.047,658.619 212.01,662.706 217.865,662.993C225.106,663.35 229.713,658.378 229.713,658.378L240.637,658.246C240.637,658.246 242.608,661.599 244.044,663.273C245.667,665.167 249.812,668.953 249.812,668.953L248.794,683.739C248.794,683.739 239.824,684.229 231.683,691.242C228.399,694.069 228.542,698.535 229.404,701.861C230.673,706.78 235.942,710.728 241.446,711.425C246.724,712.094 252.167,709.615 256.857,709.491C267.19,709.218 278.322,716.194 284.906,703.284C288.09,697.047 281.425,689.688 281.425,689.687L282.104,684.079L292.811,683.57L294.342,688.243C294.342,688.243 289.474,694.565 289.84,698.185C290.288,702.603 290.579,705.604 297.654,708.977C303.797,711.907 311.019,708.214 317.81,708.714C322.622,709.067 331.99,712.034 336.566,710.401C343.18,708.043 347.369,699.841 346.042,693.952C344.29,686.186 326.095,682.895 326.095,682.895L324.649,668.116L334.265,655.377L342.196,655.617C342.196,655.617 346.426,663.005 357.053,663.005C367.47,663.005 368.636,654.777 368.636,654.777L481.188,652.323C481.188,652.323 487.106,648.683 487.106,642.018C487.106,635.291 479.21,630.345 479.21,630.345L419.709,631.583C419.709,631.583 426.83,617.87 421.266,605.385C417.665,597.299 408.902,587.977 400.287,585.933C395.24,584.736 385.764,584.031 379.091,585.901C368.676,588.811 361.161,595.594 361.161,595.594C361.161,595.594 360.138,593.692 359.551,592.784C358.599,591.301 356.458,588.489 356.458,588.489C356.458,588.489 390.024,571.984 404.189,560.053C415.267,550.719 432.448,527.039 432.448,527.039C432.448,527.039 443.682,524.536 455.612,516.755C471.695,506.265 490.239,484.64 490.239,450.255C490.239,442.498 485.079,428.975 478.1,422.878C466.131,412.416 450.833,411.673 450.833,411.673C450.833,411.673 448.485,394.726 446.349,386.461C444.568,379.58 441.462,372.367 439.392,366.785C437.517,361.727 434.806,357.825 434.806,357.825C434.806,357.825 440.148,357.326 445.705,356.154C449.394,355.378 452.543,353.704 455.324,353.385C464.108,352.374 474.506,353.184 483.834,352.513C488.18,352.201 494.437,350.731 500.128,350.104C508.128,349.221 512.793,349.94 517.758,349.269C523.235,348.529 523.87,347.218 531.348,345.77C535.791,344.91 539.019,344.888 541.811,343.764C544.47,342.693 546.128,339.811 546.128,339.811C546.128,339.811 548.187,335.94 546.259,334.46C541.948,331.153 531.84,331.628 524.531,331.178C520.319,330.918 517.305,331.965 511.876,331.518C506.383,331.066 495.846,328.907 487.763,328.211C479.284,327.483 469.377,328.129 462.242,327.312C451.039,326.022 428.598,323.707 428.598,323.707L406.243,323.227C406.243,323.227 407.675,317.628 407.762,315.341C407.828,313.302 406.726,310.246 406.726,310.246L407.688,303.097C407.688,303.097 411.886,290.723 412.399,272.863C412.878,256.064 409.063,234.306 398.516,214.983C389.071,197.683 372.443,178.044 352.617,166.961C336.671,158.047 317.758,156.286 305.703,153.388C301.991,152.497 293.847,152.036 293.847,152.036L293.868,152.03ZM390.519,597.186C391.917,597.153 393.221,597.35 394.374,597.814C397.498,599.074 402.629,601.866 405.177,604.875C408.127,608.356 410.076,612.488 410.224,616.504C410.323,619.35 409.324,622.141 408.062,624.596C407.031,626.604 403.62,629.284 400.501,629.383C396.776,629.498 393.361,626.806 393.361,626.806C393.361,626.806 388.127,623.571 384.698,626.211C381.635,628.569 383.437,632.785 383.437,632.785L370.759,633.145C370.693,632.979 369.24,629.47 368.957,629.119C368.842,628.988 369.006,619.641 368.842,619.265L366.38,608.058C366.38,608.058 380.75,597.365 390.526,597.186L390.519,597.186ZM237.065,603.643C237.065,603.643 233.179,614.657 232.441,620.406C231.87,624.836 232.619,633.806 232.619,633.806L229.734,628.097C229.734,628.097 230.317,619.799 231.479,615.839C232.74,611.549 237.065,603.643 237.065,603.643Z" style="fill-rule:nonzero;stroke:black;stroke-width:8.5px;"/>
                <path id="path3949-7-8" d="M256.265,600.458L255.635,623.17L260.678,628.745L266.207,622.269L264.919,601.599L256.265,600.458Z" style="fill:rgb(226,64,64);fill-rule:nonzero;"/>
                <path id="path3943-7-5" d="M253.381,599.467L252.659,613.557C252.659,613.557 248.173,621.527 245.655,624.237C242.503,627.628 235.648,631.862 235.648,631.862C235.648,631.862 234.284,622.262 237.644,609.726C238.859,605.191 243.549,596.937 243.549,596.937L253.381,599.467Z" style="fill:rgb(31,46,192);fill-rule:nonzero;"/>
                <path id="path3945-8-7" d="M268.448,602.418L268.831,616.609C268.831,616.609 271.474,620.575 289.101,620.286C302.631,620.286 307.786,616.26 307.786,616.26L307.835,602.206C307.835,602.206 295.286,603.472 288.988,603.522C282.131,603.571 268.448,602.418 268.448,602.418L268.448,602.418Z" style="fill:rgb(247,195,148);fill-rule:nonzero;"/>
                <path id="path3947-6-4" d="M324.072,599.317L324.524,618.785C324.524,618.785 326.167,623.808 331.051,627.967C335.185,631.487 339.486,632.124 339.486,632.124C339.486,632.124 341.767,622.705 337.594,607.128C336.614,603.467 333.156,596.661 333.156,596.661L327.548,598.34L324.072,599.317Z" style="fill:rgb(31,46,192);fill-rule:nonzero;"/>
                <circle id="path3951-9-9" cx="260.882" cy="620.305" r="3.149" style="fill:rgb(252,221,17);"/>
                <path id="path3949-0-6-7" d="M310.942,601.295C310.942,601.295 310.358,621.522 310.991,623.561C311.797,625.133 315.651,629.221 315.651,629.221L320.882,622.491L320.612,599.792C320.612,599.792 317.542,600.622 315.615,600.856C314.416,601.004 310.937,601.295 310.937,601.295L310.942,601.295Z" style="fill:rgb(226,64,64);fill-rule:nonzero;"/>
                <circle id="path3951-8-2-8" cx="315.859" cy="620.782" r="3.149" style="fill:rgb(252,221,17);"/>
                <path id="path3979-1-8" d="M252.359,620.888L246.02,628.698L235.804,635.067L236.287,636.81L335.476,634.181L327.27,628.74L323.615,623.895L317.263,633.137L314.505,633.219L308.118,625.061L308.069,619.592C308.069,619.592 299.628,623.487 287.366,623.639C276.316,623.77 269.191,620.643 269.191,620.643C269.191,620.643 268.968,623.15 268.403,624.241C266.873,627.205 261.668,631.647 261.668,631.647L258.906,631.515L252.789,624.589L252.359,620.888Z" style="fill:rgb(226,64,64);fill-rule:nonzero;"/>
                <path id="path3981-0-8" d="M209.186,625.425C209.186,625.425 213.748,621.97 218.502,621.97C224.244,621.97 227.033,625.183 227.033,625.183C227.033,625.183 229.626,613.261 232.063,606.968C233.438,603.42 238.471,595.663 238.471,595.663L221.986,589.883C221.986,589.883 217.778,595.804 213.894,606.498C211.674,612.608 209.186,625.425 209.186,625.425Z" style="fill:rgb(31,46,192);fill-rule:nonzero;"/>
                <path id="path3983-8-8" d="M366.313,626.686C366.313,626.686 360.674,624.402 357.688,624.162C350.847,623.612 348.797,625.273 348.797,625.273C348.797,625.273 346.136,613.435 343.796,607.874C342.014,603.638 336.985,595.888 336.985,595.888L353.031,589.612C353.031,589.612 358.803,595.903 362.687,606.595C364.907,612.705 366.313,626.686 366.313,626.686Z" style="fill:rgb(31,46,192);fill-rule:nonzero;"/>
                <path id="path3985-4-7" d="M244.866,658.332L330.48,656.164C330.48,656.164 325.154,664.796 316.365,670.998C307.525,677.237 295.198,681.049 286.766,681.124C279.661,681.19 268.111,678.304 260.177,673.243C250.398,667.004 244.866,658.332 244.866,658.332Z" style="fill:rgb(226,64,64);fill-rule:nonzero;"/>
                <path id="path3987-3-2" d="M252.642,672.013L251.919,683.527C251.919,683.527 262.061,682.935 266.874,683.696C270.962,684.344 278.39,687.393 278.39,687.393L279.112,683.569C279.112,683.569 271.085,682.165 267.343,680.637C258.606,677.074 252.642,672.013 252.642,672.013L252.642,672.013Z" style="fill:rgb(31,46,192);fill-rule:nonzero;"/>
                <path id="path3989-1-5" d="M322.34,670.1L323.15,682.848C323.15,682.848 313.007,682.256 308.194,683.017C304.106,683.663 296.678,686.714 296.678,686.714L295.957,682.891C295.957,682.891 303.983,681.485 307.725,679.959C316.462,676.394 322.34,670.101 322.34,670.101L322.34,670.1Z" style="fill:rgb(31,46,192);fill-rule:nonzero;"/>
                <path id="path3991-7-9" d="M189.059,640.867C189.059,640.867 190.751,646.456 191.937,649.117C193.055,651.626 195.908,656.339 195.908,656.339L206.723,655.859C206.723,655.859 204.403,650.227 204.622,647.295C204.804,644.856 207.41,640.508 207.41,640.508L189.059,640.867Z" style="fill:rgb(157,98,66);fill-rule:nonzero;"/>
                <path id="path3993-1-5" d="M221.603,636.751C224.787,636.636 229.402,637.92 231.588,641.924C232.142,642.94 232.883,647.023 231.923,649.283C229.111,655.895 226.178,659.657 220.118,659.657C210.775,659.657 207.628,653.191 207.927,647.385C208.231,641.506 215.774,636.976 221.603,636.751Z" style="fill:rgb(247,195,148);fill-rule:nonzero;"/>
                <path id="path3995-0-0" d="M206.662,637.111L210.749,637.351C210.749,637.351 214.379,634.219 220.363,633.806C225.14,633.475 229.978,635.909 229.978,635.909C229.978,635.909 227.057,625.214 219.163,625.214C206.975,625.214 206.662,637.111 206.662,637.111Z" style="fill:rgb(247,195,148);fill-rule:nonzero;"/>
                <path id="path3997-1-0" d="M234.303,639.574C234.303,639.574 236.098,643.412 235.61,647.522C235.107,651.754 232.415,655.528 232.415,655.528L341.109,652.583C341.109,652.583 339.1,650.227 340.674,644.353C342.061,639.176 346.727,636.871 346.727,636.871L234.303,639.574Z" style="fill:rgb(157,98,66);fill-rule:nonzero;"/>
                <path id="path3999-3-4" d="M355.46,637.175C352.276,637.06 346.472,639.704 344.286,643.708C343.732,644.725 343.076,648.383 344.035,650.643C346.846,657.253 349.949,659.743 356.009,659.743C365.352,659.743 366.715,654.125 366.416,648.321C366.112,642.442 361.287,637.402 355.458,637.175L355.46,637.175Z" style="fill:rgb(247,195,148);fill-rule:nonzero;"/>
                <path id="path4001-3-1" d="M345.178,633.773L366.974,633.263C366.974,633.263 366.518,630.854 364.305,629.279C362.134,627.735 358.227,627.023 356.139,627.061C354.907,627.078 351.528,626.793 350.122,627.582C346.616,629.545 345.178,633.773 345.178,633.773Z" style="fill:rgb(247,195,148);fill-rule:nonzero;"/>
                <path id="path4003-9-0" d="M183.352,357.529C183.352,357.529 163.251,381.839 163.251,419.656C163.251,458.703 185.17,469.686 185.17,469.686L183.852,471.939C183.852,471.939 173.54,474.456 166.604,478.461C154.884,485.227 147.297,495.726 147.297,495.726C147.297,495.726 126.198,463.919 126.412,425.569C126.478,412.737 128.861,394.052 134.519,378.56C140.55,362.049 149.882,349.116 149.882,349.116L183.352,357.529Z" style="fill:rgb(31,46,192);fill-rule:nonzero;stroke:black;stroke-width:2.83px;"/>
                <path id="path4005-3-4" d="M394.55,364.657C394.55,364.657 400.774,377.152 404.913,391.5C408.667,404.513 410.372,419.049 410.357,427.168C410.357,434.291 407.654,447.237 404.539,453.887C398.944,465.83 390.963,468.089 391.83,470.622C391.289,474.586 402.369,470.921 416.607,481.366C421.294,484.805 428.027,494.542 428.027,494.542C428.027,494.542 448.648,473.67 447.915,417.597C447.783,407.94 445.611,393.382 441.659,381.642C437.28,368.628 431.091,358.879 431.091,358.879L394.55,364.657Z" style="fill:rgb(31,46,192);fill-rule:nonzero;stroke:black;stroke-width:2.83px;"/>
                <path id="path4007-3-8" d="M123.503,415.391C123.503,415.391 123.857,442.692 126.833,455.203C132.458,478.852 143.995,496.267 143.995,496.267C143.995,496.267 139.222,502.985 138.774,508.012C138.376,512.479 141.111,523.727 141.111,523.727C141.111,523.727 128.295,520.361 116.714,510.759C103.123,499.492 90.372,480.865 89.233,467.223C88.945,463.773 87.534,458.529 87.766,452.851C88.08,445.111 90.497,436.639 94.21,431.483C98.752,425.175 104.481,420.413 110.254,418.028C117.005,415.241 123.503,415.391 123.503,415.391Z" style="fill:rgb(255,205,152);fill-rule:nonzero;"/>
                <path id="path4009-0-0" d="M185.17,469.686C185.17,469.686 174.796,463.133 169.258,451.152C164.088,439.971 163.057,426.566 163.572,414.072C164.109,400.994 167.373,387.931 172.693,375.881C177.31,365.423 183.352,357.529 183.352,357.529C183.352,357.529 204.194,366.109 229.338,372.182C243.812,375.677 255.752,375.932 266.909,378.285C271.96,379.349 290.114,380.038 290.114,380.038C290.114,380.038 310.272,379.045 317.664,377.957C321.51,377.391 325.343,375.842 329.535,374.954C333.843,374.04 338.621,373.686 343.232,372.841C348.636,371.853 353.909,370.381 359.438,369.401C362.879,368.793 366.551,369.253 369.827,368.768C374.012,368.14 377.1,366.972 380.541,366.403C382.551,366.071 384.692,366.337 386.404,366.109C391.384,365.446 394.55,364.657 394.55,364.657C394.55,364.657 413.258,403.331 410,432.579C409.449,437.521 406.504,450.547 403.444,456.14C397.858,466.351 391.054,468.603 391.83,470.622C391.23,474.106 402.438,472.562 412.01,478.41C416.454,481.123 423.757,487.232 427.013,493.544C430.732,500.76 433.663,508.86 431.163,517.539C416.695,567.773 339.57,600.447 287.299,599.856C234.87,599.266 173.643,571.198 145.832,526.751C143.216,522.571 141.213,515.339 142.19,508.775C143.218,501.868 147.297,495.726 147.297,495.726C147.297,495.726 156.077,484.553 164.231,479.845C172.423,475.114 183.852,471.939 183.852,471.939L185.17,469.686Z" style="fill:rgb(255,205,152);fill-rule:nonzero;"/>
                <path id="path4025-6-1" d="M273.248,688.282C262.388,685.53 235.74,684.752 231.683,696.257C229.843,701.472 236.305,706.992 241.398,708.743C246.305,710.429 251.57,706.967 256.692,706.334C264.766,705.338 276.29,712.226 280.998,704.154C284.691,697.82 280.916,690.223 273.248,688.282Z" style="fill:rgb(247,195,148);fill-rule:nonzero;"/>
                <path id="path4027-6-5" d="M302.171,687.432C313.03,684.681 339.679,683.903 343.735,695.407C345.575,700.623 339.113,706.142 334.02,707.893C329.114,709.579 323.848,706.117 318.726,705.484C310.652,704.488 299.129,711.376 294.421,703.304C290.727,696.969 294.503,689.372 302.171,687.432Z" style="fill:rgb(247,195,148);fill-rule:nonzero;"/>
                <path id="path4029-2-1" d="M362.598,636.409L368.462,643.631L369.738,651.703L480.776,649.128L484.022,642.218L478.676,633.265L362.598,636.409Z" style="fill:rgb(157,98,66);fill-rule:nonzero;"/>
                <path id="path4031-2-5" d="M166.443,631.77C163.692,631.275 158.657,632.393 157.958,635.228C157.012,639.063 162.228,643.455 165.985,644.082C169.044,644.59 174.255,645.293 174.699,639.214C175.092,633.847 170.006,632.413 166.443,631.77Z" style="fill:rgb(127,127,127);fill-rule:nonzero;"/>
                <path id="path4033-2-3" d="M177.161,635.309L177.401,637.772C177.401,637.772 178.231,638.657 179.295,639.515C180.331,640.35 181.602,641.146 181.398,642.098C181.104,643.465 179.147,643.31 177.491,644.108C176.842,644.422 176.255,645.15 175.709,645.44C173.117,646.811 171.486,647.4 168.929,647.206C166.934,647.058 163.646,646.742 161.385,645.377C157.736,643.174 155.411,639.574 155.411,639.574L153.728,641.738C153.728,641.738 156.081,646.293 154.417,647.175C152.242,648.329 153.049,645.453 151.122,642.931C149.358,640.62 144.873,638.673 142.598,638.958C140.958,639.162 138.643,640.817 137.775,642.718C136.558,645.39 136.911,648.428 134.751,647.574C132.615,646.731 134.816,642.922 135.716,640.954C136.706,638.806 139.07,637.386 140.559,636.748C140.983,634.497 137.288,631.31 135.885,630.376C134.608,629.71 132.672,629.34 130.35,629.184C125.624,628.863 121.492,631.499 117.169,632.426C111.542,633.632 105.798,633.189 100.132,632.36C95.079,631.624 88.787,629.313 82.428,626.493C76.982,624.078 71.487,622.131 66.682,619.638C63.635,618.059 60.17,616.39 56.691,614.46C54.912,613.472 53.216,612.018 51.386,611.299C49.832,610.689 47.171,609.765 46.533,610.063C46.109,610.913 53.218,616.959 57.215,619.331C64.725,623.785 82.126,633.04 92.554,636.999C104.177,641.411 103.067,640.013 108.48,640.291C114.757,640.615 122.831,636.527 126.627,639.089C129.201,640.826 129.454,644.031 129.75,646.782C130,649.105 131.567,651.692 128.553,653.691C121.688,658.248 109.99,659.075 100.128,659.639C93.007,660.047 86.689,656.044 79.917,653.295C69.357,649.006 58.189,644.795 49.643,639.648C43.944,636.217 38.851,633.516 34.574,632.781C33.85,632.65 33.492,633.863 33.612,634.765C34.513,635.845 50.501,648.442 67.308,656.416C73.345,659.279 93.074,668.967 99.737,669.454C109.266,670.151 126.461,663.75 128.247,664.26C130.286,665.195 127.654,680.881 125.368,683.854C122.905,687.059 120.627,687.623 114.155,689.247C108.207,690.739 100.553,690.501 95.381,689.622C79.993,687.011 65.508,677.531 50.799,669.946C43.804,666.34 38.08,661.91 32.395,657.409C32.045,657.133 31.226,657.294 30.547,656.993C29.615,656.576 28.533,655.673 28.368,656.383C28.072,657.662 27.778,659.407 28.202,660.438C29.052,662.508 31.06,663.691 32.292,664.687C44.164,674.297 56.875,683.639 70.078,690.785C76.849,694.452 82.751,698.481 90.818,699.717C99.517,701.051 111.047,699.929 119.583,696.864C123.816,695.343 128.958,694.307 132.333,691.54C139.118,685.974 141.4,673.194 143.089,667.511C143.911,664.746 144.138,663.225 144.221,662.045C144.303,660.8 144.237,659.932 144.535,658.378C145.03,655.798 144.65,655.133 144.65,655.133L143.267,656.365C143.267,656.365 143.135,658.822 142.366,658.618C142.366,658.618 137.576,658.327 142.481,653.413C144.72,651.174 147.289,651.669 150.19,652.238C154.205,653.024 153.82,658.195 157.456,660.027C162.059,662.346 168.056,662.094 173.186,662.15C176.707,662.183 181.801,661.443 186.178,661.106C190.097,660.803 193.484,660.974 193.966,659.989C195.112,658.46 189.607,652.068 187.601,646.2C186.675,643.488 184.266,634.705 184.266,634.705L177.161,635.309Z" style="fill:rgb(195,195,195);fill-rule:nonzero;"/>
                <path id="path4035-4-7" d="M431.43,495.179C431.43,495.179 435.554,503.68 435.955,508.284C436.394,513.338 433.549,523.306 433.549,523.306C433.549,523.306 449.755,519.971 461.423,508.303C472.085,497.642 484.11,481.901 485.388,469.941C486.666,457.982 487.333,449 485.322,441.704C482.413,431.187 475.481,424.561 469.826,420.832C460.792,414.874 451.34,415.391 451.34,415.391C451.34,415.391 452.496,437.17 447.255,456.73C439.477,485.757 431.435,495.179 431.435,495.179L431.43,495.179Z" style="fill:rgb(255,205,152);fill-rule:nonzero;"/>
                <path id="path2425-8-6" d="M176.5,508.284C173.204,513.163 185.022,553.033 236.437,570.994C251.304,576.187 268.93,580.211 291.137,580.211C333.946,580.211 396.845,559.964 397.86,508.284C397.893,506.257 395.642,503.785 393.484,502.564C389.058,500.059 368.235,505.094 345.789,507.388C315.513,510.481 281.831,509.955 281.831,509.955C241.386,509.6 216.668,505.621 201.183,503.536C186.996,501.625 180.574,501.227 176.5,508.284Z" style="fill-rule:nonzero;"/>
                <path id="path2427-3-8" d="M191.822,537.727C191.822,537.727 235.705,541.93 288.256,541.93C311.731,541.93 329.813,542.436 343.653,541.798C354.564,541.29 362.67,539.544 368.878,538.793C381.959,537.207 386.022,536.532 386.022,536.532C386.022,536.532 398.167,516.355 394.114,507.286C393.213,505.274 390.682,505.277 388.785,505.287C382.753,505.32 370.06,508.015 355.256,509.562C334.404,511.739 309.026,512.978 289.267,512.945C258.332,512.895 235.373,510.868 218.212,508.809C197.184,506.285 185.2,503.876 182.112,506.403C173.104,513.201 191.822,537.734 191.822,537.734L191.822,537.727Z" style="fill:white;fill-rule:nonzero;"/>
                <path id="path2429-4-1" d="M194.69,541.024C194.69,541.024 255.898,545.186 286.546,545.033C303.169,544.951 328.527,545.266 349.043,543.954C368.508,542.711 383.59,539.833 383.59,539.833C383.59,539.833 359.679,577.894 283.936,576.904C224.926,576.133 194.69,541.024 194.69,541.024Z" style="fill:white;fill-rule:nonzero;"/>
                <path id="path2431-6-2" d="M362.471,598.509C362.471,598.509 363.575,600.701 364.04,601.884C364.423,602.856 365.02,604.967 365.02,604.967C365.02,604.967 369.121,602.31 371.165,600.969C372.407,600.154 374.88,598.509 374.88,598.509C374.88,598.509 375.125,595.523 374.781,594.116C374.512,592.979 373.515,591.246 373.515,591.246C373.515,591.246 370.517,592.042 367.791,594.224C366.084,595.724 364.43,596.903 362.471,598.509Z" style="fill:rgb(31,46,192);fill-rule:nonzero;"/>
                <path id="path2433-0-3" d="M374.88,590.521C374.88,590.521 375.834,592.83 376.067,594.048C376.31,595.316 376.281,597.914 376.281,597.914L379.694,596.265C379.694,596.265 380.306,593.211 380.033,591.881C379.816,590.847 378.846,589.289 378.846,589.289L374.88,590.521Z" style="fill:rgb(250,235,215);fill-rule:nonzero;"/>
                <path id="path2435-1-2" d="M380.318,588.992C380.318,588.992 380.982,590.886 381.122,591.967C381.288,593.236 381.073,595.875 381.073,595.875L385.958,594.006C385.958,594.006 387.065,591.86 387.107,590.692C387.14,589.755 386.385,587.972 386.385,587.972L380.318,588.992Z" style="fill:rgb(254,254,254);fill-rule:nonzero;"/>
                <path id="path2437-7-6" d="M387.518,587.739C387.518,587.739 388.148,589.83 388.115,590.904C388.082,591.948 387.349,593.941 387.349,593.941L391.957,594.494C391.957,594.494 392.692,592.014 392.766,590.733C392.831,589.697 392.47,587.632 392.47,587.632L387.518,587.739Z" style="fill:rgb(250,235,215);fill-rule:nonzero;"/>
                <path id="path2439-8-3" d="M392.721,594.69L396.507,595.471C396.507,595.471 397.917,593.723 398.37,592.706C398.873,591.575 399.269,589.102 399.269,589.102L393.892,587.93C393.892,587.93 393.974,590.27 393.777,591.414C393.58,592.545 392.721,594.69 392.721,594.69L392.721,594.69Z" style="fill:rgb(254,254,254);fill-rule:nonzero;"/>
                <path id="path2441-8-4" d="M393.445,630.736L393.527,632.627L386.982,632.903C386.982,632.903 385.759,631.045 386.07,630.141C386.384,629.228 387.548,628.595 388.51,628.506C390.307,628.34 393.445,630.736 393.445,630.736L393.445,630.736Z" style="fill:rgb(31,46,192);fill-rule:nonzero;"/>
                <path id="path2443-7-3" d="M394.889,631.076L394.889,632.584L399.096,632.502C399.096,632.502 398.718,632.069 397.965,631.795C397.487,631.621 396.666,631.611 396.311,631.489C395.822,631.325 394.889,631.08 394.889,631.08L394.889,631.076Z" style="fill:rgb(250,235,215);fill-rule:nonzero;"/>
                <path id="path2445-3-0" d="M400.349,632.627L403.961,632.676L404.01,631.359C404.01,631.359 403.11,632.137 402.609,632.017C402.152,631.902 400.522,632.395 400.349,632.633L400.349,632.627Z" style="fill:rgb(254,254,254);fill-rule:nonzero;"/>
                <path id="path2447-1-6" d="M405.108,631.033L405.809,632.691L410.546,632.691L407.254,629.313L405.108,631.033Z" style="fill:rgb(250,235,215);fill-rule:nonzero;"/>
                <path id="path2449-6-8" d="M408.402,628.59C408.402,628.59 410.145,630.571 411.077,631.012C412.684,631.77 416.05,631.693 416.05,631.693C416.05,631.693 417.535,630.057 417.936,629.175C418.285,628.414 418.299,626.763 418.299,626.763C418.299,626.763 415.287,627.853 413.628,627.358C412.59,627.049 410.737,625.531 410.737,625.531L408.402,628.59Z" style="fill:rgb(254,254,254);fill-rule:nonzero;"/>
                <path id="path2451-8-4" d="M412.491,622.029L411.53,624.703C411.53,624.703 413.375,626.094 414.471,626.265C415.93,626.493 418.831,625.484 418.831,625.484L419.34,622.629C419.34,622.629 416.769,623.08 415.404,622.9C414.412,622.769 412.491,622.029 412.491,622.029L412.491,622.029Z" style="fill:rgb(250,235,215);fill-rule:nonzero;"/>
                <path id="path2453-4-9" d="M420.128,618.16L419.7,621.452C419.7,621.452 417.421,622.152 416.259,622.068C415.045,621.986 412.796,620.922 412.796,620.922L413.245,618.776C413.245,618.776 415.8,619.122 417.069,618.988C418.12,618.873 420.128,618.16 420.128,618.16L420.128,618.16Z" style="fill:rgb(254,254,254);fill-rule:nonzero;"/>
                <path id="path2455-8-6" d="M419.914,612.7L420.171,616.907C420.171,616.907 418.16,617.752 417.091,617.905C415.912,618.073 413.519,617.79 413.519,617.79L413.179,614.646C413.179,614.646 415.854,614.613 417.112,614.221C418.127,613.902 419.914,612.692 419.914,612.692L419.914,612.7Z" style="fill:rgb(250,235,215);fill-rule:nonzero;"/>
                <path id="path2457-4-4" d="M418.678,607.517L419.7,611.304C419.7,611.304 418.095,612.814 417.086,613.166C415.818,613.608 413.062,613.376 413.062,613.376L412.158,610.454C412.158,610.454 412.337,611.101 416.063,609.561C417.086,609.139 418.678,607.517 418.678,607.517L418.678,607.517Z" style="fill:rgb(254,254,254);fill-rule:nonzero;"/>
                <path id="path2459-3-3" d="M400.688,589.459L404.748,591.435C404.748,591.435 404.398,593.769 403.855,594.792C403.248,595.936 401.306,597.723 401.306,597.723L397.376,595.727C397.376,595.727 399.008,593.815 399.583,592.71C400.111,591.695 400.688,589.459 400.688,589.459Z" style="fill:rgb(250,235,215);fill-rule:nonzero;"/>
                <path id="path2461-7-4" d="M406.271,592.317L409.576,594.839C409.576,594.839 408.497,597.266 407.77,597.995C406.05,599.715 405.13,599.978 405.13,599.978L402.785,598.174C402.785,598.174 404.372,596.355 404.978,595.321C405.531,594.38 406.271,592.317 406.271,592.317Z" style="fill:rgb(254,254,254);fill-rule:nonzero;"/>
                <path id="path2463-8-0" d="M410.569,595.79L412.819,598.085C412.819,598.085 411.388,600.077 410.482,600.889C409.622,601.658 407.593,602.801 407.593,602.801L406.274,600.973C406.274,600.973 408.137,599.605 408.867,598.722C409.588,597.852 410.569,595.79 410.569,595.79Z" style="fill:rgb(250,235,215);fill-rule:nonzero;"/>
                <path id="path2465-2-2" d="M408.145,603.65C408.145,603.65 409.127,606.044 410.268,606.284C410.268,606.284 412.834,605.417 413.855,604.576C414.693,603.883 415.793,601.951 415.793,601.951C416.154,601.17 413.797,598.891 413.797,598.891C413.797,598.891 412.314,601.006 411.334,601.823C410.393,602.609 408.145,603.65 408.145,603.65Z" style="fill:rgb(254,254,254);fill-rule:nonzero;"/>
                <path id="path2467-8-3" d="M410.355,607.156L411.696,609.619C411.696,609.619 414.156,609.274 415.219,608.685C416.364,608.052 418.087,606.008 418.087,606.008L416.494,603.076C416.494,603.076 414.932,605.365 413.797,606.093C412.786,606.741 410.355,607.156 410.355,607.156Z" style="fill:rgb(250,235,215);fill-rule:nonzero;"/>
                <path id="path2469-9-8" d="M283.815,380.18C283.815,380.18 290.098,394.953 286.547,416.917C284.633,428.756 284.303,435.575 272.708,450.128C262.5,462.943 243.694,472.033 231.662,469.949C203.216,465.026 194.385,440.878 191.036,420.316C189.37,410.089 193.511,393.622 198.988,382.048C203.484,372.552 209.39,366.781 209.39,366.781C209.39,366.781 223.453,370.774 230.698,372.32C237.039,373.671 243.577,374.627 250.044,375.615C261.273,377.328 283.815,380.18 283.815,380.18Z" style="fill:white;fill-rule:nonzero;"/>
                <g id="path2471-8-1" transform="matrix(0.990517,0.137388,-0.161083,0.986941,0,0)">
                    <ellipse cx="312.33" cy="377.993" rx="31.734" ry="36.893" style="fill:rgb(152,37,126);"/>
                </g>
                <path id="path2475-9-3" d="M290.114,380.038C290.114,380.038 283.831,394.81 287.381,416.774C289.295,428.615 289.626,435.432 301.22,449.987C311.428,462.8 330.715,470.207 342.747,468.124C371.193,463.202 379.543,440.735 382.893,420.174C384.559,409.946 380.844,392.544 375.365,380.971C368.932,367.383 366.748,368.934 366.748,368.934C366.748,368.934 364.441,368.709 360.718,369.151C355.355,369.789 348.017,371.69 343.74,372.601C337.4,373.953 336.721,373.884 330.253,374.87C327.959,375.22 319.425,377.662 316.475,378.073C304.986,379.675 290.114,380.038 290.114,380.038L290.114,380.038Z" style="fill:white;fill-rule:nonzero;"/>
                <g id="ellipse2473-2-0" transform="matrix(-0.990604,0.136763,0.161813,0.986821,0,0)">
                    <ellipse cx="-255.461" cy="455.894" rx="31.731" ry="36.726" style="fill:rgb(152,37,126);"/>
                </g>
                <g id="ellipse2479-7-4" transform="matrix(-0.990279,0.139094,0.15912,0.987259,0,0)">
                    <ellipse cx="-252.821" cy="460.811" rx="17.949" ry="21.119"/>
                </g>
                <g id="ellipse2483-2-7" transform="matrix(0.990279,0.139094,-0.15912,0.987259,0,0)">
                    <ellipse cx="314.404" cy="382.271" rx="17.949" ry="21.119"/>
                </g>
                <circle id="path2485-6-0" cx="259.054" cy="405.148" r="8.2" style="fill:white;"/>
                <circle id="circle2487-2-8" cx="332.473" cy="405.063" r="8.2" style="fill:white;"/>
                <path id="path2489-8-6" d="M250.888,464.649C250.286,469.696 253.54,474.522 257.1,478.724C264.256,487.164 276.3,493.074 286.339,493.143C302.079,493.258 324.227,479.503 322.872,463.821C321.73,450.611 301.077,445.093 287.921,444.833C274.004,444.56 252.527,450.93 250.888,464.649Z" style="fill:rgb(95,72,53);fill-rule:nonzero;"/>
                <path id="path2491-0-8" d="M252.45,464.289C253.139,471.934 274.711,478.189 286.577,478.722C295.657,479.131 307.686,475.463 314.929,469.518C318.082,466.932 321.545,464.89 321.431,460.936C321.181,452.269 298.958,445.085 286.459,445.555C274.065,446.02 251.318,451.718 252.45,464.289Z" style="fill:rgb(119,90,66);fill-rule:nonzero;"/>
                <path id="path2493-5-5" d="M172.001,318.856C164.282,317.327 151.379,317.459 135.177,316.985C125.251,316.694 113.186,315.199 102.963,315.822C93.337,316.409 83.259,318.195 74.817,319.241C54.02,321.821 51.23,322.234 39.504,324.179C33.771,325.131 30.507,322.921 22.384,327.471C20.177,328.706 17.573,331.991 17.272,333.072C17.992,334.695 21.108,339.343 24.122,340.463C27.431,341.692 30.639,341.139 34.066,340.365C40.236,338.972 46.714,336.053 52.904,335.777C58.056,335.545 64.023,335.843 70.753,335.953C73.55,336.002 76.777,335.614 79.658,335.779C83.407,335.994 87.075,336.838 90.798,337.079C98.283,337.568 105.409,337.724 111.568,338.446C122.709,339.751 126.593,340.531 132.675,341.795C137.926,342.886 144.78,345.082 151.403,346.534C156.058,347.556 160.643,347.822 164.288,348.751C169.674,350.124 176.47,352.597 179.385,353.382C185.845,355.121 193.803,357.757 200.968,360.311C210.882,363.843 220.207,367.378 230.313,369.569C242.84,372.285 256.87,373.555 270.288,374.849C275.024,375.306 278.238,376.786 282.762,377.243C286.643,377.636 291.846,377.054 295.723,376.978C312.642,376.651 343.65,369.161 343.65,369.161C343.65,369.161 351.494,367.183 355.568,366.561C360.518,365.805 365.168,366.283 370.192,365.732C372.689,365.458 375.126,364.469 378.368,364.029C380.727,363.707 383.276,363.619 385.761,363.299C389.523,362.814 392.965,361.352 396.214,360.913C402.004,360.128 403.11,360.88 406.531,360.493C409.153,360.197 412.297,359.023 415.756,358.384C422.969,357.048 423.861,357.261 427.903,356.626C429.754,356.336 431.241,355.448 433.704,355.034C438.824,354.169 441.311,354.702 444.966,353.742C447.02,353.202 448.765,351.736 450.837,351.265C455.849,350.129 461.084,350.759 466.236,350.542C468.981,350.427 472.587,349.723 476.206,349.634C481.507,349.502 481.057,350.078 483.487,350.017C487.562,349.918 491.298,348.179 496.7,347.61C500.039,347.256 503.544,347.006 506.732,346.829C513.135,346.474 514.459,346.944 518.271,346.411C521.671,345.937 525.923,344.384 530.251,343.255C535.859,341.795 538.1,342.838 541.226,340.764C542.828,339.7 544.886,337.564 544.109,335.806C543.382,334.164 541.639,335.165 539.662,335.219C537.268,335.285 534.502,334.609 532.422,334.484C529.61,334.317 526.737,333.675 523.802,333.754C520.035,333.853 516.19,334.698 512.53,334.572C509.342,334.456 505.226,334.333 501.095,333.629C495.795,332.725 490.316,331.183 485.094,330.808C473.952,330.007 473.757,331.46 467.076,331.15C463.883,331.002 459.387,330.308 455.023,329.384C451.256,328.586 447.676,327.552 444.085,327.315C439.589,327.021 435.84,327.629 431.343,327.348C427.899,327.137 423.254,326.33 420.357,326.161C416.433,325.932 412.549,327.154 409.139,326.961C406.79,326.83 403.147,325.496 403.147,325.496C403.147,325.496 397.797,327.121 395.06,327.655C390.45,328.552 385.175,328.232 379.06,329.051C361.062,331.459 339.935,334.511 339.935,334.511C339.935,334.511 326.854,335.69 320.32,336.344C315.414,336.836 309.893,337.908 304.548,338.648C294.049,340.103 283.744,341.249 276.726,340.999C264.395,340.559 247.875,339.1 232.785,335.951C216.991,332.654 202.777,327.856 191.509,324.398C180.301,320.958 174.294,319.871 172.001,318.851L172.001,318.856Z" style="fill:rgb(255,211,97);fill-rule:nonzero;"/>
                <path id="path2495-6-6" d="M404.709,303.871L402.668,311.202C402.668,311.202 405.008,312.294 404.62,316.505C404.163,321.476 401.584,322.979 401.584,322.979C401.584,322.979 334.043,332.426 300.166,336.268C293.326,337.045 279.607,338.24 279.607,338.24C279.607,338.24 267.049,338.092 253.66,336.719C243.541,335.683 232.874,333.735 227.21,331.87C227.21,331.87 190.388,322.484 175.528,316.518C172.158,315.165 171.405,313.502 171.405,313.502L172.17,308.829C172.17,308.829 174.061,309.232 176.975,309.072C181.374,308.832 188.18,307.923 194.956,307.292C200.501,306.775 206.743,307.094 210.027,305.94C210.661,305.716 211.556,304.721 211.26,304.198C210.65,303.113 207.18,303.475 207.18,303.475C207.18,303.475 197.646,303.97 193.134,304.417C187.974,304.929 178.162,306.348 178.162,306.348C175.122,306.644 172.593,306.109 172.593,306.109C172.593,306.109 171.713,302.848 173.275,300.926C173.275,300.926 176.74,299.372 180.185,298.856C182.557,298.501 185.452,298.856 186.275,298.377C186.682,298.142 186.936,297.567 186.871,297.103C186.788,296.486 186.474,295.909 185.639,295.7C182.39,294.888 174.845,297.018 174.845,297.018C174.845,297.018 175.612,295.263 176.505,294.807C184.179,290.894 189.618,291.774 204.488,287.562C214.351,284.77 225.668,284.155 234.48,283.435C243.792,282.674 252.945,283.072 264.371,283.239C270.396,283.322 277.179,282.861 284.683,283.19C297.945,283.782 311.024,285.497 320.948,286.75C334.805,288.5 354.763,292.517 370.713,295.62C377.976,297.032 384.789,297.97 389.145,298.92C403.068,301.956 404.709,303.865 404.709,303.865L404.709,303.871Z" style="fill:rgb(211,0,2);fill-rule:nonzero;"/>
                <path id="path3008-0" d="M218.37,322.165C217.766,322.175 217.228,322.562 217.027,323.132C216.763,323.882 217.163,324.717 217.913,324.982C217.913,324.982 229.677,329.148 235.366,330.628C242.217,332.409 255.457,333.81 255.457,333.81C255.51,333.816 255.562,333.819 255.614,333.819C256.352,333.819 256.978,333.256 257.057,332.523C257.063,332.471 257.066,332.419 257.066,332.367C257.066,331.629 256.503,331.003 255.77,330.924C255.77,330.924 242.406,329.459 236.095,327.818C230.756,326.429 218.88,322.245 218.88,322.245C218.716,322.188 218.544,322.16 218.37,322.163L218.37,322.165Z" style="fill-rule:nonzero;"/>
                <path id="path3004-4" d="M279.273,287.714C279.273,287.714 265.981,287.381 259.345,287.796C252.001,288.264 238.15,290.442 238.15,290.442C237.392,290.561 236.865,291.283 236.984,292.041C237.091,292.72 237.681,293.224 238.367,293.224C238.44,293.224 238.513,293.219 238.584,293.207C238.584,293.207 252.511,291.037 259.521,290.589C265.817,290.188 279.174,290.507 279.192,290.507C279.192,290.507 287.475,290.79 295.943,291.854C300.329,292.405 304.945,293.419 308.212,294.201C310.868,294.837 313.869,295.064 316.487,296.073C318.779,296.958 320.648,298.177 320.648,298.177C320.877,298.327 321.144,298.406 321.417,298.406C321.889,298.406 322.331,298.167 322.589,297.772C322.738,297.544 322.817,297.278 322.817,297.006C322.817,296.533 322.578,296.092 322.183,295.833C322.183,295.833 320.114,294.474 317.495,293.462C314.367,292.255 311.165,292.028 308.865,291.477C305.551,290.687 300.855,289.649 296.29,289.075C287.659,287.991 279.286,287.71 279.286,287.71L279.273,287.714Z" style="fill-rule:nonzero;"/>
                <path id="path3012-1" d="M351.49,304.478C348.652,304.609 345.131,306.001 345.131,306.001C344.769,306.138 344.529,306.487 344.529,306.875C344.529,306.989 344.55,307.102 344.59,307.209C344.774,307.687 345.317,307.93 345.796,307.749C345.796,307.749 349.316,306.454 351.579,306.347C362.904,305.813 380.017,307.129 391.384,308.979C394.297,309.452 396.02,311.047 396.02,311.047C396.193,311.208 396.42,311.297 396.656,311.297C396.916,311.297 397.165,311.188 397.342,310.998C397.503,310.825 397.593,310.597 397.593,310.361C397.593,310.1 397.484,309.851 397.293,309.674C397.293,309.674 395.153,307.698 391.689,307.134C380.166,305.259 363.05,303.935 351.495,304.481L351.49,304.478Z" style="fill-rule:nonzero;"/>
                <path id="path2503-1-8" d="M174.459,292.454C174.459,292.454 203.809,283.751 218.245,282.164C240.719,279.692 263.054,279.472 285.354,280.447C303.838,281.256 320.981,283.167 339.348,286.191C342.487,286.707 347.312,287.916 350.418,288.452C357.173,289.616 365.395,291.537 374.403,293.396C380.032,294.557 385.703,294.809 390.919,296.157C395.727,297.399 405.13,300.627 405.13,300.627C405.13,300.627 409.234,285.724 409.74,277.948C410.152,271.653 408.433,258.805 408.433,258.805C408.433,258.805 407.262,240.42 397.013,219.775C394.576,214.866 391.781,209.723 388.145,204.798C381.689,196.053 373.318,187.631 364.836,179.835C359.168,174.624 352.179,169.537 343.65,166.117C339.633,164.507 334.571,163.369 330.321,162.186C324.991,160.701 319.991,158.88 315.079,157.882C307.712,156.387 300.845,155.99 295.771,155.337C285.245,153.983 272.19,157.405 258.649,162.072C244.404,166.979 229.656,173.371 218.255,181.545C200.113,194.55 190.949,210.852 190.949,210.852C190.949,210.852 187.027,215.378 183.899,221.901C182.334,225.167 181.859,228.551 180.387,232.885C176.458,244.462 174.296,259.493 173.106,269.153C172.734,272.169 172.481,277.642 172.699,281.636C173.014,287.339 174.459,292.454 174.459,292.454Z" style="fill:rgb(255,211,97);fill-rule:nonzero;"/>
                <path id="path3573-4-4-2-8-5" d="M289.126,327.41C283.602,327.114 279.746,326.013 276.03,323.674C274.539,322.734 273.726,322.071 272.202,320.56C270.725,319.09 269.898,318.067 268.616,316.13C266.471,312.882 266.223,311.376 267.711,310.667C268.64,310.227 270.541,310.029 272.069,310.215C274.16,310.468 275.596,310.978 279.493,312.839C282.849,314.446 284.249,315.235 286.49,316.791C288.036,317.863 289.072,317.656 292.079,315.676C295.113,313.678 296.782,312.083 298.92,309.143C300.378,307.134 301.238,306.32 302.772,305.506C303.807,304.958 304.989,304.626 306.387,304.493C308.942,304.251 310.085,304.864 310.085,306.479C310.085,307.734 309.514,310.358 308.811,312.343C307.449,316.184 305.52,319.185 302.544,322.089C300.378,324.207 298.556,325.432 296.21,326.355C295.253,326.731 293.819,327.113 292.791,327.264C292.02,327.379 290.02,327.456 289.126,327.412L289.126,327.41ZM251.572,318.608C250.835,318.509 250.259,318.175 249.983,317.676C249.182,316.227 250.528,310.916 252.649,307.13C253.908,304.889 255.257,303.105 257.057,301.314C259.892,298.492 262.913,296.772 266.358,296.019C267.728,295.72 271.194,295.649 273.221,295.888C276.555,296.266 279.192,297.026 281.843,298.371C284.153,299.541 285.449,300.472 287.348,302.319C288.702,303.636 289.769,304.907 290.862,306.515C292.416,308.801 293.031,310.11 293.031,311.144C293.031,311.639 292.998,311.71 292.671,312.042C292.022,312.693 290.602,312.945 287.988,312.877C285.977,312.828 285.891,312.795 282.769,311.384C278.694,309.538 276.369,308.317 274.118,306.842C272.506,305.787 272.33,305.71 271.497,305.706C270.839,305.706 270.707,305.739 269.878,306.142C268.155,306.974 265.508,308.893 263.842,310.513C262.536,311.784 261.87,312.565 260.645,314.26C260.159,314.931 259.54,315.706 259.269,315.982C257.837,317.447 255.885,318.358 253.649,318.608C252.654,318.723 252.381,318.723 251.572,318.625L251.572,318.608Z" style="fill:rgb(251,221,17);fill-rule:nonzero;"/>
            </g>
        </g>
    </g>
</svg>
